STARTFONT 2.1
FONT -Adobe-Utopia-Regular-R-Normal--19-140-100-100-P-105-ISO10646-1
SIZE 14 100 100
FONTBOUNDINGBOX 25 30 -3 -7
COMMENT $Xorg: $
COMMENT ISO10646-1 extension by Markus Kuhn <mkuhn@acm.org>, 2001-03-20
STARTPROPERTIES 28
FOUNDRY "Adobe"
FAMILY_NAME "Utopia"
WEIGHT_NAME "Regular"
SLANT "R"
SETWIDTH_NAME "Normal"
ADD_STYLE_NAME ""
PIXEL_SIZE 19
POINT_SIZE 140
RESOLUTION_X 100
RESOLUTION_Y 100
SPACING "P"
AVERAGE_WIDTH 105
CHARSET_REGISTRY "ISO10646"
CHARSET_ENCODING "1"
CAP_HEIGHT 13
X_HEIGHT 10
RELATIVE_SETWIDTH 50
RELATIVE_WEIGHT 50
WEIGHT 136
FACE_NAME "Utopia Regular"
COPYRIGHT "Copyright (c) 1989, 1991 Adobe Systems Incorporated.  All Rights Reserved."
NOTICE "Utopia is a registered trademark of Adobe Systems Incorporated."
DESTINATION 0
FONT_ASCENT 18
FONT_DESCENT 4
DEFAULT_CHAR 0
_ADOBE_PSFONT "Utopia-Regular"
_DEC_DEVICE_FONTNAMES "PS=Utopia-Regular"
ENDPROPERTIES
CHARS 756
STARTCHAR char0
ENCODING 0
SWIDTH 798 0
DWIDTH 16 0
BBX 15 13 0 0
BITMAP
AAAA
0000
8002
0000
8002
0000
8002
0000
8002
0000
8002
0000
AAAA
ENDCHAR
STARTCHAR space
ENCODING 32
SWIDTH 225 0
DWIDTH 4 0
BBX 0 0 0 0
BITMAP
ENDCHAR
STARTCHAR exclam
ENCODING 33
SWIDTH 242 0
DWIDTH 5 0
BBX 2 14 1 0
BITMAP
C0
C0
C0
C0
C0
C0
80
80
80
80
00
40
C0
C0
ENDCHAR
STARTCHAR quotedbl
ENCODING 34
SWIDTH 458 0
DWIDTH 9 0
BBX 5 5 2 9
BITMAP
D8
D8
D8
88
88
ENDCHAR
STARTCHAR numbersign
ENCODING 35
SWIDTH 530 0
DWIDTH 10 0
BBX 10 13 0 0
BITMAP
0880
0880
0900
1100
7FC0
1100
1200
3200
FF80
2200
2400
2400
4400
ENDCHAR
STARTCHAR dollar
ENCODING 36
SWIDTH 530 0
DWIDTH 10 0
BBX 9 16 1 -2
BITMAP
0800
3E00
6B00
C900
C800
E800
7800
1E00
0B00
0980
0980
C980
EB00
3C00
0800
0800
ENDCHAR
STARTCHAR percent
ENCODING 37
SWIDTH 838 0
DWIDTH 16 0
BBX 14 14 1 -1
BITMAP
7820
4FE0
8440
8440
8480
4880
7978
0248
0284
0484
0484
0848
0878
1000
ENDCHAR
STARTCHAR ampersand
ENCODING 38
SWIDTH 706 0
DWIDTH 14 0
BBX 13 13 1 0
BITMAP
1C00
2200
6300
6300
2600
3830
2C30
4620
C360
C3C0
C1C0
6170
3E18
ENDCHAR
STARTCHAR quotesingle
ENCODING 39
SWIDTH 278 0
DWIDTH 5 0
BBX 2 5 2 9
BITMAP
C0
C0
C0
80
80
ENDCHAR
STARTCHAR parenleft
ENCODING 40
SWIDTH 350 0
DWIDTH 7 0
BBX 4 17 2 -3
BITMAP
10
20
40
40
80
80
80
80
80
80
80
80
80
40
40
20
10
ENDCHAR
STARTCHAR parenright
ENCODING 41
SWIDTH 350 0
DWIDTH 7 0
BBX 4 17 1 -3
BITMAP
80
40
20
20
10
10
10
10
10
10
10
10
10
20
20
40
80
ENDCHAR
STARTCHAR asterisk
ENCODING 42
SWIDTH 412 0
DWIDTH 8 0
BBX 6 7 1 7
BITMAP
30
94
DC
30
DC
94
30
ENDCHAR
STARTCHAR plus
ENCODING 43
SWIDTH 570 0
DWIDTH 11 0
BBX 9 10 1 0
BITMAP
0800
0800
0800
0800
0800
FF80
0800
0800
0800
0800
ENDCHAR
STARTCHAR comma
ENCODING 44
SWIDTH 265 0
DWIDTH 5 0
BBX 3 5 1 -3
BITMAP
40
60
60
40
80
ENDCHAR
STARTCHAR hyphen
ENCODING 45
SWIDTH 392 0
DWIDTH 8 0
BBX 5 1 1 4
BITMAP
F8
ENDCHAR
STARTCHAR period
ENCODING 46
SWIDTH 265 0
DWIDTH 5 0
BBX 2 2 2 0
BITMAP
C0
C0
ENDCHAR
STARTCHAR slash
ENCODING 47
SWIDTH 460 0
DWIDTH 9 0
BBX 5 14 2 0
BITMAP
08
18
10
10
10
20
20
20
20
40
40
40
C0
80
ENDCHAR
STARTCHAR zero
ENCODING 48
SWIDTH 530 0
DWIDTH 10 0
BBX 9 13 1 0
BITMAP
1C00
6300
6300
C180
C180
C180
C180
C180
C180
C180
6300
6300
1C00
ENDCHAR
STARTCHAR one
ENCODING 49
SWIDTH 530 0
DWIDTH 10 0
BBX 6 13 2 0
BITMAP
30
F0
30
30
30
30
30
30
30
30
30
30
FC
ENDCHAR
STARTCHAR two
ENCODING 50
SWIDTH 530 0
DWIDTH 10 0
BBX 8 13 1 0
BITMAP
3C
66
C3
43
03
03
06
0C
18
20
40
C1
FF
ENDCHAR
STARTCHAR three
ENCODING 51
SWIDTH 530 0
DWIDTH 10 0
BBX 9 13 0 0
BITMAP
1E00
6300
4180
0180
0300
3C00
0300
0180
0180
0180
C180
6300
3E00
ENDCHAR
STARTCHAR four
ENCODING 52
SWIDTH 530 0
DWIDTH 10 0
BBX 9 13 1 0
BITMAP
0600
0600
0E00
1600
1600
2600
2600
4600
8600
FF80
0600
0600
1F00
ENDCHAR
STARTCHAR five
ENCODING 53
SWIDTH 530 0
DWIDTH 10 0
BBX 8 13 1 0
BITMAP
7E
40
40
40
40
7C
46
03
03
03
C3
46
3C
ENDCHAR
STARTCHAR six
ENCODING 54
SWIDTH 530 0
DWIDTH 10 0
BBX 9 13 1 0
BITMAP
1C00
3200
6300
4000
C000
DE00
E300
C180
C180
C180
4180
6300
1E00
ENDCHAR
STARTCHAR seven
ENCODING 55
SWIDTH 530 0
DWIDTH 10 0
BBX 8 13 1 0
BITMAP
FF
81
03
02
04
08
08
18
10
10
30
30
30
ENDCHAR
STARTCHAR eight
ENCODING 56
SWIDTH 530 0
DWIDTH 10 0
BBX 9 13 1 0
BITMAP
3C00
6600
C300
C300
C300
6600
3C00
6300
4180
C180
C180
6300
3E00
ENDCHAR
STARTCHAR nine
ENCODING 57
SWIDTH 530 0
DWIDTH 10 0
BBX 8 13 1 0
BITMAP
38
66
C2
C3
C3
C3
67
3B
03
02
86
C4
78
ENDCHAR
STARTCHAR colon
ENCODING 58
SWIDTH 265 0
DWIDTH 5 0
BBX 2 10 2 0
BITMAP
C0
C0
80
00
00
00
00
40
C0
C0
ENDCHAR
STARTCHAR semicolon
ENCODING 59
SWIDTH 265 0
DWIDTH 5 0
BBX 3 12 1 -2
BITMAP
60
E0
00
00
00
00
40
60
60
40
40
80
ENDCHAR
STARTCHAR less
ENCODING 60
SWIDTH 570 0
DWIDTH 11 0
BBX 9 10 1 0
BITMAP
0080
0380
0F00
3800
E000
8000
7000
1C00
0700
0180
ENDCHAR
STARTCHAR equal
ENCODING 61
SWIDTH 570 0
DWIDTH 11 0
BBX 9 5 1 2
BITMAP
FF80
0000
0000
0000
FF80
ENDCHAR
STARTCHAR greater
ENCODING 62
SWIDTH 570 0
DWIDTH 11 0
BBX 9 10 1 0
BITMAP
8000
E000
7800
0E00
0380
0080
0700
1C00
7000
C000
ENDCHAR
STARTCHAR question
ENCODING 63
SWIDTH 389 0
DWIDTH 8 0
BBX 7 14 0 0
BITMAP
38
46
C6
06
0C
08
10
30
30
1C
00
00
18
18
ENDCHAR
STARTCHAR at
ENCODING 64
SWIDTH 793 0
DWIDTH 15 0
BBX 14 14 1 0
BITMAP
07C0
1C30
3008
21E8
6644
4C44
CCC4
C884
D988
DA90
4CE0
6000
3000
0FC0
ENDCHAR
STARTCHAR A
ENCODING 65
SWIDTH 635 0
DWIDTH 12 0
BBX 13 14 0 0
BITMAP
0200
0700
0700
0500
0980
0980
0980
10C0
1FC0
10C0
2060
2060
6070
F0F8
ENDCHAR
STARTCHAR B
ENCODING 66
SWIDTH 646 0
DWIDTH 13 0
BBX 12 14 0 0
BITMAP
FF80
30C0
3060
3060
3060
30C0
3F80
30E0
3030
3030
3030
3030
3060
FF80
ENDCHAR
STARTCHAR C
ENCODING 67
SWIDTH 684 0
DWIDTH 13 0
BBX 12 14 1 0
BITMAP
07C0
1870
6010
6010
C000
C000
C000
C000
C000
C000
6010
7010
3870
0FC0
ENDCHAR
STARTCHAR D
ENCODING 68
SWIDTH 779 0
DWIDTH 15 0
BBX 14 14 0 0
BITMAP
FFC0
3070
3018
3018
300C
300C
300C
300C
300C
3008
3018
3010
3070
FFC0
ENDCHAR
STARTCHAR E
ENCODING 69
SWIDTH 606 0
DWIDTH 12 0
BBX 12 14 0 0
BITMAP
FFE0
3060
3020
3000
3000
3040
3040
3FC0
3040
3000
3000
3010
3020
FFE0
ENDCHAR
STARTCHAR F
ENCODING 70
SWIDTH 580 0
DWIDTH 11 0
BBX 11 14 0 0
BITMAP
FFE0
3060
3020
3000
3000
3040
3040
3FC0
3040
3000
3000
3000
3000
FC00
ENDCHAR
STARTCHAR G
ENCODING 71
SWIDTH 734 0
DWIDTH 14 0
BBX 13 14 1 0
BITMAP
07C0
3870
7030
6010
C000
C000
C000
C000
C0F8
C030
6030
6030
3830
0FC0
ENDCHAR
STARTCHAR H
ENCODING 72
SWIDTH 798 0
DWIDTH 16 0
BBX 15 14 0 0
BITMAP
FC7E
3018
3018
3018
3018
3018
3018
3FF8
3018
3018
3018
3018
3018
FC7E
ENDCHAR
STARTCHAR I
ENCODING 73
SWIDTH 349 0
DWIDTH 7 0
BBX 6 14 0 0
BITMAP
FC
30
30
30
30
30
30
30
30
30
30
30
30
FC
ENDCHAR
STARTCHAR J
ENCODING 74
SWIDTH 350 0
DWIDTH 7 0
BBX 7 16 0 -2
BITMAP
7E
18
18
18
18
18
18
18
18
18
18
18
18
18
30
E0
ENDCHAR
STARTCHAR K
ENCODING 75
SWIDTH 658 0
DWIDTH 13 0
BBX 13 14 0 0
BITMAP
FCF8
3060
3080
3100
3200
3400
3C00
3600
3700
3380
31C0
30C0
3070
FC18
ENDCHAR
STARTCHAR L
ENCODING 76
SWIDTH 568 0
DWIDTH 11 0
BBX 11 14 0 0
BITMAP
FC00
3000
3000
3000
3000
3000
3000
3000
3000
3000
3020
3020
3040
FFC0
ENDCHAR
STARTCHAR M
ENCODING 77
SWIDTH 944 0
DWIDTH 18 0
BBX 18 14 0 0
BITMAP
F003C0
380700
380700
2C0B00
2C0B00
261300
261300
271300
232300
23A300
21C300
21C300
208300
F88FC0
ENDCHAR
STARTCHAR N
ENCODING 78
SWIDTH 780 0
DWIDTH 15 0
BBX 15 14 0 0
BITMAP
F03E
3808
3C08
2E08
2608
2708
2388
21C8
20C8
20E8
2078
2038
2018
F818
ENDCHAR
STARTCHAR O
ENCODING 79
SWIDTH 762 0
DWIDTH 15 0
BBX 13 14 1 0
BITMAP
0F80
3060
6030
6030
C018
C018
C018
C018
C018
C018
6030
6030
3060
0F80
ENDCHAR
STARTCHAR P
ENCODING 80
SWIDTH 600 0
DWIDTH 12 0
BBX 11 14 0 0
BITMAP
FF00
30C0
3060
3060
3060
3060
3040
30C0
3F00
3000
3000
3000
3000
FC00
ENDCHAR
STARTCHAR Q
ENCODING 81
SWIDTH 762 0
DWIDTH 15 0
BBX 13 18 1 -4
BITMAP
0F80
3060
6030
6030
C018
C018
C018
C018
C018
C018
6030
6030
3060
0F80
0380
0180
00E0
0070
ENDCHAR
STARTCHAR R
ENCODING 82
SWIDTH 644 0
DWIDTH 13 0
BBX 12 14 0 0
BITMAP
FF80
30C0
3060
3060
3060
3040
30C0
3F00
30C0
30C0
30C0
3060
3060
FC30
ENDCHAR
STARTCHAR S
ENCODING 83
SWIDTH 541 0
DWIDTH 11 0
BBX 9 14 1 0
BITMAP
3E00
6300
C100
C100
E000
F000
7C00
1F00
0380
8180
8180
C180
E300
3C00
ENDCHAR
STARTCHAR T
ENCODING 84
SWIDTH 621 0
DWIDTH 12 0
BBX 12 14 0 0
BITMAP
FFF0
C630
8610
0600
0600
0600
0600
0600
0600
0600
0600
0600
0600
1F80
ENDCHAR
STARTCHAR U
ENCODING 85
SWIDTH 791 0
DWIDTH 15 0
BBX 15 14 0 0
BITMAP
FC7E
3018
3018
3018
3018
3018
3018
3018
3018
3018
3018
1830
1C70
07C0
ENDCHAR
STARTCHAR V
ENCODING 86
SWIDTH 634 0
DWIDTH 12 0
BBX 14 14 -1 0
BITMAP
F87C
3010
3010
3020
1820
1820
0C40
0C40
0C40
0680
0680
0700
0300
0300
ENDCHAR
STARTCHAR W
ENCODING 87
SWIDTH 940 0
DWIDTH 18 0
BBX 19 14 0 0
BITMAP
F001E0
6040C0
606080
20E080
30E080
313100
313100
193100
191A00
1A1A00
1A1A00
0E0E00
0C0C00
0C0C00
ENDCHAR
STARTCHAR X
ENCODING 88
SWIDTH 624 0
DWIDTH 12 0
BBX 13 14 0 0
BITMAP
F8F0
3060
38C0
1880
0D00
0F00
0600
0700
0B80
0980
10C0
30E0
6060
F8F8
ENDCHAR
STARTCHAR Y
ENCODING 89
SWIDTH 588 0
DWIDTH 11 0
BBX 12 14 0 0
BITMAP
F8F0
3040
3040
1880
1880
0D00
0D00
0600
0600
0600
0600
0600
0600
1F80
ENDCHAR
STARTCHAR Z
ENCODING 90
SWIDTH 610 0
DWIDTH 12 0
BBX 12 14 0 0
BITMAP
7FE0
60E0
40C0
41C0
0380
0300
0600
0E00
1C00
1800
3810
7020
6020
FFE0
ENDCHAR
STARTCHAR bracketleft
ENCODING 91
SWIDTH 330 0
DWIDTH 6 0
BBX 3 17 3 -3
BITMAP
E0
80
80
80
80
80
80
80
80
80
80
80
80
80
80
80
E0
ENDCHAR
STARTCHAR backslash
ENCODING 92
SWIDTH 460 0
DWIDTH 9 0
BBX 5 14 2 0
BITMAP
80
C0
40
40
40
20
20
20
20
10
10
10
18
08
ENDCHAR
STARTCHAR bracketright
ENCODING 93
SWIDTH 330 0
DWIDTH 6 0
BBX 3 17 1 -3
BITMAP
E0
20
20
20
20
20
20
20
20
20
20
20
20
20
20
20
E0
ENDCHAR
STARTCHAR asciicircum
ENCODING 94
SWIDTH 570 0
DWIDTH 11 0
BBX 9 8 1 5
BITMAP
0800
1400
1400
2200
2200
6300
4100
C180
ENDCHAR
STARTCHAR underscore
ENCODING 95
SWIDTH 500 0
DWIDTH 10 0
BBX 10 1 0 -2
BITMAP
FFC0
ENDCHAR
STARTCHAR grave
ENCODING 96
SWIDTH 400 0
DWIDTH 8 0
BBX 4 4 1 10
BITMAP
80
C0
20
10
ENDCHAR
STARTCHAR a
ENCODING 97
SWIDTH 523 0
DWIDTH 10 0
BBX 10 10 1 0
BITMAP
3E00
6200
C300
0300
1F00
6300
C300
C300
4700
7BC0
ENDCHAR
STARTCHAR b
ENCODING 98
SWIDTH 598 0
DWIDTH 12 0
BBX 10 14 1 0
BITMAP
6000
E000
6000
6000
6F00
7180
60C0
60C0
60C0
60C0
60C0
6080
7180
5E00
ENDCHAR
STARTCHAR c
ENCODING 99
SWIDTH 496 0
DWIDTH 10 0
BBX 8 10 1 0
BITMAP
1C
63
43
C0
C0
C0
C0
C1
63
3C
ENDCHAR
STARTCHAR d
ENCODING 100
SWIDTH 598 0
DWIDTH 12 0
BBX 10 14 1 0
BITMAP
0180
0380
0180
0180
1D80
6380
4180
C180
C180
C180
C180
E180
6380
3DC0
ENDCHAR
STARTCHAR e
ENCODING 101
SWIDTH 514 0
DWIDTH 10 0
BBX 8 10 1 0
BITMAP
3C
66
43
C3
FF
C0
C0
C1
62
3C
ENDCHAR
STARTCHAR f
ENCODING 102
SWIDTH 319 0
DWIDTH 6 0
BBX 7 14 1 0
BITMAP
1C
26
60
60
F8
60
60
60
60
60
60
60
60
F8
ENDCHAR
STARTCHAR g
ENCODING 103
SWIDTH 520 0
DWIDTH 10 0
BBX 9 14 1 -4
BITMAP
3D80
6780
C300
C300
C300
6600
3C00
4000
C000
7F00
4180
C180
E300
3C00
ENDCHAR
STARTCHAR h
ENCODING 104
SWIDTH 607 0
DWIDTH 12 0
BBX 10 14 1 0
BITMAP
6000
E000
6000
6000
6F00
7180
6180
6180
6180
6180
6180
6180
6180
F3C0
ENDCHAR
STARTCHAR i
ENCODING 105
SWIDTH 291 0
DWIDTH 6 0
BBX 4 14 1 0
BITMAP
40
E0
00
00
60
E0
60
60
60
60
60
60
60
F0
ENDCHAR
STARTCHAR j
ENCODING 106
SWIDTH 280 0
DWIDTH 5 0
BBX 5 19 -1 -4
BITMAP
18
18
10
00
00
18
38
18
18
18
18
18
18
18
18
18
10
30
C0
ENDCHAR
STARTCHAR k
ENCODING 107
SWIDTH 524 0
DWIDTH 10 0
BBX 10 14 1 0
BITMAP
6000
E000
6000
6000
6380
6600
6C00
7800
7800
7C00
6C00
6600
6380
F1C0
ENDCHAR
STARTCHAR l
ENCODING 108
SWIDTH 279 0
DWIDTH 5 0
BBX 4 14 1 0
BITMAP
60
E0
60
60
60
60
60
60
60
60
60
60
60
F0
ENDCHAR
STARTCHAR m
ENCODING 109
SWIDTH 923 0
DWIDTH 18 0
BBX 16 10 1 0
BITMAP
6F3C
F1C6
6186
6186
6186
6186
6186
6186
6186
F3CF
ENDCHAR
STARTCHAR n
ENCODING 110
SWIDTH 619 0
DWIDTH 12 0
BBX 10 10 1 0
BITMAP
6F00
F180
6180
6180
6180
6180
6180
6180
6180
F3C0
ENDCHAR
STARTCHAR o
ENCODING 111
SWIDTH 577 0
DWIDTH 11 0
BBX 9 10 1 0
BITMAP
3E00
6300
4100
C180
C180
C180
C180
4100
6300
3E00
ENDCHAR
STARTCHAR p
ENCODING 112
SWIDTH 608 0
DWIDTH 12 0
BBX 10 14 1 -4
BITMAP
6F00
F180
60C0
60C0
60C0
60C0
60C0
6080
7180
6E00
6000
6000
6000
F800
ENDCHAR
STARTCHAR q
ENCODING 113
SWIDTH 591 0
DWIDTH 11 0
BBX 10 14 1 -4
BITMAP
1C80
6380
6180
C180
C180
C180
C180
E180
6380
3D80
0180
0180
0180
03C0
ENDCHAR
STARTCHAR r
ENCODING 114
SWIDTH 389 0
DWIDTH 8 0
BBX 7 10 1 0
BITMAP
6E
FC
60
60
60
60
60
60
60
F8
ENDCHAR
STARTCHAR s
ENCODING 115
SWIDTH 436 0
DWIDTH 8 0
BBX 7 10 1 0
BITMAP
38
4C
C4
E0
78
1C
86
86
C4
78
ENDCHAR
STARTCHAR t
ENCODING 116
SWIDTH 344 0
DWIDTH 7 0
BBX 6 12 1 0
BITMAP
20
60
F8
60
60
60
60
60
60
60
60
3C
ENDCHAR
STARTCHAR u
ENCODING 117
SWIDTH 606 0
DWIDTH 12 0
BBX 10 10 1 0
BITMAP
6180
E380
6180
6180
6180
6180
6180
6180
6380
3DC0
ENDCHAR
STARTCHAR v
ENCODING 118
SWIDTH 504 0
DWIDTH 10 0
BBX 10 10 0 0
BITMAP
F3C0
6080
2100
3100
3100
1200
1A00
1A00
0C00
0C00
ENDCHAR
STARTCHAR w
ENCODING 119
SWIDTH 768 0
DWIDTH 15 0
BBX 15 10 0 0
BITMAP
F01E
618C
2188
3288
32C8
32D0
1450
1C50
1C70
0830
ENDCHAR
STARTCHAR x
ENCODING 120
SWIDTH 486 0
DWIDTH 9 0
BBX 10 10 0 0
BITMAP
F3C0
6100
3200
1C00
1C00
0C00
1600
2300
2300
F7C0
ENDCHAR
STARTCHAR y
ENCODING 121
SWIDTH 506 0
DWIDTH 10 0
BBX 10 14 0 -4
BITMAP
F3C0
6180
2100
3100
3200
1200
1A00
0C00
0C00
0C00
0800
0800
4800
7000
ENDCHAR
STARTCHAR z
ENCODING 122
SWIDTH 480 0
DWIDTH 9 0
BBX 9 10 0 0
BITMAP
7F80
6380
4700
0600
0C00
1C00
1800
3080
6080
FF80
ENDCHAR
STARTCHAR braceleft
ENCODING 123
SWIDTH 340 0
DWIDTH 7 0
BBX 4 17 1 -3
BITMAP
10
20
20
20
20
20
20
20
C0
20
20
20
20
20
20
20
10
ENDCHAR
STARTCHAR bar
ENCODING 124
SWIDTH 228 0
DWIDTH 4 0
BBX 1 14 2 0
BITMAP
80
80
80
80
80
80
80
80
80
80
80
80
80
80
ENDCHAR
STARTCHAR braceright
ENCODING 125
SWIDTH 340 0
DWIDTH 7 0
BBX 3 17 2 -3
BITMAP
80
40
40
40
40
40
40
40
20
40
40
40
40
40
40
40
80
ENDCHAR
STARTCHAR asciitilde
ENCODING 126
SWIDTH 570 0
DWIDTH 11 0
BBX 8 3 2 3
BITMAP
21
7E
84
ENDCHAR
STARTCHAR space
ENCODING 160
SWIDTH 225 0
DWIDTH 4 0
BBX 0 0 0 0
BITMAP
ENDCHAR
STARTCHAR exclamdown
ENCODING 161
SWIDTH 242 0
DWIDTH 5 0
BBX 2 14 1 -4
BITMAP
C0
C0
80
00
40
40
40
40
C0
C0
C0
C0
C0
C0
ENDCHAR
STARTCHAR cent
ENCODING 162
SWIDTH 530 0
DWIDTH 10 0
BBX 9 13 1 0
BITMAP
0800
3E00
6B00
4900
C800
C800
C800
C800
C880
6900
3E00
0800
0800
ENDCHAR
STARTCHAR sterling
ENCODING 163
SWIDTH 530 0
DWIDTH 10 0
BBX 9 13 1 0
BITMAP
1E00
2300
6100
6000
7000
3000
FE00
1800
1800
1000
1000
2080
FF00
ENDCHAR
STARTCHAR currency
ENCODING 164
SWIDTH 530 0
DWIDTH 10 0
BBX 8 9 1 2
BITMAP
BD
42
83
81
81
81
83
42
BD
ENDCHAR
STARTCHAR yen
ENCODING 165
SWIDTH 530 0
DWIDTH 10 0
BBX 10 13 0 0
BITMAP
F3C0
6080
3100
3100
1A00
1A00
7F80
0C00
7F80
0C00
0C00
0C00
3F00
ENDCHAR
STARTCHAR brokenbar
ENCODING 166
SWIDTH 228 0
DWIDTH 4 0
BBX 1 14 2 0
BITMAP
80
80
80
80
80
00
00
80
80
80
80
80
80
80
ENDCHAR
STARTCHAR section
ENCODING 167
SWIDTH 554 0
DWIDTH 11 0
BBX 9 16 1 -2
BITMAP
1E00
2300
2000
2000
5800
8C00
8700
C100
6180
3880
1C80
0700
0200
4200
6200
3C00
ENDCHAR
STARTCHAR dieresis
ENCODING 168
SWIDTH 400 0
DWIDTH 8 0
BBX 6 2 1 11
BITMAP
CC
CC
ENDCHAR
STARTCHAR copyright
ENCODING 169
SWIDTH 818 0
DWIDTH 16 0
BBX 14 14 1 0
BITMAP
0F80
1060
2010
4788
4C48
9844
9804
9804
9844
8C48
4788
2010
1060
0F80
ENDCHAR
STARTCHAR ordfeminine
ENCODING 170
SWIDTH 390 0
DWIDTH 8 0
BBX 6 7 1 5
BITMAP
70
88
08
38
C8
C8
7C
ENDCHAR
STARTCHAR guillemotleft
ENCODING 171
SWIDTH 442 0
DWIDTH 9 0
BBX 7 8 1 1
BITMAP
12
24
44
CC
CC
44
24
12
ENDCHAR
STARTCHAR logicalnot
ENCODING 172
SWIDTH 570 0
DWIDTH 11 0
BBX 9 5 1 2
BITMAP
FF80
0080
0080
0080
0080
ENDCHAR
STARTCHAR hyphen
ENCODING 173
SWIDTH 392 0
DWIDTH 8 0
BBX 5 1 1 4
BITMAP
F8
ENDCHAR
STARTCHAR registered
ENCODING 174
SWIDTH 818 0
DWIDTH 16 0
BBX 14 14 1 0
BITMAP
07C0
1820
2010
4F88
4448
8444
84C4
8704
84C4
8444
4E68
2010
1820
07C0
ENDCHAR
STARTCHAR macron
ENCODING 175
SWIDTH 400 0
DWIDTH 8 0
BBX 6 1 1 12
BITMAP
FC
ENDCHAR
STARTCHAR degree
ENCODING 176
SWIDTH 350 0
DWIDTH 7 0
BBX 5 5 1 8
BITMAP
70
88
88
88
70
ENDCHAR
STARTCHAR plusminus
ENCODING 177
SWIDTH 570 0
DWIDTH 11 0
BBX 9 11 1 0
BITMAP
0800
0800
0800
0800
FF80
0800
0800
0800
0800
0000
FF80
ENDCHAR
STARTCHAR twosuperior
ENCODING 178
SWIDTH 380 0
DWIDTH 7 0
BBX 6 8 1 5
BITMAP
70
CC
8C
08
10
60
84
FC
ENDCHAR
STARTCHAR threesuperior
ENCODING 179
SWIDTH 380 0
DWIDTH 7 0
BBX 6 8 1 5
BITMAP
70
98
18
70
08
8C
8C
70
ENDCHAR
STARTCHAR acute
ENCODING 180
SWIDTH 400 0
DWIDTH 8 0
BBX 4 4 3 10
BITMAP
10
30
40
80
ENDCHAR
STARTCHAR mu
ENCODING 181
SWIDTH 606 0
DWIDTH 12 0
BBX 10 14 1 -4
BITMAP
6180
E380
6180
6180
6180
6180
6180
6180
6380
5DC0
4000
6000
6000
6000
ENDCHAR
STARTCHAR paragraph
ENCODING 182
SWIDTH 555 0
DWIDTH 11 0
BBX 9 16 1 -2
BITMAP
3380
7200
7200
F200
F200
F200
F200
7200
3200
0200
0200
0200
0200
0200
0200
1E00
ENDCHAR
STARTCHAR periodcentered
ENCODING 183
SWIDTH 265 0
DWIDTH 5 0
BBX 2 2 2 4
BITMAP
C0
C0
ENDCHAR
STARTCHAR cedilla
ENCODING 184
SWIDTH 400 0
DWIDTH 8 0
BBX 4 4 3 -4
BITMAP
60
60
30
E0
ENDCHAR
STARTCHAR onesuperior
ENCODING 185
SWIDTH 380 0
DWIDTH 7 0
BBX 3 8 2 5
BITMAP
C0
40
40
40
40
40
40
E0
ENDCHAR
STARTCHAR ordmasculine
ENCODING 186
SWIDTH 398 0
DWIDTH 8 0
BBX 7 7 0 5
BITMAP
38
44
C6
C6
C6
44
38
ENDCHAR
STARTCHAR guillemotright
ENCODING 187
SWIDTH 442 0
DWIDTH 9 0
BBX 7 8 1 1
BITMAP
90
48
44
66
66
44
48
90
ENDCHAR
STARTCHAR onequarter
ENCODING 188
SWIDTH 860 0
DWIDTH 17 0
BBX 13 14 2 0
BITMAP
0020
C060
4040
40C0
4180
4100
4310
4230
E450
0C50
0890
11F8
1010
2038
ENDCHAR
STARTCHAR onehalf
ENCODING 189
SWIDTH 860 0
DWIDTH 17 0
BBX 14 14 2 0
BITMAP
0040
C060
40C0
4080
4180
4300
4270
468C
E48C
0808
0810
1060
2084
20FC
ENDCHAR
STARTCHAR threequarters
ENCODING 190
SWIDTH 860 0
DWIDTH 17 0
BBX 14 14 1 0
BITMAP
0010
7810
8C30
0820
3060
08C0
8C88
C998
7128
0228
0648
047C
0808
181C
ENDCHAR
STARTCHAR questiondown
ENCODING 191
SWIDTH 389 0
DWIDTH 8 0
BBX 6 14 1 -4
BITMAP
30
30
00
00
70
18
18
10
20
40
C0
CC
C8
30
ENDCHAR
STARTCHAR Agrave
ENCODING 192
SWIDTH 635 0
DWIDTH 12 0
BBX 14 18 -1 0
BITMAP
0800
0E00
0F80
0180
0300
0300
0580
0580
0580
08C0
08C0
08E0
1FE0
1060
3070
2030
2038
F07C
ENDCHAR
STARTCHAR Aacute
ENCODING 193
SWIDTH 635 0
DWIDTH 12 0
BBX 14 17 -1 0
BITMAP
0080
01C0
0600
0300
0300
0580
0580
0580
08C0
08C0
08E0
1FE0
1060
3070
2030
2038
F07C
ENDCHAR
STARTCHAR Acircumflex
ENCODING 194
SWIDTH 635 0
DWIDTH 12 0
BBX 13 17 0 0
BITMAP
0200
0700
08C0
0200
0700
0700
0500
0980
0980
0980
10C0
1FC0
10C0
2060
2060
6070
F0F8
ENDCHAR
STARTCHAR Atilde
ENCODING 195
SWIDTH 635 0
DWIDTH 12 0
BBX 13 16 0 0
BITMAP
0C40
1380
0200
0700
0700
0500
0980
0980
0980
10C0
1FC0
10C0
2060
2060
6070
F0F8
ENDCHAR
STARTCHAR Adieresis
ENCODING 196
SWIDTH 635 0
DWIDTH 12 0
BBX 13 16 -1 0
BITMAP
0CC0
0CC0
0300
0300
0700
0580
0580
0980
08C0
08C0
1FC0
1060
1060
2020
2030
F8F8
ENDCHAR
STARTCHAR Aring
ENCODING 197
SWIDTH 627 0
DWIDTH 12 0
BBX 13 17 -1 0
BITMAP
0300
0480
0480
0300
0300
0700
0580
0580
0880
08C0
08C0
1FC0
1060
1060
2020
2030
F878
ENDCHAR
STARTCHAR AE
ENCODING 198
SWIDTH 876 0
DWIDTH 17 0
BBX 18 14 -1 0
BITMAP
03FF80
00E180
016080
016000
026000
066100
046100
0FFF00
086100
186000
106000
306040
606080
F9FF80
ENDCHAR
STARTCHAR Ccedilla
ENCODING 199
SWIDTH 680 0
DWIDTH 13 0
BBX 12 18 1 -4
BITMAP
07C0
1830
7010
6010
C000
C000
C000
C000
C000
C000
6010
7030
3870
0FC0
0200
0300
0180
0700
ENDCHAR
STARTCHAR Egrave
ENCODING 200
SWIDTH 606 0
DWIDTH 12 0
BBX 12 18 0 0
BITMAP
1000
1C00
1E00
0300
FFE0
3060
3020
3000
3000
3040
3040
3FC0
3040
3000
3000
3010
3020
FFE0
ENDCHAR
STARTCHAR Eacute
ENCODING 201
SWIDTH 606 0
DWIDTH 12 0
BBX 12 17 0 0
BITMAP
0100
0380
0C00
FFE0
3060
3020
3000
3000
3040
3040
3FC0
3040
3000
3000
3010
3020
FFE0
ENDCHAR
STARTCHAR Ecircumflex
ENCODING 202
SWIDTH 606 0
DWIDTH 12 0
BBX 12 17 0 0
BITMAP
0200
0F00
1080
FFE0
3060
3020
3000
3000
3040
3040
3FC0
3040
3000
3000
3010
3020
FFE0
ENDCHAR
STARTCHAR Edieresis
ENCODING 203
SWIDTH 606 0
DWIDTH 12 0
BBX 12 16 0 0
BITMAP
1980
1980
FFE0
3060
3020
3000
3000
3040
3040
3FC0
3040
3000
3000
3010
3020
FFE0
ENDCHAR
STARTCHAR Igrave
ENCODING 204
SWIDTH 349 0
DWIDTH 7 0
BBX 6 18 0 0
BITMAP
80
E0
F0
18
FC
30
30
30
30
30
30
30
30
30
30
30
30
FC
ENDCHAR
STARTCHAR Iacute
ENCODING 205
SWIDTH 349 0
DWIDTH 7 0
BBX 6 17 0 0
BITMAP
04
1C
60
FC
30
30
30
30
30
30
30
30
30
30
30
30
FC
ENDCHAR
STARTCHAR Icircumflex
ENCODING 206
SWIDTH 349 0
DWIDTH 7 0
BBX 6 17 0 0
BITMAP
10
78
84
FC
30
30
30
30
30
30
30
30
30
30
30
30
FC
ENDCHAR
STARTCHAR Idieresis
ENCODING 207
SWIDTH 349 0
DWIDTH 7 0
BBX 6 16 0 0
BITMAP
CC
CC
FC
30
30
30
30
30
30
30
30
30
30
30
30
FC
ENDCHAR
STARTCHAR Eth
ENCODING 208
SWIDTH 785 0
DWIDTH 15 0
BBX 13 14 1 0
BITMAP
FF80
30E0
3030
3030
3018
3018
3018
FC18
3018
3010
3010
3020
3060
FF80
ENDCHAR
STARTCHAR Ntilde
ENCODING 209
SWIDTH 780 0
DWIDTH 15 0
BBX 15 16 0 0
BITMAP
0720
08C0
F03E
3808
3C08
2E08
2608
2708
2388
21C8
20C8
20E8
2078
2038
2018
F818
ENDCHAR
STARTCHAR Ograve
ENCODING 210
SWIDTH 762 0
DWIDTH 15 0
BBX 13 17 1 0
BITMAP
0C00
0E00
0300
0F80
3060
6030
6030
C018
C018
C018
C018
C018
C018
6030
6030
3060
0F80
ENDCHAR
STARTCHAR Oacute
ENCODING 211
SWIDTH 762 0
DWIDTH 15 0
BBX 13 17 1 0
BITMAP
0080
0380
0C00
0F80
3060
6030
6030
C018
C018
C018
C018
C018
C018
6030
6030
3060
0F80
ENDCHAR
STARTCHAR Ocircumflex
ENCODING 212
SWIDTH 762 0
DWIDTH 15 0
BBX 13 17 1 0
BITMAP
0200
0700
18C0
0F80
3060
6030
6030
C018
C018
C018
C018
C018
C018
6030
6030
3060
0F80
ENDCHAR
STARTCHAR Otilde
ENCODING 213
SWIDTH 762 0
DWIDTH 15 0
BBX 13 16 1 0
BITMAP
0E40
1180
0F80
3060
6030
6030
C018
C018
C018
C018
C018
C018
6030
6030
3060
0F80
ENDCHAR
STARTCHAR Odieresis
ENCODING 214
SWIDTH 762 0
DWIDTH 15 0
BBX 13 16 1 0
BITMAP
1980
1980
0F80
3060
6030
6030
C018
C018
C018
C018
C018
C018
6030
6030
3060
0F80
ENDCHAR
STARTCHAR multiply
ENCODING 215
SWIDTH 570 0
DWIDTH 11 0
BBX 9 9 1 0
BITMAP
8080
4100
2200
1400
0800
1400
2200
4100
8080
ENDCHAR
STARTCHAR Oslash
ENCODING 216
SWIDTH 762 0
DWIDTH 15 0
BBX 13 16 1 -1
BITMAP
0010
0FA0
3060
6070
60B0
C098
C118
C218
C218
C418
C818
6830
7030
3060
2F80
4000
ENDCHAR
STARTCHAR Ugrave
ENCODING 217
SWIDTH 791 0
DWIDTH 15 0
BBX 15 18 0 0
BITMAP
0800
0E00
0F00
0180
FC7E
3018
3018
3018
3018
3018
3018
3018
3018
3018
3018
1830
1C70
07C0
ENDCHAR
STARTCHAR Uacute
ENCODING 218
SWIDTH 791 0
DWIDTH 15 0
BBX 15 17 0 0
BITMAP
0040
01C0
0300
FC7E
3018
3018
3018
3018
3018
3018
3018
3018
3018
3018
1830
1C70
07C0
ENDCHAR
STARTCHAR Ucircumflex
ENCODING 219
SWIDTH 791 0
DWIDTH 15 0
BBX 15 17 0 0
BITMAP
0100
0380
0C60
FC7E
3018
3018
3018
3018
3018
3018
3018
3018
3018
3018
1830
1C70
07C0
ENDCHAR
STARTCHAR Udieresis
ENCODING 220
SWIDTH 791 0
DWIDTH 15 0
BBX 15 16 0 0
BITMAP
0660
0660
FC3E
3018
3018
3018
3018
3018
3018
3018
3018
3018
3018
1830
1C70
07C0
ENDCHAR
STARTCHAR Yacute
ENCODING 221
SWIDTH 588 0
DWIDTH 11 0
BBX 12 17 0 0
BITMAP
0080
01C0
0600
F8F0
3040
3040
1880
1880
0D00
0D00
0600
0600
0600
0600
0600
0600
1F80
ENDCHAR
STARTCHAR Thorn
ENCODING 222
SWIDTH 593 0
DWIDTH 12 0
BBX 11 14 0 0
BITMAP
FC00
3000
3000
3F80
30C0
3060
3060
3060
3060
30C0
3F00
3000
3000
FC00
ENDCHAR
STARTCHAR germandbls
ENCODING 223
SWIDTH 601 0
DWIDTH 12 0
BBX 10 14 1 0
BITMAP
1E00
3300
2180
6180
6200
6400
6C00
6E00
6700
6380
60C0
60C0
6C80
F700
ENDCHAR
STARTCHAR agrave
ENCODING 224
SWIDTH 523 0
DWIDTH 10 0
BBX 10 14 1 0
BITMAP
6000
3000
0C00
0000
3E00
6200
C300
0300
1F00
6300
C300
C300
4700
7BC0
ENDCHAR
STARTCHAR aacute
ENCODING 225
SWIDTH 523 0
DWIDTH 10 0
BBX 10 14 1 0
BITMAP
0300
0600
1800
0000
3E00
6200
C300
0300
1F00
6300
C300
C300
4700
7BC0
ENDCHAR
STARTCHAR acircumflex
ENCODING 226
SWIDTH 523 0
DWIDTH 10 0
BBX 10 14 1 0
BITMAP
0800
1C00
2200
4100
3E00
6200
C300
0300
1F00
6300
C300
C300
C700
7BC0
ENDCHAR
STARTCHAR atilde
ENCODING 227
SWIDTH 523 0
DWIDTH 10 0
BBX 10 13 1 0
BITMAP
3900
4600
0000
3E00
6200
C300
0300
1F00
6300
C300
C300
C700
7BC0
ENDCHAR
STARTCHAR adieresis
ENCODING 228
SWIDTH 523 0
DWIDTH 10 0
BBX 10 13 1 0
BITMAP
6600
6600
0000
3E00
6200
C300
0300
1F00
6300
C300
C300
4700
7BC0
ENDCHAR
STARTCHAR aring
ENCODING 229
SWIDTH 523 0
DWIDTH 10 0
BBX 10 15 1 0
BITMAP
1800
2400
2400
1800
0000
3E00
6200
C300
0300
1F00
6300
C300
C300
4700
7BC0
ENDCHAR
STARTCHAR ae
ENCODING 230
SWIDTH 797 0
DWIDTH 15 0
BBX 14 10 1 0
BITMAP
3C70
6398
C30C
030C
0FFC
7300
C300
C304
C788
78F0
ENDCHAR
STARTCHAR ccedilla
ENCODING 231
SWIDTH 496 0
DWIDTH 10 0
BBX 8 14 1 -4
BITMAP
3C
67
43
C0
C0
C0
C0
C1
62
3C
10
18
0C
18
ENDCHAR
STARTCHAR egrave
ENCODING 232
SWIDTH 514 0
DWIDTH 10 0
BBX 8 14 1 0
BITMAP
60
30
08
00
3C
66
43
C3
FF
C0
C0
C1
62
3C
ENDCHAR
STARTCHAR eacute
ENCODING 233
SWIDTH 514 0
DWIDTH 10 0
BBX 8 14 1 0
BITMAP
06
0C
10
00
3C
66
43
C3
FF
C0
C0
C1
62
3C
ENDCHAR
STARTCHAR ecircumflex
ENCODING 234
SWIDTH 514 0
DWIDTH 10 0
BBX 8 14 1 0
BITMAP
08
1C
26
40
3C
66
43
C3
FF
C0
C0
C1
62
3C
ENDCHAR
STARTCHAR edieresis
ENCODING 235
SWIDTH 514 0
DWIDTH 10 0
BBX 8 13 1 0
BITMAP
66
66
00
3C
66
43
C3
FF
C0
C0
C1
62
3C
ENDCHAR
STARTCHAR igrave
ENCODING 236
SWIDTH 291 0
DWIDTH 6 0
BBX 5 14 0 0
BITMAP
C0
60
10
00
30
70
30
30
30
30
30
30
30
78
ENDCHAR
STARTCHAR iacute
ENCODING 237
SWIDTH 291 0
DWIDTH 6 0
BBX 4 14 1 0
BITMAP
30
70
C0
00
60
E0
60
60
60
60
60
60
60
F0
ENDCHAR
STARTCHAR icircumflex
ENCODING 238
SWIDTH 291 0
DWIDTH 6 0
BBX 6 14 0 0
BITMAP
20
70
CC
00
30
70
30
30
30
30
30
30
30
78
ENDCHAR
STARTCHAR idieresis
ENCODING 239
SWIDTH 291 0
DWIDTH 6 0
BBX 6 13 0 0
BITMAP
CC
CC
00
30
70
30
30
30
30
30
30
30
78
ENDCHAR
STARTCHAR eth
ENCODING 240
SWIDTH 577 0
DWIDTH 11 0
BBX 9 14 1 0
BITMAP
6000
3600
3800
4600
3F00
6300
4180
C180
C180
C180
C180
4100
6300
3E00
ENDCHAR
STARTCHAR ntilde
ENCODING 241
SWIDTH 619 0
DWIDTH 12 0
BBX 10 13 1 0
BITMAP
3900
4600
0000
6F00
F180
6180
6180
6180
6180
6180
6180
6180
F3C0
ENDCHAR
STARTCHAR ograve
ENCODING 242
SWIDTH 577 0
DWIDTH 11 0
BBX 9 14 1 0
BITMAP
6000
3000
0C00
0000
3E00
6300
4100
C180
C180
C180
C180
4100
6300
3E00
ENDCHAR
STARTCHAR oacute
ENCODING 243
SWIDTH 577 0
DWIDTH 11 0
BBX 9 14 1 0
BITMAP
0600
0C00
1800
0000
3E00
6300
4100
C180
C180
C180
C180
4100
6300
3E00
ENDCHAR
STARTCHAR ocircumflex
ENCODING 244
SWIDTH 577 0
DWIDTH 11 0
BBX 9 14 1 0
BITMAP
0800
1C00
2200
0000
3E00
6300
4100
C180
C180
C180
C180
4100
6300
3E00
ENDCHAR
STARTCHAR otilde
ENCODING 245
SWIDTH 577 0
DWIDTH 11 0
BBX 9 13 1 0
BITMAP
3100
4E00
0000
3E00
6300
4100
C180
C180
C180
C180
4100
6300
3E00
ENDCHAR
STARTCHAR odieresis
ENCODING 246
SWIDTH 577 0
DWIDTH 11 0
BBX 9 13 1 0
BITMAP
3300
3300
0000
3E00
6300
4100
C180
C180
C180
C180
4100
6300
3E00
ENDCHAR
STARTCHAR divide
ENCODING 247
SWIDTH 570 0
DWIDTH 11 0
BBX 9 9 2 1
BITMAP
1800
1800
0000
0000
FF80
0000
0000
1800
1800
ENDCHAR
STARTCHAR oslash
ENCODING 248
SWIDTH 577 0
DWIDTH 11 0
BBX 9 12 1 -1
BITMAP
0100
3D00
6200
4500
C580
C980
C980
D180
6100
6300
5E00
4000
ENDCHAR
STARTCHAR ugrave
ENCODING 249
SWIDTH 606 0
DWIDTH 12 0
BBX 10 14 1 0
BITMAP
6000
3000
0C00
0000
6180
E380
6180
6180
6180
6180
6180
6180
6380
3DC0
ENDCHAR
STARTCHAR uacute
ENCODING 250
SWIDTH 606 0
DWIDTH 12 0
BBX 10 14 1 0
BITMAP
0300
0600
1800
0000
6180
E380
6180
6180
6180
6180
6180
6180
6380
3DC0
ENDCHAR
STARTCHAR ucircumflex
ENCODING 251
SWIDTH 606 0
DWIDTH 12 0
BBX 10 14 1 0
BITMAP
0800
1C00
3200
2100
6180
E380
6180
6180
6180
6180
6180
6180
6380
3DC0
ENDCHAR
STARTCHAR udieresis
ENCODING 252
SWIDTH 606 0
DWIDTH 12 0
BBX 10 13 1 0
BITMAP
3300
3300
0000
6180
E380
6180
6180
6180
6180
6180
6180
6380
3DC0
ENDCHAR
STARTCHAR yacute
ENCODING 253
SWIDTH 506 0
DWIDTH 10 0
BBX 10 18 0 -4
BITMAP
0300
0600
0800
0000
F3C0
6180
2100
3100
3200
1200
1A00
0C00
0C00
0C00
0800
0800
4800
7000
ENDCHAR
STARTCHAR thorn
ENCODING 254
SWIDTH 606 0
DWIDTH 12 0
BBX 10 18 1 -4
BITMAP
E000
6000
6000
6000
6F00
7180
60C0
60C0
60C0
60C0
60C0
6080
7180
6E00
6000
6000
6000
F800
ENDCHAR
STARTCHAR ydieresis
ENCODING 255
SWIDTH 506 0
DWIDTH 10 0
BBX 10 17 0 -4
BITMAP
3300
3300
0000
F3C0
6180
2100
3100
3200
1200
1A00
1C00
0C00
0C00
0800
0800
5000
7000
ENDCHAR
STARTCHAR Amacron
ENCODING 256
SWIDTH 635 0
DWIDTH 12 0
BBX 13 16 0 0
BITMAP
0FC0
0000
0200
0700
0700
0500
0980
0980
0980
10C0
1FC0
10C0
2060
2060
6070
F0F8
ENDCHAR
STARTCHAR amacron
ENCODING 257
SWIDTH 523 0
DWIDTH 10 0
BBX 10 12 1 0
BITMAP
7E00
0000
3E00
6200
C300
0300
1F00
6300
C300
C300
4700
7BC0
ENDCHAR
STARTCHAR Abreve
ENCODING 258
SWIDTH 635 0
DWIDTH 12 0
BBX 13 18 0 0
BITMAP
0840
0840
0780
0000
0200
0700
0700
0500
0980
0980
0980
10C0
1FC0
10C0
2060
2060
6070
F0F8
ENDCHAR
STARTCHAR abreve
ENCODING 259
SWIDTH 523 0
DWIDTH 10 0
BBX 10 14 1 0
BITMAP
4200
4200
3C00
0000
3E00
6200
C300
0300
1F00
6300
C300
C300
4700
7BC0
ENDCHAR
STARTCHAR Aogonek
ENCODING 260
SWIDTH 635 0
DWIDTH 12 0
BBX 13 18 0 -4
BITMAP
0200
0700
0700
0500
0980
0980
0980
10C0
1FC0
10C0
2060
2060
6070
F2F8
0200
0400
0400
0300
ENDCHAR
STARTCHAR aogonek
ENCODING 261
SWIDTH 523 0
DWIDTH 10 0
BBX 10 14 1 -4
BITMAP
3E00
6200
C300
0300
1F00
6300
C300
C300
4700
7FC0
0400
0800
0800
0600
ENDCHAR
STARTCHAR Cacute
ENCODING 262
SWIDTH 684 0
DWIDTH 13 0
BBX 12 19 1 0
BITMAP
0080
0180
0200
0400
0000
07C0
1870
6010
6010
C000
C000
C000
C000
C000
C000
6010
7010
3870
0FC0
ENDCHAR
STARTCHAR cacute
ENCODING 263
SWIDTH 496 0
DWIDTH 10 0
BBX 8 15 1 0
BITMAP
02
06
08
10
00
1C
63
43
C0
C0
C0
C0
C1
63
3C
ENDCHAR
STARTCHAR Ccircumflex
ENCODING 264
SWIDTH 684 0
DWIDTH 13 0
BBX 12 18 1 0
BITMAP
0300
0780
0840
0000
07C0
1870
6010
6010
C000
C000
C000
C000
C000
C000
6010
7010
3870
0FC0
ENDCHAR
STARTCHAR ccircumflex
ENCODING 265
SWIDTH 496 0
DWIDTH 10 0
BBX 8 14 1 0
BITMAP
18
3C
42
00
1C
63
43
C0
C0
C0
C0
C1
63
3C
ENDCHAR
STARTCHAR Cdotaccent
ENCODING 266
SWIDTH 684 0
DWIDTH 13 0
BBX 12 17 1 0
BITMAP
0300
0300
0000
07C0
1870
6010
6010
C000
C000
C000
C000
C000
C000
6010
7010
3870
0FC0
ENDCHAR
STARTCHAR cdotaccent
ENCODING 267
SWIDTH 496 0
DWIDTH 10 0
BBX 8 13 1 0
BITMAP
18
18
00
1C
63
43
C0
C0
C0
C0
C1
63
3C
ENDCHAR
STARTCHAR Ccaron
ENCODING 268
SWIDTH 684 0
DWIDTH 13 0
BBX 12 19 1 0
BITMAP
1080
0900
0600
0200
0000
07C0
1870
6010
6010
C000
C000
C000
C000
C000
C000
6010
7010
3870
0FC0
ENDCHAR
STARTCHAR ccaron
ENCODING 269
SWIDTH 496 0
DWIDTH 10 0
BBX 8 15 1 0
BITMAP
42
24
18
08
00
1C
63
43
C0
C0
C0
C0
C1
63
3C
ENDCHAR
STARTCHAR Dcaron
ENCODING 270
SWIDTH 779 0
DWIDTH 15 0
BBX 14 19 0 0
BITMAP
1080
0900
0600
0200
0000
FFC0
3070
3018
3018
300C
300C
300C
300C
300C
3008
3018
3010
3070
FFC0
ENDCHAR
STARTCHAR dcaron
ENCODING 271
SWIDTH 846 0
DWIDTH 16 0
BBX 14 14 1 0
BITMAP
0188
038C
0188
0188
1D90
6380
4180
C180
C180
C180
C180
E180
6380
3DC0
ENDCHAR
STARTCHAR Dcroat
ENCODING 272
SWIDTH 785 0
DWIDTH 15 0
BBX 13 14 1 0
BITMAP
FF80
30E0
3030
3030
3018
3018
3018
FC18
3018
3010
3010
3020
3060
FF80
ENDCHAR
STARTCHAR dcroat
ENCODING 273
SWIDTH 598 0
DWIDTH 12 0
BBX 10 14 1 0
BITMAP
0180
0380
0FC0
0180
1D80
6380
4180
C180
C180
C180
C180
E180
6380
3DC0
ENDCHAR
STARTCHAR Emacron
ENCODING 274
SWIDTH 606 0
DWIDTH 12 0
BBX 12 16 0 0
BITMAP
1F80
0000
FFE0
3060
3020
3000
3000
3040
3040
3FC0
3040
3000
3000
3010
3020
FFE0
ENDCHAR
STARTCHAR emacron
ENCODING 275
SWIDTH 514 0
DWIDTH 10 0
BBX 8 12 1 0
BITMAP
7E
00
3C
66
43
C3
FF
C0
C0
C1
62
3C
ENDCHAR
STARTCHAR Ebreve
ENCODING 276
SWIDTH 606 0
DWIDTH 12 0
BBX 12 18 0 0
BITMAP
1080
1080
0F00
0000
FFE0
3060
3020
3000
3000
3040
3040
3FC0
3040
3000
3000
3010
3020
FFE0
ENDCHAR
STARTCHAR ebreve
ENCODING 277
SWIDTH 514 0
DWIDTH 10 0
BBX 8 14 1 0
BITMAP
42
42
3C
00
3C
66
43
C3
FF
C0
C0
C1
62
3C
ENDCHAR
STARTCHAR Edotaccent
ENCODING 278
SWIDTH 606 0
DWIDTH 12 0
BBX 12 17 0 0
BITMAP
0600
0600
0000
FFE0
3060
3020
3000
3000
3040
3040
3FC0
3040
3000
3000
3010
3020
FFE0
ENDCHAR
STARTCHAR edotaccent
ENCODING 279
SWIDTH 514 0
DWIDTH 10 0
BBX 8 13 1 0
BITMAP
18
18
00
3C
66
43
C3
FF
C0
C0
C1
62
3C
ENDCHAR
STARTCHAR Eogonek
ENCODING 280
SWIDTH 606 0
DWIDTH 12 0
BBX 12 18 0 -4
BITMAP
FFE0
3060
3020
3000
3000
3040
3040
3FC0
3040
3000
3000
3010
3020
FFE0
0400
0800
0800
0600
ENDCHAR
STARTCHAR eogonek
ENCODING 281
SWIDTH 514 0
DWIDTH 10 0
BBX 8 14 1 -4
BITMAP
3C
66
43
C3
FF
C0
C0
C1
62
3C
10
20
20
18
ENDCHAR
STARTCHAR Ecaron
ENCODING 282
SWIDTH 606 0
DWIDTH 12 0
BBX 12 19 0 0
BITMAP
1080
0900
0600
0200
0000
FFE0
3060
3020
3000
3000
3040
3040
3FC0
3040
3000
3000
3010
3020
FFE0
ENDCHAR
STARTCHAR ecaron
ENCODING 283
SWIDTH 514 0
DWIDTH 10 0
BBX 8 15 1 0
BITMAP
42
24
18
08
00
3C
66
43
C3
FF
C0
C0
C1
62
3C
ENDCHAR
STARTCHAR Gcircumflex
ENCODING 284
SWIDTH 734 0
DWIDTH 14 0
BBX 13 18 1 0
BITMAP
0300
0780
0840
0000
07C0
3870
7030
6010
C000
C000
C000
C000
C0F8
C030
6030
6030
3830
0FC0
ENDCHAR
STARTCHAR gcircumflex
ENCODING 285
SWIDTH 520 0
DWIDTH 10 0
BBX 9 18 1 -4
BITMAP
0C00
1E00
2100
0000
3D80
6780
C300
C300
C300
6600
3C00
4000
C000
7F00
4180
C180
E300
3C00
ENDCHAR
STARTCHAR Gbreve
ENCODING 286
SWIDTH 734 0
DWIDTH 14 0
BBX 13 18 1 0
BITMAP
0840
0840
0780
0000
07C0
3870
7030
6010
C000
C000
C000
C000
C0F8
C030
6030
6030
3830
0FC0
ENDCHAR
STARTCHAR gbreve
ENCODING 287
SWIDTH 520 0
DWIDTH 10 0
BBX 9 18 1 -4
BITMAP
2100
2100
1E00
0000
3D80
6780
C300
C300
C300
6600
3C00
4000
C000
7F00
4180
C180
E300
3C00
ENDCHAR
STARTCHAR Gdotaccent
ENCODING 288
SWIDTH 734 0
DWIDTH 14 0
BBX 13 17 1 0
BITMAP
0300
0300
0000
07C0
3870
7030
6010
C000
C000
C000
C000
C0F8
C030
6030
6030
3830
0FC0
ENDCHAR
STARTCHAR gdotaccent
ENCODING 289
SWIDTH 520 0
DWIDTH 10 0
BBX 9 17 1 -4
BITMAP
0C00
0C00
0000
3D80
6780
C300
C300
C300
6600
3C00
4000
C000
7F00
4180
C180
E300
3C00
ENDCHAR
STARTCHAR Gcommaaccent
ENCODING 290
SWIDTH 734 0
DWIDTH 14 0
BBX 13 20 1 -6
BITMAP
07C0
3870
7030
6010
C000
C000
C000
C000
C0F8
C030
6030
6030
3830
0FC0
0000
0200
0300
0300
0200
0400
ENDCHAR
STARTCHAR gcommaaccent
ENCODING 291
SWIDTH 520 0
DWIDTH 10 0
BBX 9 20 1 -4
BITMAP
0400
0800
0800
1800
0800
0000
3D80
6780
C300
C300
C300
6600
3C00
4000
C000
7F00
4180
C180
E300
3C00
ENDCHAR
STARTCHAR Hcircumflex
ENCODING 292
SWIDTH 798 0
DWIDTH 16 0
BBX 15 18 0 0
BITMAP
0180
03C0
0420
0000
FC7E
3018
3018
3018
3018
3018
3018
3FF8
3018
3018
3018
3018
3018
FC7E
ENDCHAR
STARTCHAR hcircumflex
ENCODING 293
SWIDTH 607 0
DWIDTH 12 0
BBX 10 18 1 0
BITMAP
3000
7800
8400
0000
6000
E000
6000
6000
6F00
7180
6180
6180
6180
6180
6180
6180
6180
F3C0
ENDCHAR
STARTCHAR Hbar
ENCODING 294
SWIDTH 798 0
DWIDTH 16 0
BBX 15 14 0 0
BITMAP
FC7E
3018
3018
FFFE
3018
3018
3018
3FF8
3018
3018
3018
3018
3018
FC7E
ENDCHAR
STARTCHAR hbar
ENCODING 295
SWIDTH 607 0
DWIDTH 12 0
BBX 10 14 1 0
BITMAP
6000
E000
FC00
6000
6F00
7180
6180
6180
6180
6180
6180
6180
6180
F3C0
ENDCHAR
STARTCHAR Itilde
ENCODING 296
SWIDTH 349 0
DWIDTH 7 0
BBX 7 17 0 0
BITMAP
72
8C
00
FC
30
30
30
30
30
30
30
30
30
30
30
30
FC
ENDCHAR
STARTCHAR itilde
ENCODING 297
SWIDTH 291 0
DWIDTH 6 0
BBX 7 13 -1 0
BITMAP
72
8C
00
18
38
18
18
18
18
18
18
18
3C
ENDCHAR
STARTCHAR Imacron
ENCODING 298
SWIDTH 349 0
DWIDTH 7 0
BBX 6 16 0 0
BITMAP
FC
00
FC
30
30
30
30
30
30
30
30
30
30
30
30
FC
ENDCHAR
STARTCHAR imacron
ENCODING 299
SWIDTH 291 0
DWIDTH 6 0
BBX 6 12 0 0
BITMAP
FC
00
30
70
30
30
30
30
30
30
30
78
ENDCHAR
STARTCHAR Ibreve
ENCODING 300
SWIDTH 349 0
DWIDTH 7 0
BBX 6 18 0 0
BITMAP
84
84
78
00
FC
30
30
30
30
30
30
30
30
30
30
30
30
FC
ENDCHAR
STARTCHAR ibreve
ENCODING 301
SWIDTH 291 0
DWIDTH 6 0
BBX 6 14 0 0
BITMAP
84
84
78
00
30
70
30
30
30
30
30
30
30
78
ENDCHAR
STARTCHAR Iogonek
ENCODING 302
SWIDTH 349 0
DWIDTH 7 0
BBX 6 18 0 -4
BITMAP
FC
30
30
30
30
30
30
30
30
30
30
30
30
FC
10
20
20
18
ENDCHAR
STARTCHAR iogonek
ENCODING 303
SWIDTH 291 0
DWIDTH 6 0
BBX 4 18 1 -4
BITMAP
40
E0
00
00
60
E0
60
60
60
60
60
60
60
F0
20
40
40
30
ENDCHAR
STARTCHAR Idotaccent
ENCODING 304
SWIDTH 349 0
DWIDTH 7 0
BBX 6 17 0 0
BITMAP
30
30
00
FC
30
30
30
30
30
30
30
30
30
30
30
30
FC
ENDCHAR
STARTCHAR dotlessi
ENCODING 305
SWIDTH 291 0
DWIDTH 6 0
BBX 4 10 1 0
BITMAP
60
E0
60
60
60
60
60
60
60
F0
ENDCHAR
STARTCHAR IJ
ENCODING 306
SWIDTH 682 0
DWIDTH 14 0
BBX 14 16 0 -2
BITMAP
FCFC
3030
3030
3030
3030
3030
3030
3030
3030
3030
3030
3030
3030
FC30
0060
01C0
ENDCHAR
STARTCHAR ij
ENCODING 307
SWIDTH 556 0
DWIDTH 11 0
BBX 9 19 1 -4
BITMAP
0180
4180
E100
0000
0000
6180
E380
6180
6180
6180
6180
6180
6180
6180
F180
0180
0100
0300
0C00
ENDCHAR
STARTCHAR Jcircumflex
ENCODING 308
SWIDTH 350 0
DWIDTH 7 0
BBX 7 20 0 -2
BITMAP
18
3C
42
00
7E
18
18
18
18
18
18
18
18
18
18
18
18
18
30
E0
ENDCHAR
STARTCHAR jcircumflex
ENCODING 309
SWIDTH 280 0
DWIDTH 5 0
BBX 6 18 -1 -4
BITMAP
30
78
84
00
18
38
18
18
18
18
18
18
18
18
18
10
30
C0
ENDCHAR
STARTCHAR Kcommaaccent
ENCODING 310
SWIDTH 658 0
DWIDTH 13 0
BBX 13 20 0 -6
BITMAP
FCF8
3060
3080
3100
3200
3400
3C00
3600
3700
3380
31C0
30C0
3070
FC18
0000
0200
0300
0300
0200
0400
ENDCHAR
STARTCHAR kcommaaccent
ENCODING 311
SWIDTH 524 0
DWIDTH 10 0
BBX 10 20 1 -6
BITMAP
6000
E000
6000
6000
6380
6600
6C00
7800
7800
7C00
6C00
6600
6380
F1C0
0000
0800
0C00
0C00
0800
1000
ENDCHAR
STARTCHAR kgreenlandic
ENCODING 312
SWIDTH 524 0
DWIDTH 10 0
BBX 10 10 1 0
BITMAP
6380
6600
6C00
7800
7800
7C00
6C00
6600
6380
F1C0
ENDCHAR
STARTCHAR Lacute
ENCODING 313
SWIDTH 568 0
DWIDTH 11 0
BBX 11 19 0 0
BITMAP
0200
0600
0800
1000
0000
FC00
3000
3000
3000
3000
3000
3000
3000
3000
3000
3020
3020
3040
FFC0
ENDCHAR
STARTCHAR lacute
ENCODING 314
SWIDTH 279 0
DWIDTH 5 0
BBX 5 19 1 0
BITMAP
08
18
20
40
00
60
E0
60
60
60
60
60
60
60
60
60
60
60
F0
ENDCHAR
STARTCHAR Lcommaaccent
ENCODING 315
SWIDTH 568 0
DWIDTH 11 0
BBX 11 20 0 -6
BITMAP
FC00
3000
3000
3000
3000
3000
3000
3000
3000
3000
3020
3020
3040
FFC0
0000
0400
0600
0600
0400
0800
ENDCHAR
STARTCHAR lcommaaccent
ENCODING 316
SWIDTH 279 0
DWIDTH 5 0
BBX 4 20 1 -6
BITMAP
60
E0
60
60
60
60
60
60
60
60
60
60
60
F0
00
40
60
60
40
80
ENDCHAR
STARTCHAR Lcaron
ENCODING 317
SWIDTH 818 0
DWIDTH 15 0
BBX 14 14 0 0
BITMAP
FC08
300C
3008
3008
3010
3000
3000
3000
3000
3000
3020
3020
3040
FFC0
ENDCHAR
STARTCHAR lcaron
ENCODING 318
SWIDTH 543 0
DWIDTH 10 0
BBX 8 14 1 0
BITMAP
62
E3
62
62
64
60
60
60
60
60
60
60
60
F0
ENDCHAR
STARTCHAR Ldot
ENCODING 319
SWIDTH 805 0
DWIDTH 15 0
BBX 14 14 0 0
BITMAP
FC00
3000
3000
3000
3000
3000
3000
3000
300C
300C
3020
3020
3040
FFC0
ENDCHAR
STARTCHAR ldot
ENCODING 320
SWIDTH 530 0
DWIDTH 10 0
BBX 8 14 1 0
BITMAP
60
E0
60
60
60
60
60
60
63
63
60
60
60
F0
ENDCHAR
STARTCHAR Lslash
ENCODING 321
SWIDTH 574 0
DWIDTH 11 0
BBX 11 14 1 0
BITMAP
FC00
3000
3000
3000
3200
3400
3800
3000
7000
B000
3020
3020
3040
FFC0
ENDCHAR
STARTCHAR lslash
ENCODING 322
SWIDTH 294 0
DWIDTH 6 0
BBX 6 14 0 0
BITMAP
30
70
30
30
34
38
30
70
B0
30
30
30
30
78
ENDCHAR
STARTCHAR Nacute
ENCODING 323
SWIDTH 780 0
DWIDTH 15 0
BBX 15 19 0 0
BITMAP
0040
00C0
0100
0200
0000
F03E
3808
3C08
2E08
2608
2708
2388
21C8
20C8
20E8
2078
2038
2018
F818
ENDCHAR
STARTCHAR nacute
ENCODING 324
SWIDTH 619 0
DWIDTH 12 0
BBX 10 15 1 0
BITMAP
0200
0600
0800
1000
0000
6F00
F180
6180
6180
6180
6180
6180
6180
6180
F3C0
ENDCHAR
STARTCHAR Ncommaaccent
ENCODING 325
SWIDTH 780 0
DWIDTH 15 0
BBX 15 20 0 -6
BITMAP
F03E
3808
3C08
2E08
2608
2708
2388
21C8
20C8
20E8
2078
2038
2018
F818
0000
0100
0180
0180
0100
0200
ENDCHAR
STARTCHAR ncommaaccent
ENCODING 326
SWIDTH 619 0
DWIDTH 12 0
BBX 10 16 1 -6
BITMAP
6F00
F180
6180
6180
6180
6180
6180
6180
6180
F3C0
0000
0800
0C00
0C00
0800
1000
ENDCHAR
STARTCHAR Ncaron
ENCODING 327
SWIDTH 780 0
DWIDTH 15 0
BBX 15 19 0 0
BITMAP
0840
0480
0300
0100
0000
F03E
3808
3C08
2E08
2608
2708
2388
21C8
20C8
20E8
2078
2038
2018
F818
ENDCHAR
STARTCHAR ncaron
ENCODING 328
SWIDTH 619 0
DWIDTH 12 0
BBX 10 15 1 0
BITMAP
2100
1200
0C00
0400
0000
6F00
F180
6180
6180
6180
6180
6180
6180
6180
F3C0
ENDCHAR
STARTCHAR napostrophe
ENCODING 329
SWIDTH 883 0
DWIDTH 17 0
BBX 15 14 1 0
BITMAP
4000
6000
4000
4000
8378
078C
030C
030C
030C
030C
030C
030C
030C
079E
ENDCHAR
STARTCHAR Eng
ENCODING 330
SWIDTH 780 0
DWIDTH 15 0
BBX 15 18 0 -4
BITMAP
F03E
3808
3C08
2E08
2608
2708
2388
21C8
20C8
20E8
2078
2038
2018
F818
0018
0010
0030
00C0
ENDCHAR
STARTCHAR eng
ENCODING 331
SWIDTH 619 0
DWIDTH 12 0
BBX 9 14 1 -4
BITMAP
6F00
F180
6180
6180
6180
6180
6180
6180
6180
F180
0180
0100
0300
0C00
ENDCHAR
STARTCHAR Omacron
ENCODING 332
SWIDTH 762 0
DWIDTH 15 0
BBX 13 16 1 0
BITMAP
0FC0
0000
0F80
3060
6030
6030
C018
C018
C018
C018
C018
C018
6030
6030
3060
0F80
ENDCHAR
STARTCHAR omacron
ENCODING 333
SWIDTH 577 0
DWIDTH 11 0
BBX 9 12 1 0
BITMAP
3F00
0000
3E00
6300
4100
C180
C180
C180
C180
4100
6300
3E00
ENDCHAR
STARTCHAR Obreve
ENCODING 334
SWIDTH 762 0
DWIDTH 15 0
BBX 13 18 1 0
BITMAP
0840
0840
0780
0000
0F80
3060
6030
6030
C018
C018
C018
C018
C018
C018
6030
6030
3060
0F80
ENDCHAR
STARTCHAR obreve
ENCODING 335
SWIDTH 577 0
DWIDTH 11 0
BBX 9 14 1 0
BITMAP
2100
2100
1E00
0000
3E00
6300
4100
C180
C180
C180
C180
4100
6300
3E00
ENDCHAR
STARTCHAR Ohungarumlaut
ENCODING 336
SWIDTH 762 0
DWIDTH 15 0
BBX 13 19 1 0
BITMAP
0240
02C0
0680
0500
0000
0F80
3060
6030
6030
C018
C018
C018
C018
C018
C018
6030
6030
3060
0F80
ENDCHAR
STARTCHAR ohungarumlaut
ENCODING 337
SWIDTH 577 0
DWIDTH 11 0
BBX 9 15 1 0
BITMAP
0900
0B00
1A00
1400
0000
3E00
6300
4100
C180
C180
C180
C180
4100
6300
3E00
ENDCHAR
STARTCHAR OE
ENCODING 338
SWIDTH 1025 0
DWIDTH 20 0
BBX 19 14 1 0
BITMAP
07FFC0
3830C0
303040
603000
603000
C03080
C03080
C03F80
C03080
C03000
603000
603020
383040
07FFC0
ENDCHAR
STARTCHAR oe
ENCODING 339
SWIDTH 882 0
DWIDTH 17 0
BBX 15 10 1 0
BITMAP
3C38
63CC
4186
C186
C1FE
C180
C180
4182
63C4
3C78
ENDCHAR
STARTCHAR Racute
ENCODING 340
SWIDTH 644 0
DWIDTH 13 0
BBX 12 19 0 0
BITMAP
0100
0300
0400
0800
0000
FF80
30C0
3060
3060
3060
3040
30C0
3F00
30C0
30C0
30C0
3060
3060
FC30
ENDCHAR
STARTCHAR racute
ENCODING 341
SWIDTH 389 0
DWIDTH 8 0
BBX 7 15 1 0
BITMAP
04
0C
10
20
00
6E
FC
60
60
60
60
60
60
60
F8
ENDCHAR
STARTCHAR Rcommaaccent
ENCODING 342
SWIDTH 644 0
DWIDTH 13 0
BBX 12 20 0 -6
BITMAP
FF80
30C0
3060
3060
3060
3040
30C0
3F00
30C0
30C0
30C0
3060
3060
FC30
0000
0400
0600
0600
0400
0800
ENDCHAR
STARTCHAR rcommaaccent
ENCODING 343
SWIDTH 389 0
DWIDTH 8 0
BBX 7 16 1 -6
BITMAP
6E
FC
60
60
60
60
60
60
60
F8
00
20
30
30
20
40
ENDCHAR
STARTCHAR Rcaron
ENCODING 344
SWIDTH 644 0
DWIDTH 13 0
BBX 12 19 0 0
BITMAP
1080
0900
0600
0200
0000
FF80
30C0
3060
3060
3060
3040
30C0
3F00
30C0
30C0
30C0
3060
3060
FC30
ENDCHAR
STARTCHAR rcaron
ENCODING 345
SWIDTH 389 0
DWIDTH 8 0
BBX 7 15 1 0
BITMAP
84
48
30
10
00
6E
FC
60
60
60
60
60
60
60
F8
ENDCHAR
STARTCHAR Sacute
ENCODING 346
SWIDTH 541 0
DWIDTH 11 0
BBX 9 19 1 0
BITMAP
0200
0600
0800
1000
0000
3E00
6300
C100
C100
E000
F000
7C00
1F00
0380
8180
8180
C180
E300
3C00
ENDCHAR
STARTCHAR sacute
ENCODING 347
SWIDTH 436 0
DWIDTH 8 0
BBX 7 15 1 0
BITMAP
04
0C
10
20
00
38
4C
C4
E0
78
1C
86
86
C4
78
ENDCHAR
STARTCHAR Scircumflex
ENCODING 348
SWIDTH 541 0
DWIDTH 11 0
BBX 9 18 1 0
BITMAP
1800
3C00
4200
0000
3E00
6300
C100
C100
E000
F000
7C00
1F00
0380
8180
8180
C180
E300
3C00
ENDCHAR
STARTCHAR scircumflex
ENCODING 349
SWIDTH 436 0
DWIDTH 8 0
BBX 7 14 1 0
BITMAP
30
78
84
00
38
4C
C4
E0
78
1C
86
86
C4
78
ENDCHAR
STARTCHAR Scedilla
ENCODING 350
SWIDTH 541 0
DWIDTH 11 0
BBX 9 18 1 -4
BITMAP
3E00
6300
C100
C100
E000
F000
7C00
1F00
0380
8180
8180
C180
E300
3C00
1800
1800
0C00
3800
ENDCHAR
STARTCHAR scedilla
ENCODING 351
SWIDTH 436 0
DWIDTH 8 0
BBX 7 14 1 -4
BITMAP
38
4C
C4
E0
78
1C
86
86
C4
78
30
30
18
70
ENDCHAR
STARTCHAR Scaron
ENCODING 352
SWIDTH 541 0
DWIDTH 11 0
BBX 9 17 1 0
BITMAP
6200
1C00
0800
3E00
6300
C100
C100
E000
F000
7C00
1F00
0380
0180
8180
C180
E300
3C00
ENDCHAR
STARTCHAR scaron
ENCODING 353
SWIDTH 436 0
DWIDTH 8 0
BBX 7 14 1 0
BITMAP
84
48
30
20
38
4C
C4
E0
78
1C
86
86
C4
78
ENDCHAR
STARTCHAR Tcommaaccent
ENCODING 354
SWIDTH 621 0
DWIDTH 12 0
BBX 12 18 0 -4
BITMAP
FFF0
C630
8610
0600
0600
0600
0600
0600
0600
0600
0600
0600
0600
1F80
0600
0600
0300
0E00
ENDCHAR
STARTCHAR tcommaaccent
ENCODING 355
SWIDTH 344 0
DWIDTH 7 0
BBX 6 16 1 -4
BITMAP
20
60
F8
60
60
60
60
60
60
60
60
3C
30
30
18
70
ENDCHAR
STARTCHAR Tcaron
ENCODING 356
SWIDTH 621 0
DWIDTH 12 0
BBX 12 19 0 0
BITMAP
1080
0900
0600
0200
0000
FFF0
C630
8610
0600
0600
0600
0600
0600
0600
0600
0600
0600
0600
1F80
ENDCHAR
STARTCHAR tcaron
ENCODING 357
SWIDTH 605 0
DWIDTH 12 0
BBX 10 14 1 0
BITMAP
0080
00C0
2080
6080
F900
6000
6000
6000
6000
6000
6000
6000
6000
3C00
ENDCHAR
STARTCHAR Tbar
ENCODING 358
SWIDTH 621 0
DWIDTH 12 0
BBX 12 14 0 0
BITMAP
FFF0
C630
8610
0600
0600
0600
1F80
0600
0600
0600
0600
0600
0600
1F80
ENDCHAR
STARTCHAR tbar
ENCODING 359
SWIDTH 344 0
DWIDTH 7 0
BBX 6 12 1 0
BITMAP
20
60
F8
60
60
60
FC
60
60
60
60
3C
ENDCHAR
STARTCHAR Utilde
ENCODING 360
SWIDTH 791 0
DWIDTH 15 0
BBX 15 17 0 0
BITMAP
0720
08C0
0000
FC7E
3018
3018
3018
3018
3018
3018
3018
3018
3018
3018
1830
1C70
07C0
ENDCHAR
STARTCHAR utilde
ENCODING 361
SWIDTH 606 0
DWIDTH 12 0
BBX 10 13 1 0
BITMAP
3900
4600
0000
6180
E380
6180
6180
6180
6180
6180
6180
6380
3DC0
ENDCHAR
STARTCHAR Umacron
ENCODING 362
SWIDTH 791 0
DWIDTH 15 0
BBX 15 16 0 0
BITMAP
07E0
0000
FC7E
3018
3018
3018
3018
3018
3018
3018
3018
3018
3018
1830
1C70
07C0
ENDCHAR
STARTCHAR umacron
ENCODING 363
SWIDTH 606 0
DWIDTH 12 0
BBX 10 12 1 0
BITMAP
3F00
0000
6180
E380
6180
6180
6180
6180
6180
6180
6380
3DC0
ENDCHAR
STARTCHAR Ubreve
ENCODING 364
SWIDTH 791 0
DWIDTH 15 0
BBX 15 18 0 0
BITMAP
0420
0420
03C0
0000
FC7E
3018
3018
3018
3018
3018
3018
3018
3018
3018
3018
1830
1C70
07C0
ENDCHAR
STARTCHAR ubreve
ENCODING 365
SWIDTH 606 0
DWIDTH 12 0
BBX 10 14 1 0
BITMAP
2100
2100
1E00
0000
6180
E380
6180
6180
6180
6180
6180
6180
6380
3DC0
ENDCHAR
STARTCHAR Uring
ENCODING 366
SWIDTH 791 0
DWIDTH 15 0
BBX 15 19 0 0
BITMAP
0180
0240
0240
0180
0000
FC7E
3018
3018
3018
3018
3018
3018
3018
3018
3018
3018
1830
1C70
07C0
ENDCHAR
STARTCHAR uring
ENCODING 367
SWIDTH 606 0
DWIDTH 12 0
BBX 10 15 1 0
BITMAP
0C00
1200
1200
0C00
0000
6180
E380
6180
6180
6180
6180
6180
6180
6380
3DC0
ENDCHAR
STARTCHAR Uhungarumlaut
ENCODING 368
SWIDTH 791 0
DWIDTH 15 0
BBX 15 19 0 0
BITMAP
0120
0160
0340
0280
0000
FC7E
3018
3018
3018
3018
3018
3018
3018
3018
3018
3018
1830
1C70
07C0
ENDCHAR
STARTCHAR uhungarumlaut
ENCODING 369
SWIDTH 606 0
DWIDTH 12 0
BBX 10 15 1 0
BITMAP
0900
0B00
1A00
1400
0000
6180
E380
6180
6180
6180
6180
6180
6180
6380
3DC0
ENDCHAR
STARTCHAR Uogonek
ENCODING 370
SWIDTH 791 0
DWIDTH 15 0
BBX 15 18 0 -4
BITMAP
FC7E
3018
3018
3018
3018
3018
3018
3018
3018
3018
3018
1830
1C70
07C0
0100
0200
0200
0180
ENDCHAR
STARTCHAR uogonek
ENCODING 371
SWIDTH 606 0
DWIDTH 12 0
BBX 10 14 1 -4
BITMAP
6180
E380
6180
6180
6180
6180
6180
6180
6380
3DC0
0400
0800
0800
0600
ENDCHAR
STARTCHAR Wcircumflex
ENCODING 372
SWIDTH 940 0
DWIDTH 18 0
BBX 19 18 0 0
BITMAP
00C000
01E000
021000
000000
F001E0
6040C0
606080
20E080
30E080
313100
313100
193100
191A00
1A1A00
1A1A00
0E0E00
0C0C00
0C0C00
ENDCHAR
STARTCHAR wcircumflex
ENCODING 373
SWIDTH 768 0
DWIDTH 15 0
BBX 15 14 0 0
BITMAP
0180
03C0
0420
0000
F01E
618C
2188
3288
32C8
32D0
1450
1C50
1C70
0830
ENDCHAR
STARTCHAR Ycircumflex
ENCODING 374
SWIDTH 588 0
DWIDTH 11 0
BBX 12 18 0 0
BITMAP
0600
0F00
1080
0000
F8F0
3040
3040
1880
1880
0D00
0D00
0600
0600
0600
0600
0600
0600
1F80
ENDCHAR
STARTCHAR ycircumflex
ENCODING 375
SWIDTH 506 0
DWIDTH 10 0
BBX 10 18 0 -4
BITMAP
0C00
1E00
2100
0000
F3C0
6180
2100
3100
3200
1200
1A00
0C00
0C00
0C00
0800
0800
4800
7000
ENDCHAR
STARTCHAR Ydieresis
ENCODING 376
SWIDTH 588 0
DWIDTH 11 0
BBX 12 16 0 0
BITMAP
1980
1980
F8F0
3040
3040
1880
1880
0D00
0D00
0600
0600
0600
0600
0600
0600
1F80
ENDCHAR
STARTCHAR Zacute
ENCODING 377
SWIDTH 610 0
DWIDTH 12 0
BBX 12 19 0 0
BITMAP
0080
0180
0200
0400
0000
7FE0
60E0
40C0
41C0
0380
0300
0600
0E00
1C00
1800
3810
7020
6020
FFE0
ENDCHAR
STARTCHAR zacute
ENCODING 378
SWIDTH 480 0
DWIDTH 9 0
BBX 9 15 0 0
BITMAP
0100
0300
0400
0800
0000
7F80
6380
4700
0600
0C00
1C00
1800
3080
6080
FF80
ENDCHAR
STARTCHAR Zdotaccent
ENCODING 379
SWIDTH 610 0
DWIDTH 12 0
BBX 12 17 0 0
BITMAP
0600
0600
0000
7FE0
60E0
40C0
41C0
0380
0300
0600
0E00
1C00
1800
3810
7020
6020
FFE0
ENDCHAR
STARTCHAR zdotaccent
ENCODING 380
SWIDTH 480 0
DWIDTH 9 0
BBX 9 13 0 0
BITMAP
0C00
0C00
0000
7F80
6380
4700
0600
0C00
1C00
1800
3080
6080
FF80
ENDCHAR
STARTCHAR Zcaron
ENCODING 381
SWIDTH 610 0
DWIDTH 12 0
BBX 12 17 0 0
BITMAP
1980
0E00
0400
7FE0
60E0
40C0
41C0
0380
0300
0600
0E00
1C00
1800
3810
7020
6020
FFE0
ENDCHAR
STARTCHAR zcaron
ENCODING 382
SWIDTH 480 0
DWIDTH 9 0
BBX 9 14 0 0
BITMAP
2100
1200
0C00
0800
7F80
6380
4700
0600
0C00
1C00
1800
3080
6080
FF80
ENDCHAR
STARTCHAR uni0186
ENCODING 390
SWIDTH 684 0
DWIDTH 13 0
BBX 12 14 1 0
BITMAP
3F00
E1C0
80E0
8060
0030
0030
0030
0030
0030
0030
8060
8060
E180
3E00
ENDCHAR
STARTCHAR uni0189
ENCODING 393
SWIDTH 785 0
DWIDTH 15 0
BBX 13 14 1 0
BITMAP
FF80
30E0
3030
3030
3018
3018
3018
FC18
3018
3010
3010
3020
3060
FF80
ENDCHAR
STARTCHAR uni018E
ENCODING 398
SWIDTH 606 0
DWIDTH 12 0
BBX 12 14 0 0
BITMAP
7FF0
40C0
80C0
00C0
00C0
20C0
3FC0
20C0
20C0
00C0
00C0
40C0
60C0
7FF0
ENDCHAR
STARTCHAR florin
ENCODING 402
SWIDTH 530 0
DWIDTH 10 0
BBX 10 17 0 -3
BITMAP
0180
02C0
0640
0400
0C00
0C00
3F00
0C00
0C00
0800
0800
1800
1800
1800
1000
D000
6000
ENDCHAR
STARTCHAR uni0197
ENCODING 407
SWIDTH 349 0
DWIDTH 7 0
BBX 6 14 0 0
BITMAP
FC
30
30
30
30
30
FC
30
30
30
30
30
30
FC
ENDCHAR
STARTCHAR uni019A
ENCODING 410
SWIDTH 279 0
DWIDTH 5 0
BBX 6 14 0 0
BITMAP
30
70
30
30
30
30
FC
30
30
30
30
30
30
78
ENDCHAR
STARTCHAR uni019D
ENCODING 413
SWIDTH 780 0
DWIDTH 15 0
BBX 16 18 -1 -4
BITMAP
781F
1C04
1E04
1704
1304
1384
11C4
10E4
1064
1074
183C
181C
180C
180C
1800
1000
3000
C000
ENDCHAR
STARTCHAR uni019F
ENCODING 415
SWIDTH 762 0
DWIDTH 15 0
BBX 13 14 1 0
BITMAP
0F80
3060
6030
6030
C018
C018
FFF8
C018
C018
C018
6030
6030
3060
0F80
ENDCHAR
STARTCHAR Ohorn
ENCODING 416
SWIDTH 762 0
DWIDTH 15 0
BBX 15 14 1 0
BITMAP
0F84
3066
6034
6034
C018
C018
C018
C018
C018
C018
6030
6030
3060
0F80
ENDCHAR
STARTCHAR ohorn
ENCODING 417
SWIDTH 577 0
DWIDTH 11 0
BBX 11 10 1 0
BITMAP
3E40
6360
4140
C1C0
C180
C180
C180
4100
6300
3E00
ENDCHAR
STARTCHAR uni01A7
ENCODING 423
SWIDTH 541 0
DWIDTH 11 0
BBX 9 14 1 0
BITMAP
3E00
6300
4180
4180
0380
0780
1F00
7C00
E000
C080
C080
C180
6380
1E00
ENDCHAR
STARTCHAR uni01A8
ENCODING 424
SWIDTH 436 0
DWIDTH 8 0
BBX 7 10 1 0
BITMAP
38
64
46
0E
3C
70
C2
C2
46
3C
ENDCHAR
STARTCHAR uni01AE
ENCODING 430
SWIDTH 621 0
DWIDTH 12 0
BBX 12 18 0 -4
BITMAP
FFF0
C630
8610
0600
0600
0600
0600
0600
0600
0600
0600
0600
0600
0600
0600
0200
0300
00C0
ENDCHAR
STARTCHAR Uhorn
ENCODING 431
SWIDTH 791 0
DWIDTH 15 0
BBX 17 14 0 0
BITMAP
FC7F00
301980
301900
301900
301A00
301800
301800
301800
301800
301800
301800
183000
1C7000
07C000
ENDCHAR
STARTCHAR uhorn
ENCODING 432
SWIDTH 606 0
DWIDTH 12 0
BBX 12 10 1 0
BITMAP
61A0
E3B0
61A0
61A0
61C0
6180
6180
6180
6380
3DC0
ENDCHAR
STARTCHAR uni01B5
ENCODING 437
SWIDTH 610 0
DWIDTH 12 0
BBX 12 14 0 0
BITMAP
7FE0
60E0
40C0
41C0
0380
0300
1F80
0E00
1C00
1800
3810
7020
6020
FFE0
ENDCHAR
STARTCHAR uni01B6
ENCODING 438
SWIDTH 480 0
DWIDTH 9 0
BBX 9 10 0 0
BITMAP
7F80
6380
4700
0600
3F00
1C00
1800
3080
6080
FF80
ENDCHAR
STARTCHAR uni01BB
ENCODING 443
SWIDTH 530 0
DWIDTH 10 0
BBX 8 13 1 0
BITMAP
3C
66
C3
43
03
03
FF
0C
18
20
40
C1
FF
ENDCHAR
STARTCHAR uni01BC
ENCODING 444
SWIDTH 530 0
DWIDTH 10 0
BBX 8 13 1 0
BITMAP
7E
40
40
40
40
7C
46
03
03
03
C3
46
3C
ENDCHAR
STARTCHAR uni01C0
ENCODING 448
SWIDTH 228 0
DWIDTH 4 0
BBX 1 14 2 0
BITMAP
80
80
80
80
80
80
80
80
80
80
80
80
80
80
ENDCHAR
STARTCHAR uni01C2
ENCODING 450
SWIDTH 570 0
DWIDTH 11 0
BBX 9 14 1 -2
BITMAP
0800
0800
0800
0800
0800
FF80
0800
0800
0800
FF80
0800
0800
0800
0800
ENDCHAR
STARTCHAR uni01C3
ENCODING 451
SWIDTH 242 0
DWIDTH 5 0
BBX 2 14 1 0
BITMAP
C0
C0
C0
C0
C0
C0
80
80
80
80
00
40
C0
C0
ENDCHAR
STARTCHAR uni01CD
ENCODING 461
SWIDTH 635 0
DWIDTH 12 0
BBX 13 19 0 0
BITMAP
1080
0900
0600
0200
0000
0200
0700
0700
0500
0980
0980
0980
10C0
1FC0
10C0
2060
2060
6070
F0F8
ENDCHAR
STARTCHAR uni01CE
ENCODING 462
SWIDTH 523 0
DWIDTH 10 0
BBX 10 15 1 0
BITMAP
4200
2400
1800
0800
0000
3E00
6200
C300
0300
1F00
6300
C300
C300
4700
7BC0
ENDCHAR
STARTCHAR uni01CF
ENCODING 463
SWIDTH 349 0
DWIDTH 7 0
BBX 6 19 0 0
BITMAP
84
48
30
10
00
FC
30
30
30
30
30
30
30
30
30
30
30
30
FC
ENDCHAR
STARTCHAR uni01D0
ENCODING 464
SWIDTH 291 0
DWIDTH 6 0
BBX 6 15 0 0
BITMAP
84
48
30
10
00
30
70
30
30
30
30
30
30
30
78
ENDCHAR
STARTCHAR uni01D1
ENCODING 465
SWIDTH 762 0
DWIDTH 15 0
BBX 13 19 1 0
BITMAP
1080
0900
0600
0200
0000
0F80
3060
6030
6030
C018
C018
C018
C018
C018
C018
6030
6030
3060
0F80
ENDCHAR
STARTCHAR uni01D2
ENCODING 466
SWIDTH 577 0
DWIDTH 11 0
BBX 9 15 1 0
BITMAP
4200
2400
1800
0800
0000
3E00
6300
4100
C180
C180
C180
C180
4100
6300
3E00
ENDCHAR
STARTCHAR uni01D3
ENCODING 467
SWIDTH 791 0
DWIDTH 15 0
BBX 15 19 0 0
BITMAP
0840
0480
0300
0100
0000
FC7E
3018
3018
3018
3018
3018
3018
3018
3018
3018
3018
1830
1C70
07C0
ENDCHAR
STARTCHAR uni01D4
ENCODING 468
SWIDTH 606 0
DWIDTH 12 0
BBX 10 15 1 0
BITMAP
2100
1200
0C00
0400
0000
6180
E380
6180
6180
6180
6180
6180
6180
6380
3DC0
ENDCHAR
STARTCHAR uni01D5
ENCODING 469
SWIDTH 791 0
DWIDTH 15 0
BBX 15 18 0 0
BITMAP
07E0
0000
0660
0660
FC3E
3018
3018
3018
3018
3018
3018
3018
3018
3018
3018
1830
1C70
07C0
ENDCHAR
STARTCHAR uni01D6
ENCODING 470
SWIDTH 606 0
DWIDTH 12 0
BBX 10 15 1 0
BITMAP
3F00
0000
3300
3300
0000
6180
E380
6180
6180
6180
6180
6180
6180
6380
3DC0
ENDCHAR
STARTCHAR uni01D7
ENCODING 471
SWIDTH 791 0
DWIDTH 15 0
BBX 15 21 0 0
BITMAP
0040
00C0
0100
0200
0000
0660
0660
FC3E
3018
3018
3018
3018
3018
3018
3018
3018
3018
3018
1830
1C70
07C0
ENDCHAR
STARTCHAR uni01D8
ENCODING 472
SWIDTH 606 0
DWIDTH 12 0
BBX 10 18 1 0
BITMAP
0100
0300
0400
0800
0000
3300
3300
0000
6180
E380
6180
6180
6180
6180
6180
6180
6380
3DC0
ENDCHAR
STARTCHAR uni01D9
ENCODING 473
SWIDTH 791 0
DWIDTH 15 0
BBX 15 21 0 0
BITMAP
0840
0480
0300
0100
0000
0660
0660
FC3E
3018
3018
3018
3018
3018
3018
3018
3018
3018
3018
1830
1C70
07C0
ENDCHAR
STARTCHAR uni01DA
ENCODING 474
SWIDTH 606 0
DWIDTH 12 0
BBX 10 18 1 0
BITMAP
2100
1200
0C00
0400
0000
3300
3300
0000
6180
E380
6180
6180
6180
6180
6180
6180
6380
3DC0
ENDCHAR
STARTCHAR uni01DB
ENCODING 475
SWIDTH 791 0
DWIDTH 15 0
BBX 15 21 0 0
BITMAP
0400
0600
0100
0080
0000
0660
0660
FC3E
3018
3018
3018
3018
3018
3018
3018
3018
3018
3018
1830
1C70
07C0
ENDCHAR
STARTCHAR uni01DC
ENCODING 476
SWIDTH 606 0
DWIDTH 12 0
BBX 10 18 1 0
BITMAP
2000
3000
0800
0400
0000
3300
3300
0000
6180
E380
6180
6180
6180
6180
6180
6180
6380
3DC0
ENDCHAR
STARTCHAR uni01DD
ENCODING 477
SWIDTH 514 0
DWIDTH 10 0
BBX 8 10 1 0
BITMAP
3C
46
83
03
03
FF
C3
C2
66
3C
ENDCHAR
STARTCHAR uni01DE
ENCODING 478
SWIDTH 635 0
DWIDTH 12 0
BBX 13 18 -1 0
BITMAP
0FC0
0000
0CC0
0CC0
0300
0300
0700
0580
0580
0980
08C0
08C0
1FC0
1060
1060
2020
2030
F8F8
ENDCHAR
STARTCHAR uni01DF
ENCODING 479
SWIDTH 523 0
DWIDTH 10 0
BBX 10 15 1 0
BITMAP
7E00
0000
6600
6600
0000
3E00
6200
C300
0300
1F00
6300
C300
C300
4700
7BC0
ENDCHAR
STARTCHAR uni01E0
ENCODING 480
SWIDTH 635 0
DWIDTH 12 0
BBX 13 19 0 0
BITMAP
0FC0
0000
0300
0300
0000
0200
0700
0700
0500
0980
0980
0980
10C0
1FC0
10C0
2060
2060
6070
F0F8
ENDCHAR
STARTCHAR uni01E1
ENCODING 481
SWIDTH 523 0
DWIDTH 10 0
BBX 10 15 1 0
BITMAP
3F00
0000
1800
1800
0000
3E00
6200
C300
0300
1F00
6300
C300
C300
4700
7BC0
ENDCHAR
STARTCHAR uni01E2
ENCODING 482
SWIDTH 876 0
DWIDTH 17 0
BBX 18 16 -1 0
BITMAP
01F800
000000
03FF80
00E180
016080
016000
026000
066100
046100
0FFF00
086100
186000
106000
306040
606080
F9FF80
ENDCHAR
STARTCHAR uni01E3
ENCODING 483
SWIDTH 797 0
DWIDTH 15 0
BBX 14 12 1 0
BITMAP
0FC0
0000
3C70
6398
C30C
030C
0FFC
7300
C300
C304
C788
78F0
ENDCHAR
STARTCHAR uni01E4
ENCODING 484
SWIDTH 734 0
DWIDTH 14 0
BBX 14 14 1 0
BITMAP
07C0
3870
7030
6010
C000
C000
C000
C000
C0F8
C030
60FC
6030
3830
0FC0
ENDCHAR
STARTCHAR uni01E5
ENCODING 485
SWIDTH 520 0
DWIDTH 10 0
BBX 9 14 1 -4
BITMAP
3D80
6780
C300
C300
C300
6600
3C00
4000
C000
7F00
FF80
C180
E300
3C00
ENDCHAR
STARTCHAR Gcaron
ENCODING 486
SWIDTH 734 0
DWIDTH 14 0
BBX 13 19 1 0
BITMAP
1080
0900
0600
0200
0000
07C0
3870
7030
6010
C000
C000
C000
C000
C0F8
C030
6030
6030
3830
0FC0
ENDCHAR
STARTCHAR gcaron
ENCODING 487
SWIDTH 520 0
DWIDTH 10 0
BBX 9 19 1 -4
BITMAP
2100
1200
0C00
0400
0000
3D80
6780
C300
C300
C300
6600
3C00
4000
C000
7F00
4180
C180
E300
3C00
ENDCHAR
STARTCHAR uni01E8
ENCODING 488
SWIDTH 658 0
DWIDTH 13 0
BBX 13 19 0 0
BITMAP
1080
0900
0600
0200
0000
FCF8
3060
3080
3100
3200
3400
3C00
3600
3700
3380
31C0
30C0
3070
FC18
ENDCHAR
STARTCHAR uni01E9
ENCODING 489
SWIDTH 524 0
DWIDTH 10 0
BBX 10 19 1 0
BITMAP
8400
4800
3000
1000
0000
6000
E000
6000
6000
6380
6600
6C00
7800
7800
7C00
6C00
6600
6380
F1C0
ENDCHAR
STARTCHAR uni01EA
ENCODING 490
SWIDTH 762 0
DWIDTH 15 0
BBX 13 18 1 -4
BITMAP
0F80
3060
6030
6030
C018
C018
C018
C018
C018
C018
6030
6030
3060
0F80
0200
0400
0400
0300
ENDCHAR
STARTCHAR uni01EB
ENCODING 491
SWIDTH 577 0
DWIDTH 11 0
BBX 9 14 1 -4
BITMAP
3E00
6300
4100
C180
C180
C180
C180
4100
6300
3E00
0800
1000
1000
0C00
ENDCHAR
STARTCHAR uni01EC
ENCODING 492
SWIDTH 762 0
DWIDTH 15 0
BBX 13 20 1 -4
BITMAP
0FC0
0000
0F80
3060
6030
6030
C018
C018
C018
C018
C018
C018
6030
6030
3060
0F80
0200
0400
0400
0300
ENDCHAR
STARTCHAR uni01ED
ENCODING 493
SWIDTH 577 0
DWIDTH 11 0
BBX 9 16 1 -4
BITMAP
3F00
0000
3E00
6300
4100
C180
C180
C180
C180
4100
6300
3E00
0800
1000
1000
0C00
ENDCHAR
STARTCHAR uni01F0
ENCODING 496
SWIDTH 280 0
DWIDTH 5 0
BBX 6 19 -1 -4
BITMAP
84
48
30
10
00
18
38
18
18
18
18
18
18
18
18
18
10
30
C0
ENDCHAR
STARTCHAR uni01F4
ENCODING 500
SWIDTH 734 0
DWIDTH 14 0
BBX 13 19 1 0
BITMAP
0080
0180
0200
0400
0000
07C0
3870
7030
6010
C000
C000
C000
C000
C0F8
C030
6030
6030
3830
0FC0
ENDCHAR
STARTCHAR uni01F5
ENCODING 501
SWIDTH 520 0
DWIDTH 10 0
BBX 9 19 1 -4
BITMAP
0200
0600
0800
1000
0000
3D80
6780
C300
C300
C300
6600
3C00
4000
C000
7F00
4180
C180
E300
3C00
ENDCHAR
STARTCHAR uni01F8
ENCODING 504
SWIDTH 780 0
DWIDTH 15 0
BBX 15 19 0 0
BITMAP
0800
0C00
0200
0100
0000
F03E
3808
3C08
2E08
2608
2708
2388
21C8
20C8
20E8
2078
2038
2018
F818
ENDCHAR
STARTCHAR uni01F9
ENCODING 505
SWIDTH 619 0
DWIDTH 12 0
BBX 10 15 1 0
BITMAP
2000
3000
0800
0400
0000
6F00
F180
6180
6180
6180
6180
6180
6180
6180
F3C0
ENDCHAR
STARTCHAR Aringacute
ENCODING 506
SWIDTH 627 0
DWIDTH 12 0
BBX 13 22 -1 0
BITMAP
0040
00C0
0100
0200
0000
0300
0480
0480
0300
0300
0700
0580
0580
0880
08C0
08C0
1FC0
1060
1060
2020
2030
F878
ENDCHAR
STARTCHAR aringacute
ENCODING 507
SWIDTH 523 0
DWIDTH 10 0
BBX 10 20 1 0
BITMAP
0200
0600
0800
1000
0000
1800
2400
2400
1800
0000
3E00
6200
C300
0300
1F00
6300
C300
C300
4700
7BC0
ENDCHAR
STARTCHAR AEacute
ENCODING 508
SWIDTH 876 0
DWIDTH 17 0
BBX 18 19 -1 0
BITMAP
000800
001800
002000
004000
000000
03FF80
00E180
016080
016000
026000
066100
046100
0FFF00
086100
186000
106000
306040
606080
F9FF80
ENDCHAR
STARTCHAR aeacute
ENCODING 509
SWIDTH 797 0
DWIDTH 15 0
BBX 14 15 1 0
BITMAP
0040
00C0
0100
0200
0000
3C70
6398
C30C
030C
0FFC
7300
C300
C304
C788
78F0
ENDCHAR
STARTCHAR Oslashacute
ENCODING 510
SWIDTH 762 0
DWIDTH 15 0
BBX 13 21 1 -1
BITMAP
0040
00C0
0100
0200
0000
0010
0FA0
3060
6070
60B0
C098
C118
C218
C218
C418
C818
6830
7030
3060
2F80
4000
ENDCHAR
STARTCHAR oslashacute
ENCODING 511
SWIDTH 577 0
DWIDTH 11 0
BBX 9 17 1 -1
BITMAP
0200
0600
0800
1000
0000
0100
3D00
6200
4500
C580
C980
C980
D180
6100
6300
5E00
4000
ENDCHAR
STARTCHAR uni0200
ENCODING 512
SWIDTH 635 0
DWIDTH 12 0
BBX 13 19 0 0
BITMAP
1200
1A00
0B00
0500
0000
0200
0700
0700
0500
0980
0980
0980
10C0
1FC0
10C0
2060
2060
6070
F0F8
ENDCHAR
STARTCHAR uni0201
ENCODING 513
SWIDTH 523 0
DWIDTH 10 0
BBX 10 15 1 0
BITMAP
4800
6800
2C00
1400
0000
3E00
6200
C300
0300
1F00
6300
C300
C300
4700
7BC0
ENDCHAR
STARTCHAR uni0202
ENCODING 514
SWIDTH 635 0
DWIDTH 12 0
BBX 13 18 0 0
BITMAP
0780
0840
0840
0000
0200
0700
0700
0500
0980
0980
0980
10C0
1FC0
10C0
2060
2060
6070
F0F8
ENDCHAR
STARTCHAR uni0203
ENCODING 515
SWIDTH 523 0
DWIDTH 10 0
BBX 10 14 1 0
BITMAP
3C00
4200
4200
0000
3E00
6200
C300
0300
1F00
6300
C300
C300
4700
7BC0
ENDCHAR
STARTCHAR uni0204
ENCODING 516
SWIDTH 606 0
DWIDTH 12 0
BBX 12 19 0 0
BITMAP
1200
1A00
0B00
0500
0000
FFE0
3060
3020
3000
3000
3040
3040
3FC0
3040
3000
3000
3010
3020
FFE0
ENDCHAR
STARTCHAR uni0205
ENCODING 517
SWIDTH 514 0
DWIDTH 10 0
BBX 8 15 1 0
BITMAP
48
68
2C
14
00
3C
66
43
C3
FF
C0
C0
C1
62
3C
ENDCHAR
STARTCHAR uni0206
ENCODING 518
SWIDTH 606 0
DWIDTH 12 0
BBX 12 18 0 0
BITMAP
0F00
1080
1080
0000
FFE0
3060
3020
3000
3000
3040
3040
3FC0
3040
3000
3000
3010
3020
FFE0
ENDCHAR
STARTCHAR uni0207
ENCODING 519
SWIDTH 514 0
DWIDTH 10 0
BBX 8 14 1 0
BITMAP
3C
42
42
00
3C
66
43
C3
FF
C0
C0
C1
62
3C
ENDCHAR
STARTCHAR uni0208
ENCODING 520
SWIDTH 349 0
DWIDTH 7 0
BBX 6 19 0 0
BITMAP
90
D0
58
28
00
FC
30
30
30
30
30
30
30
30
30
30
30
30
FC
ENDCHAR
STARTCHAR uni0209
ENCODING 521
SWIDTH 291 0
DWIDTH 6 0
BBX 5 15 0 0
BITMAP
90
D0
58
28
00
30
70
30
30
30
30
30
30
30
78
ENDCHAR
STARTCHAR uni020A
ENCODING 522
SWIDTH 349 0
DWIDTH 7 0
BBX 6 18 0 0
BITMAP
78
84
84
00
FC
30
30
30
30
30
30
30
30
30
30
30
30
FC
ENDCHAR
STARTCHAR uni020B
ENCODING 523
SWIDTH 291 0
DWIDTH 6 0
BBX 6 14 0 0
BITMAP
78
84
84
00
30
70
30
30
30
30
30
30
30
78
ENDCHAR
STARTCHAR uni020C
ENCODING 524
SWIDTH 762 0
DWIDTH 15 0
BBX 13 19 1 0
BITMAP
1200
1A00
0B00
0500
0000
0F80
3060
6030
6030
C018
C018
C018
C018
C018
C018
6030
6030
3060
0F80
ENDCHAR
STARTCHAR uni020D
ENCODING 525
SWIDTH 577 0
DWIDTH 11 0
BBX 9 15 1 0
BITMAP
4800
6800
2C00
1400
0000
3E00
6300
4100
C180
C180
C180
C180
4100
6300
3E00
ENDCHAR
STARTCHAR uni020E
ENCODING 526
SWIDTH 762 0
DWIDTH 15 0
BBX 13 18 1 0
BITMAP
0780
0840
0840
0000
0F80
3060
6030
6030
C018
C018
C018
C018
C018
C018
6030
6030
3060
0F80
ENDCHAR
STARTCHAR uni020F
ENCODING 527
SWIDTH 577 0
DWIDTH 11 0
BBX 9 14 1 0
BITMAP
1E00
2100
2100
0000
3E00
6300
4100
C180
C180
C180
C180
4100
6300
3E00
ENDCHAR
STARTCHAR uni0210
ENCODING 528
SWIDTH 644 0
DWIDTH 13 0
BBX 12 19 0 0
BITMAP
1200
1A00
0B00
0500
0000
FF80
30C0
3060
3060
3060
3040
30C0
3F00
30C0
30C0
30C0
3060
3060
FC30
ENDCHAR
STARTCHAR uni0211
ENCODING 529
SWIDTH 389 0
DWIDTH 8 0
BBX 7 15 1 0
BITMAP
90
D0
58
28
00
6E
FC
60
60
60
60
60
60
60
F8
ENDCHAR
STARTCHAR uni0212
ENCODING 530
SWIDTH 644 0
DWIDTH 13 0
BBX 12 18 0 0
BITMAP
0F00
1080
1080
0000
FF80
30C0
3060
3060
3060
3040
30C0
3F00
30C0
30C0
30C0
3060
3060
FC30
ENDCHAR
STARTCHAR uni0213
ENCODING 531
SWIDTH 389 0
DWIDTH 8 0
BBX 7 14 1 0
BITMAP
78
84
84
00
6E
FC
60
60
60
60
60
60
60
F8
ENDCHAR
STARTCHAR uni0214
ENCODING 532
SWIDTH 791 0
DWIDTH 15 0
BBX 15 19 0 0
BITMAP
0900
0D00
0580
0280
0000
FC7E
3018
3018
3018
3018
3018
3018
3018
3018
3018
3018
1830
1C70
07C0
ENDCHAR
STARTCHAR uni0215
ENCODING 533
SWIDTH 606 0
DWIDTH 12 0
BBX 10 15 1 0
BITMAP
2400
3400
1600
0A00
0000
6180
E380
6180
6180
6180
6180
6180
6180
6380
3DC0
ENDCHAR
STARTCHAR uni0216
ENCODING 534
SWIDTH 791 0
DWIDTH 15 0
BBX 15 18 0 0
BITMAP
03C0
0420
0420
0000
FC7E
3018
3018
3018
3018
3018
3018
3018
3018
3018
3018
1830
1C70
07C0
ENDCHAR
STARTCHAR uni0217
ENCODING 535
SWIDTH 606 0
DWIDTH 12 0
BBX 10 14 1 0
BITMAP
1E00
2100
2100
0000
6180
E380
6180
6180
6180
6180
6180
6180
6380
3DC0
ENDCHAR
STARTCHAR Scommaaccent
ENCODING 536
SWIDTH 541 0
DWIDTH 11 0
BBX 9 20 1 -6
BITMAP
3E00
6300
C100
C100
E000
F000
7C00
1F00
0380
8180
8180
C180
E300
3C00
0000
0800
0C00
0C00
0800
1000
ENDCHAR
STARTCHAR scommaaccent
ENCODING 537
SWIDTH 436 0
DWIDTH 8 0
BBX 7 16 1 -6
BITMAP
38
4C
C4
E0
78
1C
86
86
C4
78
00
10
18
18
10
20
ENDCHAR
STARTCHAR Tcommaaccent
ENCODING 538
SWIDTH 621 0
DWIDTH 12 0
BBX 12 20 0 -6
BITMAP
FFF0
C630
8610
0600
0600
0600
0600
0600
0600
0600
0600
0600
0600
1F80
0000
0400
0600
0600
0400
0800
ENDCHAR
STARTCHAR tcommaaccent
ENCODING 539
SWIDTH 344 0
DWIDTH 7 0
BBX 6 18 1 -6
BITMAP
20
60
F8
60
60
60
60
60
60
60
60
3C
00
20
30
30
20
40
ENDCHAR
STARTCHAR uni021E
ENCODING 542
SWIDTH 798 0
DWIDTH 16 0
BBX 15 19 0 0
BITMAP
0840
0480
0300
0100
0000
FC7E
3018
3018
3018
3018
3018
3018
3FF8
3018
3018
3018
3018
3018
FC7E
ENDCHAR
STARTCHAR uni021F
ENCODING 543
SWIDTH 607 0
DWIDTH 12 0
BBX 10 19 1 0
BITMAP
8400
4800
3000
1000
0000
6000
E000
6000
6000
6F00
7180
6180
6180
6180
6180
6180
6180
6180
F3C0
ENDCHAR
STARTCHAR uni0226
ENCODING 550
SWIDTH 635 0
DWIDTH 12 0
BBX 13 17 0 0
BITMAP
0300
0300
0000
0200
0700
0700
0500
0980
0980
0980
10C0
1FC0
10C0
2060
2060
6070
F0F8
ENDCHAR
STARTCHAR uni0227
ENCODING 551
SWIDTH 523 0
DWIDTH 10 0
BBX 10 13 1 0
BITMAP
1800
1800
0000
3E00
6200
C300
0300
1F00
6300
C300
C300
4700
7BC0
ENDCHAR
STARTCHAR uni0228
ENCODING 552
SWIDTH 606 0
DWIDTH 12 0
BBX 12 18 0 -4
BITMAP
FFE0
3060
3020
3000
3000
3040
3040
3FC0
3040
3000
3000
3010
3020
FFE0
0600
0600
0300
0E00
ENDCHAR
STARTCHAR uni0229
ENCODING 553
SWIDTH 514 0
DWIDTH 10 0
BBX 8 14 1 -4
BITMAP
3C
66
43
C3
FF
C0
C0
C1
62
3C
18
18
0C
38
ENDCHAR
STARTCHAR uni022A
ENCODING 554
SWIDTH 762 0
DWIDTH 15 0
BBX 13 18 1 0
BITMAP
1F80
0000
1980
1980
0F80
3060
6030
6030
C018
C018
C018
C018
C018
C018
6030
6030
3060
0F80
ENDCHAR
STARTCHAR uni022B
ENCODING 555
SWIDTH 577 0
DWIDTH 11 0
BBX 9 15 1 0
BITMAP
3F00
0000
3300
3300
0000
3E00
6300
4100
C180
C180
C180
C180
4100
6300
3E00
ENDCHAR
STARTCHAR uni022C
ENCODING 556
SWIDTH 762 0
DWIDTH 15 0
BBX 13 18 1 0
BITMAP
0FC0
0000
0E40
1180
0F80
3060
6030
6030
C018
C018
C018
C018
C018
C018
6030
6030
3060
0F80
ENDCHAR
STARTCHAR uni022D
ENCODING 557
SWIDTH 577 0
DWIDTH 11 0
BBX 9 15 1 0
BITMAP
3F00
0000
3100
4E00
0000
3E00
6300
4100
C180
C180
C180
C180
4100
6300
3E00
ENDCHAR
STARTCHAR uni022E
ENCODING 558
SWIDTH 762 0
DWIDTH 15 0
BBX 13 17 1 0
BITMAP
0300
0300
0000
0F80
3060
6030
6030
C018
C018
C018
C018
C018
C018
6030
6030
3060
0F80
ENDCHAR
STARTCHAR uni022F
ENCODING 559
SWIDTH 577 0
DWIDTH 11 0
BBX 9 13 1 0
BITMAP
0C00
0C00
0000
3E00
6300
4100
C180
C180
C180
C180
4100
6300
3E00
ENDCHAR
STARTCHAR uni0230
ENCODING 560
SWIDTH 762 0
DWIDTH 15 0
BBX 13 19 1 0
BITMAP
0FC0
0000
0300
0300
0000
0F80
3060
6030
6030
C018
C018
C018
C018
C018
C018
6030
6030
3060
0F80
ENDCHAR
STARTCHAR uni0231
ENCODING 561
SWIDTH 577 0
DWIDTH 11 0
BBX 9 15 1 0
BITMAP
3F00
0000
0C00
0C00
0000
3E00
6300
4100
C180
C180
C180
C180
4100
6300
3E00
ENDCHAR
STARTCHAR uni0232
ENCODING 562
SWIDTH 588 0
DWIDTH 11 0
BBX 12 16 0 0
BITMAP
1F80
0000
F8F0
3040
3040
1880
1880
0D00
0D00
0600
0600
0600
0600
0600
0600
1F80
ENDCHAR
STARTCHAR uni0233
ENCODING 563
SWIDTH 506 0
DWIDTH 10 0
BBX 10 16 0 -4
BITMAP
3F00
0000
F3C0
6180
2100
3100
3200
1200
1A00
0C00
0C00
0C00
0800
0800
4800
7000
ENDCHAR
STARTCHAR uni0250
ENCODING 592
SWIDTH 523 0
DWIDTH 10 0
BBX 10 10 1 0
BITMAP
F780
3880
30C0
30C0
3180
3E00
3000
30C0
1180
1F00
ENDCHAR
STARTCHAR uni0254
ENCODING 596
SWIDTH 496 0
DWIDTH 10 0
BBX 8 10 1 0
BITMAP
38
C6
C2
03
03
03
03
83
C6
3C
ENDCHAR
STARTCHAR uni0258
ENCODING 600
SWIDTH 514 0
DWIDTH 10 0
BBX 8 10 1 0
BITMAP
3C
66
C2
C3
FF
03
03
83
46
3C
ENDCHAR
STARTCHAR uni0259
ENCODING 601
SWIDTH 514 0
DWIDTH 10 0
BBX 8 10 1 0
BITMAP
3C
46
83
03
03
FF
C3
C2
66
3C
ENDCHAR
STARTCHAR uni025F
ENCODING 607
SWIDTH 319 0
DWIDTH 6 0
BBX 7 14 1 -4
BITMAP
3E
0C
0C
0C
0C
0C
0C
0C
0C
3E
0C
0C
C8
70
ENDCHAR
STARTCHAR uni0265
ENCODING 613
SWIDTH 607 0
DWIDTH 12 0
BBX 10 14 1 -4
BITMAP
F3C0
6180
6180
6180
6180
6180
6180
6180
6380
3D80
0180
0180
01C0
0180
ENDCHAR
STARTCHAR uni0275
ENCODING 629
SWIDTH 577 0
DWIDTH 11 0
BBX 9 10 1 0
BITMAP
3E00
6300
4100
C180
FF80
C180
C180
4100
6300
3E00
ENDCHAR
STARTCHAR uni0279
ENCODING 633
SWIDTH 389 0
DWIDTH 8 0
BBX 7 10 1 0
BITMAP
3E
0C
0C
0C
0C
0C
0C
0C
7E
EC
ENDCHAR
STARTCHAR uni0287
ENCODING 647
SWIDTH 344 0
DWIDTH 7 0
BBX 6 12 1 0
BITMAP
F0
18
18
18
18
18
18
18
18
7C
18
10
ENDCHAR
STARTCHAR uni0288
ENCODING 648
SWIDTH 344 0
DWIDTH 7 0
BBX 6 16 1 -4
BITMAP
20
60
F8
60
60
60
60
60
60
60
60
60
60
20
30
0C
ENDCHAR
STARTCHAR uni0289
ENCODING 649
SWIDTH 606 0
DWIDTH 12 0
BBX 10 10 1 0
BITMAP
6180
E380
6180
6180
FFC0
6180
6180
6180
6380
3DC0
ENDCHAR
STARTCHAR uni028C
ENCODING 652
SWIDTH 504 0
DWIDTH 10 0
BBX 10 10 0 0
BITMAP
0C00
0C00
1600
1600
1200
2300
2300
2100
4180
F3C0
ENDCHAR
STARTCHAR uni028D
ENCODING 653
SWIDTH 768 0
DWIDTH 15 0
BBX 15 10 0 0
BITMAP
1820
1C70
1470
1450
1698
2698
2298
2308
630C
F01E
ENDCHAR
STARTCHAR uni028E
ENCODING 654
SWIDTH 506 0
DWIDTH 10 0
BBX 10 14 0 0
BITMAP
0380
0480
0400
0400
0C00
0C00
0C00
1600
1200
1300
2300
2100
6180
F3C0
ENDCHAR
STARTCHAR uni029E
ENCODING 670
SWIDTH 524 0
DWIDTH 10 0
BBX 10 14 1 -4
BITMAP
E3C0
7180
1980
0D80
0F80
0780
0780
0D80
1980
7180
0180
0180
01C0
0180
ENDCHAR
STARTCHAR uni02BB
ENCODING 699
SWIDTH 278 0
DWIDTH 5 0
BBX 3 5 1 9
BITMAP
20
40
40
C0
40
ENDCHAR
STARTCHAR afii57929
ENCODING 700
SWIDTH 278 0
DWIDTH 5 0
BBX 3 5 1 9
BITMAP
40
60
40
40
80
ENDCHAR
STARTCHAR afii64937
ENCODING 701
SWIDTH 278 0
DWIDTH 5 0
BBX 3 5 1 9
BITMAP
40
C0
40
40
20
ENDCHAR
STARTCHAR circumflex
ENCODING 710
SWIDTH 400 0
DWIDTH 8 0
BBX 6 3 1 11
BITMAP
30
78
84
ENDCHAR
STARTCHAR caron
ENCODING 711
SWIDTH 400 0
DWIDTH 8 0
BBX 6 4 1 10
BITMAP
84
48
30
10
ENDCHAR
STARTCHAR uni02C8
ENCODING 712
SWIDTH 278 0
DWIDTH 5 0
BBX 2 5 2 9
BITMAP
C0
C0
C0
80
80
ENDCHAR
STARTCHAR macron
ENCODING 713
SWIDTH 400 0
DWIDTH 8 0
BBX 6 1 1 12
BITMAP
FC
ENDCHAR
STARTCHAR uni02CA
ENCODING 714
SWIDTH 400 0
DWIDTH 8 0
BBX 4 4 3 10
BITMAP
10
30
40
80
ENDCHAR
STARTCHAR uni02CB
ENCODING 715
SWIDTH 400 0
DWIDTH 8 0
BBX 4 4 1 10
BITMAP
80
C0
20
10
ENDCHAR
STARTCHAR uni02CD
ENCODING 717
SWIDTH 400 0
DWIDTH 8 0
BBX 6 1 1 -2
BITMAP
FC
ENDCHAR
STARTCHAR uni02CE
ENCODING 718
SWIDTH 400 0
DWIDTH 8 0
BBX 4 4 1 -5
BITMAP
80
C0
20
10
ENDCHAR
STARTCHAR uni02CF
ENCODING 719
SWIDTH 400 0
DWIDTH 8 0
BBX 4 4 3 -5
BITMAP
10
30
40
80
ENDCHAR
STARTCHAR breve
ENCODING 728
SWIDTH 400 0
DWIDTH 8 0
BBX 6 3 1 11
BITMAP
84
84
78
ENDCHAR
STARTCHAR dotaccent
ENCODING 729
SWIDTH 400 0
DWIDTH 8 0
BBX 2 2 3 11
BITMAP
C0
C0
ENDCHAR
STARTCHAR ring
ENCODING 730
SWIDTH 400 0
DWIDTH 8 0
BBX 4 4 2 11
BITMAP
60
90
90
60
ENDCHAR
STARTCHAR ogonek
ENCODING 731
SWIDTH 400 0
DWIDTH 8 0
BBX 3 5 2 -4
BITMAP
40
40
80
80
60
ENDCHAR
STARTCHAR tilde
ENCODING 732
SWIDTH 400 0
DWIDTH 8 0
BBX 7 2 0 11
BITMAP
72
8C
ENDCHAR
STARTCHAR hungarumlaut
ENCODING 733
SWIDTH 400 0
DWIDTH 8 0
BBX 5 4 2 11
BITMAP
48
58
D0
A0
ENDCHAR
STARTCHAR uni02EE
ENCODING 750
SWIDTH 458 0
DWIDTH 9 0
BBX 6 5 1 9
BITMAP
CC
6C
4C
48
90
ENDCHAR
STARTCHAR uni037E
ENCODING 894
SWIDTH 265 0
DWIDTH 5 0
BBX 3 12 1 -2
BITMAP
60
E0
00
00
00
00
40
60
60
40
40
80
ENDCHAR
STARTCHAR tonos
ENCODING 900
SWIDTH 400 0
DWIDTH 8 0
BBX 4 4 3 10
BITMAP
10
30
40
80
ENDCHAR
STARTCHAR dieresistonos
ENCODING 901
SWIDTH 400 0
DWIDTH 8 0
BBX 6 7 1 11
BITMAP
04
0C
10
20
00
CC
CC
ENDCHAR
STARTCHAR anoteleia
ENCODING 903
SWIDTH 265 0
DWIDTH 5 0
BBX 2 2 2 4
BITMAP
C0
C0
ENDCHAR
STARTCHAR mu
ENCODING 956
SWIDTH 606 0
DWIDTH 12 0
BBX 10 14 1 -4
BITMAP
6180
E380
6180
6180
6180
6180
6180
6180
6380
5DC0
4000
6000
6000
6000
ENDCHAR
STARTCHAR uni1E00
ENCODING 7680
SWIDTH 635 0
DWIDTH 12 0
BBX 13 19 0 -5
BITMAP
0200
0700
0700
0500
0980
0980
0980
10C0
1FC0
10C0
2060
2060
6070
F0F8
0000
0300
0480
0480
0300
ENDCHAR
STARTCHAR uni1E01
ENCODING 7681
SWIDTH 523 0
DWIDTH 10 0
BBX 10 15 1 -5
BITMAP
3E00
6200
C300
0300
1F00
6300
C300
C300
4700
7BC0
0000
0C00
1200
1200
0C00
ENDCHAR
STARTCHAR uni1E02
ENCODING 7682
SWIDTH 646 0
DWIDTH 13 0
BBX 12 17 0 0
BITMAP
0600
0600
0000
FF80
30C0
3060
3060
3060
30C0
3F80
30E0
3030
3030
3030
3030
3060
FF80
ENDCHAR
STARTCHAR uni1E03
ENCODING 7683
SWIDTH 598 0
DWIDTH 12 0
BBX 10 17 1 0
BITMAP
3000
3000
0000
6000
E000
6000
6000
6F00
7180
60C0
60C0
60C0
60C0
60C0
6080
7180
5E00
ENDCHAR
STARTCHAR uni1E04
ENCODING 7684
SWIDTH 646 0
DWIDTH 13 0
BBX 12 17 0 -3
BITMAP
FF80
30C0
3060
3060
3060
30C0
3F80
30E0
3030
3030
3030
3030
3060
FF80
0000
0600
0600
ENDCHAR
STARTCHAR uni1E05
ENCODING 7685
SWIDTH 598 0
DWIDTH 12 0
BBX 10 17 1 -3
BITMAP
6000
E000
6000
6000
6F00
7180
60C0
60C0
60C0
60C0
60C0
6080
7180
5E00
0000
0C00
0C00
ENDCHAR
STARTCHAR uni1E06
ENCODING 7686
SWIDTH 646 0
DWIDTH 13 0
BBX 12 16 0 -2
BITMAP
FF80
30C0
3060
3060
3060
30C0
3F80
30E0
3030
3030
3030
3030
3060
FF80
0000
1F80
ENDCHAR
STARTCHAR uni1E07
ENCODING 7687
SWIDTH 598 0
DWIDTH 12 0
BBX 10 16 1 -2
BITMAP
6000
E000
6000
6000
6F00
7180
60C0
60C0
60C0
60C0
60C0
6080
7180
5E00
0000
3F00
ENDCHAR
STARTCHAR uni1E08
ENCODING 7688
SWIDTH 680 0
DWIDTH 13 0
BBX 12 23 1 -4
BITMAP
0080
0180
0200
0400
0000
07C0
1830
7010
6010
C000
C000
C000
C000
C000
C000
6010
7030
3870
0FC0
0200
0300
0180
0700
ENDCHAR
STARTCHAR uni1E09
ENCODING 7689
SWIDTH 496 0
DWIDTH 10 0
BBX 8 19 1 -4
BITMAP
02
06
08
10
00
3C
67
43
C0
C0
C0
C0
C1
62
3C
10
18
0C
18
ENDCHAR
STARTCHAR uni1E0A
ENCODING 7690
SWIDTH 779 0
DWIDTH 15 0
BBX 14 17 0 0
BITMAP
0300
0300
0000
FFC0
3070
3018
3018
300C
300C
300C
300C
300C
3008
3018
3010
3070
FFC0
ENDCHAR
STARTCHAR uni1E0B
ENCODING 7691
SWIDTH 598 0
DWIDTH 12 0
BBX 10 17 1 0
BITMAP
0300
0300
0000
0180
0380
0180
0180
1D80
6380
4180
C180
C180
C180
C180
E180
6380
3DC0
ENDCHAR
STARTCHAR uni1E0C
ENCODING 7692
SWIDTH 779 0
DWIDTH 15 0
BBX 14 17 0 -3
BITMAP
FFC0
3070
3018
3018
300C
300C
300C
300C
300C
3008
3018
3010
3070
FFC0
0000
0600
0600
ENDCHAR
STARTCHAR uni1E0D
ENCODING 7693
SWIDTH 598 0
DWIDTH 12 0
BBX 10 17 1 -3
BITMAP
0180
0380
0180
0180
1D80
6380
4180
C180
C180
C180
C180
E180
6380
3DC0
0000
0C00
0C00
ENDCHAR
STARTCHAR uni1E0E
ENCODING 7694
SWIDTH 779 0
DWIDTH 15 0
BBX 14 16 0 -2
BITMAP
FFC0
3070
3018
3018
300C
300C
300C
300C
300C
3008
3018
3010
3070
FFC0
0000
1F80
ENDCHAR
STARTCHAR uni1E0F
ENCODING 7695
SWIDTH 598 0
DWIDTH 12 0
BBX 10 16 1 -2
BITMAP
0180
0380
0180
0180
1D80
6380
4180
C180
C180
C180
C180
E180
6380
3DC0
0000
3F00
ENDCHAR
STARTCHAR uni1E10
ENCODING 7696
SWIDTH 779 0
DWIDTH 15 0
BBX 14 18 0 -4
BITMAP
FFC0
3070
3018
3018
300C
300C
300C
300C
300C
3008
3018
3010
3070
FFC0
0600
0600
0300
0E00
ENDCHAR
STARTCHAR uni1E11
ENCODING 7697
SWIDTH 598 0
DWIDTH 12 0
BBX 10 18 1 -4
BITMAP
0180
0380
0180
0180
1D80
6380
4180
C180
C180
C180
C180
E180
6380
3DC0
0C00
0C00
0600
1C00
ENDCHAR
STARTCHAR uni1E12
ENCODING 7698
SWIDTH 779 0
DWIDTH 15 0
BBX 14 18 0 -4
BITMAP
FFC0
3070
3018
3018
300C
300C
300C
300C
300C
3008
3018
3010
3070
FFC0
0000
0600
0F00
1080
ENDCHAR
STARTCHAR uni1E13
ENCODING 7699
SWIDTH 598 0
DWIDTH 12 0
BBX 10 18 1 -4
BITMAP
0180
0380
0180
0180
1D80
6380
4180
C180
C180
C180
C180
E180
6380
3DC0
0000
0C00
1E00
2100
ENDCHAR
STARTCHAR uni1E14
ENCODING 7700
SWIDTH 606 0
DWIDTH 12 0
BBX 12 21 0 0
BITMAP
1000
1800
0400
0200
0000
1F80
0000
FFE0
3060
3020
3000
3000
3040
3040
3FC0
3040
3000
3000
3010
3020
FFE0
ENDCHAR
STARTCHAR uni1E15
ENCODING 7701
SWIDTH 514 0
DWIDTH 10 0
BBX 8 17 1 0
BITMAP
40
60
10
08
00
7E
00
3C
66
43
C3
FF
C0
C0
C1
62
3C
ENDCHAR
STARTCHAR uni1E16
ENCODING 7702
SWIDTH 606 0
DWIDTH 12 0
BBX 12 21 0 0
BITMAP
0080
0180
0200
0400
0000
1F80
0000
FFE0
3060
3020
3000
3000
3040
3040
3FC0
3040
3000
3000
3010
3020
FFE0
ENDCHAR
STARTCHAR uni1E17
ENCODING 7703
SWIDTH 514 0
DWIDTH 10 0
BBX 8 17 1 0
BITMAP
02
06
08
10
00
7E
00
3C
66
43
C3
FF
C0
C0
C1
62
3C
ENDCHAR
STARTCHAR uni1E18
ENCODING 7704
SWIDTH 606 0
DWIDTH 12 0
BBX 12 18 0 -4
BITMAP
FFE0
3060
3020
3000
3000
3040
3040
3FC0
3040
3000
3000
3010
3020
FFE0
0000
0600
0F00
1080
ENDCHAR
STARTCHAR uni1E19
ENCODING 7705
SWIDTH 514 0
DWIDTH 10 0
BBX 8 14 1 -4
BITMAP
3C
66
43
C3
FF
C0
C0
C1
62
3C
00
18
3C
42
ENDCHAR
STARTCHAR uni1E1A
ENCODING 7706
SWIDTH 606 0
DWIDTH 12 0
BBX 12 17 0 -3
BITMAP
FFE0
3060
3020
3000
3000
3040
3040
3FC0
3040
3000
3000
3010
3020
FFE0
0000
1C80
2300
ENDCHAR
STARTCHAR uni1E1B
ENCODING 7707
SWIDTH 514 0
DWIDTH 10 0
BBX 8 13 1 -3
BITMAP
3C
66
43
C3
FF
C0
C0
C1
62
3C
00
72
8C
ENDCHAR
STARTCHAR uni1E1C
ENCODING 7708
SWIDTH 606 0
DWIDTH 12 0
BBX 12 22 0 -4
BITMAP
2100
2100
1E00
0000
FFE0
3060
3020
3000
3000
3040
3040
3FC0
3040
3000
3000
3010
3020
FFE0
0600
0600
0300
0E00
ENDCHAR
STARTCHAR uni1E1D
ENCODING 7709
SWIDTH 514 0
DWIDTH 10 0
BBX 8 18 1 -4
BITMAP
42
42
3C
00
3C
66
43
C3
FF
C0
C0
C1
62
3C
18
18
0C
38
ENDCHAR
STARTCHAR uni1E1E
ENCODING 7710
SWIDTH 580 0
DWIDTH 11 0
BBX 11 17 0 0
BITMAP
0C00
0C00
0000
FFE0
3060
3020
3000
3000
3040
3040
3FC0
3040
3000
3000
3000
3000
FC00
ENDCHAR
STARTCHAR uni1E1F
ENCODING 7711
SWIDTH 319 0
DWIDTH 6 0
BBX 7 17 1 0
BITMAP
18
18
00
1C
26
60
60
F8
60
60
60
60
60
60
60
60
F8
ENDCHAR
STARTCHAR uni1E20
ENCODING 7712
SWIDTH 734 0
DWIDTH 14 0
BBX 13 16 1 0
BITMAP
0FC0
0000
07C0
3870
7030
6010
C000
C000
C000
C000
C0F8
C030
6030
6030
3830
0FC0
ENDCHAR
STARTCHAR uni1E21
ENCODING 7713
SWIDTH 520 0
DWIDTH 10 0
BBX 9 16 1 -4
BITMAP
3F00
0000
3D80
6780
C300
C300
C300
6600
3C00
4000
C000
7F00
4180
C180
E300
3C00
ENDCHAR
STARTCHAR uni1E22
ENCODING 7714
SWIDTH 798 0
DWIDTH 16 0
BBX 15 17 0 0
BITMAP
0180
0180
0000
FC7E
3018
3018
3018
3018
3018
3018
3FF8
3018
3018
3018
3018
3018
FC7E
ENDCHAR
STARTCHAR uni1E23
ENCODING 7715
SWIDTH 607 0
DWIDTH 12 0
BBX 10 17 1 0
BITMAP
3000
3000
0000
6000
E000
6000
6000
6F00
7180
6180
6180
6180
6180
6180
6180
6180
F3C0
ENDCHAR
STARTCHAR uni1E24
ENCODING 7716
SWIDTH 798 0
DWIDTH 16 0
BBX 15 17 0 -3
BITMAP
FC7E
3018
3018
3018
3018
3018
3018
3FF8
3018
3018
3018
3018
3018
FC7E
0000
0180
0180
ENDCHAR
STARTCHAR uni1E25
ENCODING 7717
SWIDTH 607 0
DWIDTH 12 0
BBX 10 17 1 -3
BITMAP
6000
E000
6000
6000
6F00
7180
6180
6180
6180
6180
6180
6180
6180
F3C0
0000
0C00
0C00
ENDCHAR
STARTCHAR uni1E26
ENCODING 7718
SWIDTH 798 0
DWIDTH 16 0
BBX 15 17 0 0
BITMAP
0660
0660
0000
FC7E
3018
3018
3018
3018
3018
3018
3FF8
3018
3018
3018
3018
3018
FC7E
ENDCHAR
STARTCHAR uni1E27
ENCODING 7719
SWIDTH 607 0
DWIDTH 12 0
BBX 10 17 1 0
BITMAP
CC00
CC00
0000
6000
E000
6000
6000
6F00
7180
6180
6180
6180
6180
6180
6180
6180
F3C0
ENDCHAR
STARTCHAR uni1E28
ENCODING 7720
SWIDTH 798 0
DWIDTH 16 0
BBX 15 18 0 -4
BITMAP
FC7E
3018
3018
3018
3018
3018
3018
3FF8
3018
3018
3018
3018
3018
FC7E
0180
0180
00C0
0380
ENDCHAR
STARTCHAR uni1E29
ENCODING 7721
SWIDTH 607 0
DWIDTH 12 0
BBX 10 18 1 -4
BITMAP
6000
E000
6000
6000
6F00
7180
6180
6180
6180
6180
6180
6180
6180
F3C0
0C00
0C00
0600
1C00
ENDCHAR
STARTCHAR uni1E2A
ENCODING 7722
SWIDTH 798 0
DWIDTH 16 0
BBX 15 18 0 -4
BITMAP
FC7E
3018
3018
3018
3018
3018
3018
3FF8
3018
3018
3018
3018
3018
FC7E
0000
0420
0420
03C0
ENDCHAR
STARTCHAR uni1E2B
ENCODING 7723
SWIDTH 607 0
DWIDTH 12 0
BBX 10 18 1 -4
BITMAP
6000
E000
6000
6000
6F00
7180
6180
6180
6180
6180
6180
6180
6180
F3C0
0000
2100
2100
1E00
ENDCHAR
STARTCHAR uni1E2C
ENCODING 7724
SWIDTH 349 0
DWIDTH 7 0
BBX 7 17 0 -3
BITMAP
FC
30
30
30
30
30
30
30
30
30
30
30
30
FC
00
72
8C
ENDCHAR
STARTCHAR uni1E2D
ENCODING 7725
SWIDTH 291 0
DWIDTH 6 0
BBX 7 17 0 -3
BITMAP
20
70
00
00
30
70
30
30
30
30
30
30
30
78
00
72
8C
ENDCHAR
STARTCHAR uni1E2E
ENCODING 7726
SWIDTH 349 0
DWIDTH 7 0
BBX 6 21 0 0
BITMAP
04
0C
10
20
00
CC
CC
FC
30
30
30
30
30
30
30
30
30
30
30
30
FC
ENDCHAR
STARTCHAR uni1E2F
ENCODING 7727
SWIDTH 291 0
DWIDTH 6 0
BBX 6 18 0 0
BITMAP
04
0C
10
20
00
CC
CC
00
30
70
30
30
30
30
30
30
30
78
ENDCHAR
STARTCHAR uni1E30
ENCODING 7728
SWIDTH 658 0
DWIDTH 13 0
BBX 13 19 0 0
BITMAP
0080
0180
0200
0400
0000
FCF8
3060
3080
3100
3200
3400
3C00
3600
3700
3380
31C0
30C0
3070
FC18
ENDCHAR
STARTCHAR uni1E31
ENCODING 7729
SWIDTH 524 0
DWIDTH 10 0
BBX 10 19 1 0
BITMAP
0400
0C00
1000
2000
0000
6000
E000
6000
6000
6380
6600
6C00
7800
7800
7C00
6C00
6600
6380
F1C0
ENDCHAR
STARTCHAR uni1E32
ENCODING 7730
SWIDTH 658 0
DWIDTH 13 0
BBX 13 17 0 -3
BITMAP
FCF8
3060
3080
3100
3200
3400
3C00
3600
3700
3380
31C0
30C0
3070
FC18
0000
0600
0600
ENDCHAR
STARTCHAR uni1E33
ENCODING 7731
SWIDTH 524 0
DWIDTH 10 0
BBX 10 17 1 -3
BITMAP
6000
E000
6000
6000
6380
6600
6C00
7800
7800
7C00
6C00
6600
6380
F1C0
0000
0C00
0C00
ENDCHAR
STARTCHAR uni1E34
ENCODING 7732
SWIDTH 658 0
DWIDTH 13 0
BBX 13 16 0 -2
BITMAP
FCF8
3060
3080
3100
3200
3400
3C00
3600
3700
3380
31C0
30C0
3070
FC18
0000
1F80
ENDCHAR
STARTCHAR uni1E35
ENCODING 7733
SWIDTH 524 0
DWIDTH 10 0
BBX 10 16 1 -2
BITMAP
6000
E000
6000
6000
6380
6600
6C00
7800
7800
7C00
6C00
6600
6380
F1C0
0000
3F00
ENDCHAR
STARTCHAR uni1E36
ENCODING 7734
SWIDTH 568 0
DWIDTH 11 0
BBX 11 17 0 -3
BITMAP
FC00
3000
3000
3000
3000
3000
3000
3000
3000
3000
3020
3020
3040
FFC0
0000
0C00
0C00
ENDCHAR
STARTCHAR uni1E37
ENCODING 7735
SWIDTH 279 0
DWIDTH 5 0
BBX 4 17 1 -3
BITMAP
60
E0
60
60
60
60
60
60
60
60
60
60
60
F0
00
60
60
ENDCHAR
STARTCHAR uni1E38
ENCODING 7736
SWIDTH 568 0
DWIDTH 11 0
BBX 11 19 0 -3
BITMAP
7E00
0000
FC00
3000
3000
3000
3000
3000
3000
3000
3000
3000
3020
3020
3040
FFC0
0000
0C00
0C00
ENDCHAR
STARTCHAR uni1E39
ENCODING 7737
SWIDTH 279 0
DWIDTH 5 0
BBX 6 19 0 -3
BITMAP
FC
00
30
70
30
30
30
30
30
30
30
30
30
30
30
78
00
30
30
ENDCHAR
STARTCHAR uni1E3A
ENCODING 7738
SWIDTH 568 0
DWIDTH 11 0
BBX 11 16 0 -2
BITMAP
FC00
3000
3000
3000
3000
3000
3000
3000
3000
3000
3020
3020
3040
FFC0
0000
3F00
ENDCHAR
STARTCHAR uni1E3B
ENCODING 7739
SWIDTH 279 0
DWIDTH 5 0
BBX 6 16 0 -2
BITMAP
30
70
30
30
30
30
30
30
30
30
30
30
30
78
00
FC
ENDCHAR
STARTCHAR uni1E3C
ENCODING 7740
SWIDTH 568 0
DWIDTH 11 0
BBX 11 18 0 -4
BITMAP
FC00
3000
3000
3000
3000
3000
3000
3000
3000
3000
3020
3020
3040
FFC0
0000
0C00
1E00
2100
ENDCHAR
STARTCHAR uni1E3D
ENCODING 7741
SWIDTH 279 0
DWIDTH 5 0
BBX 6 18 0 -4
BITMAP
30
70
30
30
30
30
30
30
30
30
30
30
30
78
00
30
78
84
ENDCHAR
STARTCHAR uni1E3E
ENCODING 7742
SWIDTH 944 0
DWIDTH 18 0
BBX 18 19 0 0
BITMAP
001000
003000
004000
008000
000000
F003C0
380700
380700
2C0B00
2C0B00
261300
261300
271300
232300
23A300
21C300
21C300
208300
F88FC0
ENDCHAR
STARTCHAR uni1E3F
ENCODING 7743
SWIDTH 923 0
DWIDTH 18 0
BBX 16 15 1 0
BITMAP
0040
00C0
0100
0200
0000
6F3C
F1C6
6186
6186
6186
6186
6186
6186
6186
F3CF
ENDCHAR
STARTCHAR uni1E40
ENCODING 7744
SWIDTH 944 0
DWIDTH 18 0
BBX 18 17 0 0
BITMAP
00C000
00C000
000000
F003C0
380700
380700
2C0B00
2C0B00
261300
261300
271300
232300
23A300
21C300
21C300
208300
F88FC0
ENDCHAR
STARTCHAR uni1E41
ENCODING 7745
SWIDTH 923 0
DWIDTH 18 0
BBX 16 13 1 0
BITMAP
0180
0180
0000
6F3C
F1C6
6186
6186
6186
6186
6186
6186
6186
F3CF
ENDCHAR
STARTCHAR uni1E42
ENCODING 7746
SWIDTH 944 0
DWIDTH 18 0
BBX 18 17 0 -3
BITMAP
F003C0
380700
380700
2C0B00
2C0B00
261300
261300
271300
232300
23A300
21C300
21C300
208300
F88FC0
000000
00C000
00C000
ENDCHAR
STARTCHAR uni1E43
ENCODING 7747
SWIDTH 923 0
DWIDTH 18 0
BBX 16 13 1 -3
BITMAP
6F3C
F1C6
6186
6186
6186
6186
6186
6186
6186
F3CF
0000
0180
0180
ENDCHAR
STARTCHAR uni1E44
ENCODING 7748
SWIDTH 780 0
DWIDTH 15 0
BBX 15 17 0 0
BITMAP
0300
0300
0000
F03E
3808
3C08
2E08
2608
2708
2388
21C8
20C8
20E8
2078
2038
2018
F818
ENDCHAR
STARTCHAR uni1E45
ENCODING 7749
SWIDTH 619 0
DWIDTH 12 0
BBX 10 13 1 0
BITMAP
0C00
0C00
0000
6F00
F180
6180
6180
6180
6180
6180
6180
6180
F3C0
ENDCHAR
STARTCHAR uni1E46
ENCODING 7750
SWIDTH 780 0
DWIDTH 15 0
BBX 15 17 0 -3
BITMAP
F03E
3808
3C08
2E08
2608
2708
2388
21C8
20C8
20E8
2078
2038
2018
F818
0000
0180
0180
ENDCHAR
STARTCHAR uni1E47
ENCODING 7751
SWIDTH 619 0
DWIDTH 12 0
BBX 10 13 1 -3
BITMAP
6F00
F180
6180
6180
6180
6180
6180
6180
6180
F3C0
0000
0C00
0C00
ENDCHAR
STARTCHAR uni1E48
ENCODING 7752
SWIDTH 780 0
DWIDTH 15 0
BBX 15 16 0 -2
BITMAP
F03E
3808
3C08
2E08
2608
2708
2388
21C8
20C8
20E8
2078
2038
2018
F818
0000
07E0
ENDCHAR
STARTCHAR uni1E49
ENCODING 7753
SWIDTH 619 0
DWIDTH 12 0
BBX 10 12 1 -2
BITMAP
6F00
F180
6180
6180
6180
6180
6180
6180
6180
F3C0
0000
3F00
ENDCHAR
STARTCHAR uni1E4A
ENCODING 7754
SWIDTH 780 0
DWIDTH 15 0
BBX 15 18 0 -4
BITMAP
F03E
3808
3C08
2E08
2608
2708
2388
21C8
20C8
20E8
2078
2038
2018
F818
0000
0180
03C0
0420
ENDCHAR
STARTCHAR uni1E4B
ENCODING 7755
SWIDTH 619 0
DWIDTH 12 0
BBX 10 14 1 -4
BITMAP
6F00
F180
6180
6180
6180
6180
6180
6180
6180
F3C0
0000
0C00
1E00
2100
ENDCHAR
STARTCHAR uni1E4C
ENCODING 7756
SWIDTH 762 0
DWIDTH 15 0
BBX 13 21 1 0
BITMAP
0080
0180
0200
0400
0000
0E40
1180
0F80
3060
6030
6030
C018
C018
C018
C018
C018
C018
6030
6030
3060
0F80
ENDCHAR
STARTCHAR uni1E4D
ENCODING 7757
SWIDTH 577 0
DWIDTH 11 0
BBX 9 18 1 0
BITMAP
0200
0600
0800
1000
0000
3100
4E00
0000
3E00
6300
4100
C180
C180
C180
C180
4100
6300
3E00
ENDCHAR
STARTCHAR uni1E4E
ENCODING 7758
SWIDTH 762 0
DWIDTH 15 0
BBX 13 19 1 0
BITMAP
0CC0
0CC0
0000
0E40
1180
0F80
3060
6030
6030
C018
C018
C018
C018
C018
C018
6030
6030
3060
0F80
ENDCHAR
STARTCHAR uni1E4F
ENCODING 7759
SWIDTH 577 0
DWIDTH 11 0
BBX 9 16 1 0
BITMAP
3300
3300
0000
3100
4E00
0000
3E00
6300
4100
C180
C180
C180
C180
4100
6300
3E00
ENDCHAR
STARTCHAR uni1E50
ENCODING 7760
SWIDTH 762 0
DWIDTH 15 0
BBX 13 21 1 0
BITMAP
0800
0C00
0200
0100
0000
0FC0
0000
0F80
3060
6030
6030
C018
C018
C018
C018
C018
C018
6030
6030
3060
0F80
ENDCHAR
STARTCHAR uni1E51
ENCODING 7761
SWIDTH 577 0
DWIDTH 11 0
BBX 9 17 1 0
BITMAP
2000
3000
0800
0400
0000
3F00
0000
3E00
6300
4100
C180
C180
C180
C180
4100
6300
3E00
ENDCHAR
STARTCHAR uni1E52
ENCODING 7762
SWIDTH 762 0
DWIDTH 15 0
BBX 13 21 1 0
BITMAP
0080
0180
0200
0400
0000
0FC0
0000
0F80
3060
6030
6030
C018
C018
C018
C018
C018
C018
6030
6030
3060
0F80
ENDCHAR
STARTCHAR uni1E53
ENCODING 7763
SWIDTH 577 0
DWIDTH 11 0
BBX 9 17 1 0
BITMAP
0200
0600
0800
1000
0000
3F00
0000
3E00
6300
4100
C180
C180
C180
C180
4100
6300
3E00
ENDCHAR
STARTCHAR uni1E54
ENCODING 7764
SWIDTH 600 0
DWIDTH 12 0
BBX 11 19 0 0
BITMAP
0100
0300
0400
0800
0000
FF00
30C0
3060
3060
3060
3060
3040
30C0
3F00
3000
3000
3000
3000
FC00
ENDCHAR
STARTCHAR uni1E55
ENCODING 7765
SWIDTH 608 0
DWIDTH 12 0
BBX 10 19 1 -4
BITMAP
0100
0300
0400
0800
0000
6F00
F180
60C0
60C0
60C0
60C0
60C0
6080
7180
6E00
6000
6000
6000
F800
ENDCHAR
STARTCHAR uni1E56
ENCODING 7766
SWIDTH 600 0
DWIDTH 12 0
BBX 11 17 0 0
BITMAP
0C00
0C00
0000
FF00
30C0
3060
3060
3060
3060
3040
30C0
3F00
3000
3000
3000
3000
FC00
ENDCHAR
STARTCHAR uni1E57
ENCODING 7767
SWIDTH 608 0
DWIDTH 12 0
BBX 10 17 1 -4
BITMAP
0C00
0C00
0000
6F00
F180
60C0
60C0
60C0
60C0
60C0
6080
7180
6E00
6000
6000
6000
F800
ENDCHAR
STARTCHAR uni1E58
ENCODING 7768
SWIDTH 644 0
DWIDTH 13 0
BBX 12 17 0 0
BITMAP
0600
0600
0000
FF80
30C0
3060
3060
3060
3040
30C0
3F00
30C0
30C0
30C0
3060
3060
FC30
ENDCHAR
STARTCHAR uni1E59
ENCODING 7769
SWIDTH 389 0
DWIDTH 8 0
BBX 7 13 1 0
BITMAP
30
30
00
6E
FC
60
60
60
60
60
60
60
F8
ENDCHAR
STARTCHAR uni1E5A
ENCODING 7770
SWIDTH 644 0
DWIDTH 13 0
BBX 12 17 0 -3
BITMAP
FF80
30C0
3060
3060
3060
3040
30C0
3F00
30C0
30C0
30C0
3060
3060
FC30
0000
0600
0600
ENDCHAR
STARTCHAR uni1E5B
ENCODING 7771
SWIDTH 389 0
DWIDTH 8 0
BBX 7 13 1 -3
BITMAP
6E
FC
60
60
60
60
60
60
60
F8
00
30
30
ENDCHAR
STARTCHAR uni1E5C
ENCODING 7772
SWIDTH 644 0
DWIDTH 13 0
BBX 12 19 0 -3
BITMAP
1F80
0000
FF80
30C0
3060
3060
3060
3040
30C0
3F00
30C0
30C0
30C0
3060
3060
FC30
0000
0600
0600
ENDCHAR
STARTCHAR uni1E5D
ENCODING 7773
SWIDTH 389 0
DWIDTH 8 0
BBX 7 15 1 -3
BITMAP
FC
00
6E
FC
60
60
60
60
60
60
60
F8
00
30
30
ENDCHAR
STARTCHAR uni1E5E
ENCODING 7774
SWIDTH 644 0
DWIDTH 13 0
BBX 12 16 0 -2
BITMAP
FF80
30C0
3060
3060
3060
3040
30C0
3F00
30C0
30C0
30C0
3060
3060
FC30
0000
1F80
ENDCHAR
STARTCHAR uni1E5F
ENCODING 7775
SWIDTH 389 0
DWIDTH 8 0
BBX 7 12 1 -2
BITMAP
6E
FC
60
60
60
60
60
60
60
F8
00
FC
ENDCHAR
STARTCHAR uni1E60
ENCODING 7776
SWIDTH 541 0
DWIDTH 11 0
BBX 9 17 1 0
BITMAP
1800
1800
0000
3E00
6300
C100
C100
E000
F000
7C00
1F00
0380
8180
8180
C180
E300
3C00
ENDCHAR
STARTCHAR uni1E61
ENCODING 7777
SWIDTH 436 0
DWIDTH 8 0
BBX 7 13 1 0
BITMAP
30
30
00
38
4C
C4
E0
78
1C
86
86
C4
78
ENDCHAR
STARTCHAR uni1E62
ENCODING 7778
SWIDTH 541 0
DWIDTH 11 0
BBX 9 17 1 -3
BITMAP
3E00
6300
C100
C100
E000
F000
7C00
1F00
0380
8180
8180
C180
E300
3C00
0000
1800
1800
ENDCHAR
STARTCHAR uni1E63
ENCODING 7779
SWIDTH 436 0
DWIDTH 8 0
BBX 7 13 1 -3
BITMAP
38
4C
C4
E0
78
1C
86
86
C4
78
00
30
30
ENDCHAR
STARTCHAR uni1E64
ENCODING 7780
SWIDTH 541 0
DWIDTH 11 0
BBX 9 22 1 0
BITMAP
0C00
0C00
0000
0200
0600
0800
1000
0000
3E00
6300
C100
C100
E000
F000
7C00
1F00
0380
8180
8180
C180
E300
3C00
ENDCHAR
STARTCHAR uni1E65
ENCODING 7781
SWIDTH 436 0
DWIDTH 8 0
BBX 7 18 1 0
BITMAP
18
18
00
04
0C
10
20
00
38
4C
C4
E0
78
1C
86
86
C4
78
ENDCHAR
STARTCHAR uni1E66
ENCODING 7782
SWIDTH 541 0
DWIDTH 11 0
BBX 9 20 1 0
BITMAP
1800
1800
0000
6200
1C00
0800
3E00
6300
C100
C100
E000
F000
7C00
1F00
0380
0180
8180
C180
E300
3C00
ENDCHAR
STARTCHAR uni1E67
ENCODING 7783
SWIDTH 436 0
DWIDTH 8 0
BBX 7 17 1 0
BITMAP
30
30
00
84
48
30
20
38
4C
C4
E0
78
1C
86
86
C4
78
ENDCHAR
STARTCHAR uni1E68
ENCODING 7784
SWIDTH 541 0
DWIDTH 11 0
BBX 9 20 1 -3
BITMAP
1800
1800
0000
3E00
6300
C100
C100
E000
F000
7C00
1F00
0380
8180
8180
C180
E300
3C00
0000
1800
1800
ENDCHAR
STARTCHAR uni1E69
ENCODING 7785
SWIDTH 436 0
DWIDTH 8 0
BBX 7 16 1 -3
BITMAP
30
30
00
38
4C
C4
E0
78
1C
86
86
C4
78
00
30
30
ENDCHAR
STARTCHAR uni1E6A
ENCODING 7786
SWIDTH 621 0
DWIDTH 12 0
BBX 12 17 0 0
BITMAP
0600
0600
0000
FFF0
C630
8610
0600
0600
0600
0600
0600
0600
0600
0600
0600
0600
1F80
ENDCHAR
STARTCHAR uni1E6B
ENCODING 7787
SWIDTH 344 0
DWIDTH 7 0
BBX 6 15 1 0
BITMAP
30
30
00
20
60
F8
60
60
60
60
60
60
60
60
3C
ENDCHAR
STARTCHAR uni1E6C
ENCODING 7788
SWIDTH 621 0
DWIDTH 12 0
BBX 12 17 0 -3
BITMAP
FFF0
C630
8610
0600
0600
0600
0600
0600
0600
0600
0600
0600
0600
1F80
0000
0600
0600
ENDCHAR
STARTCHAR uni1E6D
ENCODING 7789
SWIDTH 344 0
DWIDTH 7 0
BBX 6 15 1 -3
BITMAP
20
60
F8
60
60
60
60
60
60
60
60
3C
00
30
30
ENDCHAR
STARTCHAR uni1E6E
ENCODING 7790
SWIDTH 621 0
DWIDTH 12 0
BBX 12 16 0 -2
BITMAP
FFF0
C630
8610
0600
0600
0600
0600
0600
0600
0600
0600
0600
0600
1F80
0000
1F80
ENDCHAR
STARTCHAR uni1E6F
ENCODING 7791
SWIDTH 344 0
DWIDTH 7 0
BBX 6 14 1 -2
BITMAP
20
60
F8
60
60
60
60
60
60
60
60
3C
00
FC
ENDCHAR
STARTCHAR uni1E70
ENCODING 7792
SWIDTH 621 0
DWIDTH 12 0
BBX 12 18 0 -4
BITMAP
FFF0
C630
8610
0600
0600
0600
0600
0600
0600
0600
0600
0600
0600
1F80
0000
0600
0F00
1080
ENDCHAR
STARTCHAR uni1E71
ENCODING 7793
SWIDTH 344 0
DWIDTH 7 0
BBX 6 16 1 -4
BITMAP
20
60
F8
60
60
60
60
60
60
60
60
3C
00
30
78
84
ENDCHAR
STARTCHAR uni1E72
ENCODING 7794
SWIDTH 791 0
DWIDTH 15 0
BBX 15 17 0 -3
BITMAP
FC7E
3018
3018
3018
3018
3018
3018
3018
3018
3018
3018
1830
1C70
07C0
0000
0660
0660
ENDCHAR
STARTCHAR uni1E73
ENCODING 7795
SWIDTH 606 0
DWIDTH 12 0
BBX 10 13 1 -3
BITMAP
6180
E380
6180
6180
6180
6180
6180
6180
6380
3DC0
0000
3300
3300
ENDCHAR
STARTCHAR uni1E74
ENCODING 7796
SWIDTH 791 0
DWIDTH 15 0
BBX 15 17 0 -3
BITMAP
FC7E
3018
3018
3018
3018
3018
3018
3018
3018
3018
3018
1830
1C70
07C0
0000
0720
08C0
ENDCHAR
STARTCHAR uni1E75
ENCODING 7797
SWIDTH 606 0
DWIDTH 12 0
BBX 10 13 1 -3
BITMAP
6180
E380
6180
6180
6180
6180
6180
6180
6380
3DC0
0000
1C80
2300
ENDCHAR
STARTCHAR uni1E76
ENCODING 7798
SWIDTH 791 0
DWIDTH 15 0
BBX 15 18 0 -4
BITMAP
FC7E
3018
3018
3018
3018
3018
3018
3018
3018
3018
3018
1830
1C70
07C0
0000
0180
03C0
0420
ENDCHAR
STARTCHAR uni1E77
ENCODING 7799
SWIDTH 606 0
DWIDTH 12 0
BBX 10 14 1 -4
BITMAP
6180
E380
6180
6180
6180
6180
6180
6180
6380
3DC0
0000
0C00
1E00
2100
ENDCHAR
STARTCHAR uni1E78
ENCODING 7800
SWIDTH 791 0
DWIDTH 15 0
BBX 15 22 0 0
BITMAP
0040
00C0
0100
0200
0000
0720
08C0
0000
FC7E
3018
3018
3018
3018
3018
3018
3018
3018
3018
3018
1830
1C70
07C0
ENDCHAR
STARTCHAR uni1E79
ENCODING 7801
SWIDTH 606 0
DWIDTH 12 0
BBX 10 18 1 0
BITMAP
0200
0600
0800
1000
0000
3900
4600
0000
6180
E380
6180
6180
6180
6180
6180
6180
6380
3DC0
ENDCHAR
STARTCHAR uni1E7A
ENCODING 7802
SWIDTH 791 0
DWIDTH 15 0
BBX 15 19 0 0
BITMAP
0660
0660
0000
07E0
0000
FC7E
3018
3018
3018
3018
3018
3018
3018
3018
3018
3018
1830
1C70
07C0
ENDCHAR
STARTCHAR uni1E7B
ENCODING 7803
SWIDTH 606 0
DWIDTH 12 0
BBX 10 15 1 0
BITMAP
3300
3300
0000
3F00
0000
6180
E380
6180
6180
6180
6180
6180
6180
6380
3DC0
ENDCHAR
STARTCHAR uni1E7C
ENCODING 7804
SWIDTH 634 0
DWIDTH 12 0
BBX 14 17 -1 0
BITMAP
0E40
1180
0000
F87C
3010
3010
3020
1820
1820
0C40
0C40
0C40
0680
0680
0700
0300
0300
ENDCHAR
STARTCHAR uni1E7D
ENCODING 7805
SWIDTH 504 0
DWIDTH 10 0
BBX 10 13 0 0
BITMAP
3900
4600
0000
F3C0
6080
2100
3100
3100
1200
1A00
1A00
0C00
0C00
ENDCHAR
STARTCHAR uni1E7E
ENCODING 7806
SWIDTH 634 0
DWIDTH 12 0
BBX 14 17 -1 -3
BITMAP
F87C
3010
3010
3020
1820
1820
0C40
0C40
0C40
0680
0680
0700
0300
0300
0000
0300
0300
ENDCHAR
STARTCHAR uni1E7F
ENCODING 7807
SWIDTH 504 0
DWIDTH 10 0
BBX 10 13 0 -3
BITMAP
F3C0
6080
2100
3100
3100
1200
1A00
1A00
0C00
0C00
0000
0C00
0C00
ENDCHAR
STARTCHAR Wgrave
ENCODING 7808
SWIDTH 940 0
DWIDTH 18 0
BBX 19 19 0 0
BITMAP
010000
018000
004000
002000
000000
F001E0
6040C0
606080
20E080
30E080
313100
313100
193100
191A00
1A1A00
1A1A00
0E0E00
0C0C00
0C0C00
ENDCHAR
STARTCHAR wgrave
ENCODING 7809
SWIDTH 768 0
DWIDTH 15 0
BBX 15 15 0 0
BITMAP
0400
0600
0100
0080
0000
F01E
618C
2188
3288
32C8
32D0
1450
1C50
1C70
0830
ENDCHAR
STARTCHAR Wacute
ENCODING 7810
SWIDTH 940 0
DWIDTH 18 0
BBX 19 19 0 0
BITMAP
001000
003000
004000
008000
000000
F001E0
6040C0
606080
20E080
30E080
313100
313100
193100
191A00
1A1A00
1A1A00
0E0E00
0C0C00
0C0C00
ENDCHAR
STARTCHAR wacute
ENCODING 7811
SWIDTH 768 0
DWIDTH 15 0
BBX 15 15 0 0
BITMAP
0040
00C0
0100
0200
0000
F01E
618C
2188
3288
32C8
32D0
1450
1C50
1C70
0830
ENDCHAR
STARTCHAR Wdieresis
ENCODING 7812
SWIDTH 940 0
DWIDTH 18 0
BBX 19 17 0 0
BITMAP
033000
033000
000000
F001E0
6040C0
606080
20E080
30E080
313100
313100
193100
191A00
1A1A00
1A1A00
0E0E00
0C0C00
0C0C00
ENDCHAR
STARTCHAR wdieresis
ENCODING 7813
SWIDTH 768 0
DWIDTH 15 0
BBX 15 13 0 0
BITMAP
0660
0660
0000
F01E
618C
2188
3288
32C8
32D0
1450
1C50
1C70
0830
ENDCHAR
STARTCHAR uni1E86
ENCODING 7814
SWIDTH 940 0
DWIDTH 18 0
BBX 19 17 0 0
BITMAP
00C000
00C000
000000
F001E0
6040C0
606080
20E080
30E080
313100
313100
193100
191A00
1A1A00
1A1A00
0E0E00
0C0C00
0C0C00
ENDCHAR
STARTCHAR uni1E87
ENCODING 7815
SWIDTH 768 0
DWIDTH 15 0
BBX 15 13 0 0
BITMAP
0180
0180
0000
F01E
618C
2188
3288
32C8
32D0
1450
1C50
1C70
0830
ENDCHAR
STARTCHAR uni1E88
ENCODING 7816
SWIDTH 940 0
DWIDTH 18 0
BBX 19 17 0 -3
BITMAP
F001E0
6040C0
606080
20E080
30E080
313100
313100
193100
191A00
1A1A00
1A1A00
0E0E00
0C0C00
0C0C00
000000
00C000
00C000
ENDCHAR
STARTCHAR uni1E89
ENCODING 7817
SWIDTH 768 0
DWIDTH 15 0
BBX 15 13 0 -3
BITMAP
F01E
618C
2188
3288
32C8
32D0
1450
1C50
1C70
0830
0000
0180
0180
ENDCHAR
STARTCHAR uni1E8A
ENCODING 7818
SWIDTH 624 0
DWIDTH 12 0
BBX 13 17 0 0
BITMAP
0600
0600
0000
F8F0
3060
38C0
1880
0D00
0F00
0600
0700
0B80
0980
10C0
30E0
6060
F8F8
ENDCHAR
STARTCHAR uni1E8B
ENCODING 7819
SWIDTH 486 0
DWIDTH 9 0
BBX 10 13 0 0
BITMAP
0C00
0C00
0000
F3C0
6100
3200
1C00
1C00
0C00
1600
2300
2300
F7C0
ENDCHAR
STARTCHAR uni1E8C
ENCODING 7820
SWIDTH 624 0
DWIDTH 12 0
BBX 13 17 0 0
BITMAP
1980
1980
0000
F8F0
3060
38C0
1880
0D00
0F00
0600
0700
0B80
0980
10C0
30E0
6060
F8F8
ENDCHAR
STARTCHAR uni1E8D
ENCODING 7821
SWIDTH 486 0
DWIDTH 9 0
BBX 10 13 0 0
BITMAP
3300
3300
0000
F3C0
6100
3200
1C00
1C00
0C00
1600
2300
2300
F7C0
ENDCHAR
STARTCHAR uni1E8E
ENCODING 7822
SWIDTH 588 0
DWIDTH 11 0
BBX 12 17 0 0
BITMAP
0600
0600
0000
F8F0
3040
3040
1880
1880
0D00
0D00
0600
0600
0600
0600
0600
0600
1F80
ENDCHAR
STARTCHAR uni1E8F
ENCODING 7823
SWIDTH 506 0
DWIDTH 10 0
BBX 10 17 0 -4
BITMAP
0C00
0C00
0000
F3C0
6180
2100
3100
3200
1200
1A00
0C00
0C00
0C00
0800
0800
4800
7000
ENDCHAR
STARTCHAR uni1E90
ENCODING 7824
SWIDTH 610 0
DWIDTH 12 0
BBX 12 18 0 0
BITMAP
0600
0F00
1080
0000
7FE0
60E0
40C0
41C0
0380
0300
0600
0E00
1C00
1800
3810
7020
6020
FFE0
ENDCHAR
STARTCHAR uni1E91
ENCODING 7825
SWIDTH 480 0
DWIDTH 9 0
BBX 9 14 0 0
BITMAP
0C00
1E00
2100
0000
7F80
6380
4700
0600
0C00
1C00
1800
3080
6080
FF80
ENDCHAR
STARTCHAR uni1E92
ENCODING 7826
SWIDTH 610 0
DWIDTH 12 0
BBX 12 17 0 -3
BITMAP
7FE0
60E0
40C0
41C0
0380
0300
0600
0E00
1C00
1800
3810
7020
6020
FFE0
0000
0C00
0C00
ENDCHAR
STARTCHAR uni1E93
ENCODING 7827
SWIDTH 480 0
DWIDTH 9 0
BBX 9 13 0 -3
BITMAP
7F80
6380
4700
0600
0C00
1C00
1800
3080
6080
FF80
0000
0C00
0C00
ENDCHAR
STARTCHAR uni1E94
ENCODING 7828
SWIDTH 610 0
DWIDTH 12 0
BBX 12 16 0 -2
BITMAP
7FE0
60E0
40C0
41C0
0380
0300
0600
0E00
1C00
1800
3810
7020
6020
FFE0
0000
3F00
ENDCHAR
STARTCHAR uni1E95
ENCODING 7829
SWIDTH 480 0
DWIDTH 9 0
BBX 9 12 0 -2
BITMAP
7F80
6380
4700
0600
0C00
1C00
1800
3080
6080
FF80
0000
3F00
ENDCHAR
STARTCHAR uni1E96
ENCODING 7830
SWIDTH 607 0
DWIDTH 12 0
BBX 10 16 1 -2
BITMAP
6000
E000
6000
6000
6F00
7180
6180
6180
6180
6180
6180
6180
6180
F3C0
0000
3F00
ENDCHAR
STARTCHAR uni1E97
ENCODING 7831
SWIDTH 344 0
DWIDTH 7 0
BBX 6 15 1 0
BITMAP
CC
CC
00
20
60
F8
60
60
60
60
60
60
60
60
3C
ENDCHAR
STARTCHAR uni1E98
ENCODING 7832
SWIDTH 768 0
DWIDTH 15 0
BBX 15 15 0 0
BITMAP
0180
0240
0240
0180
0000
F01E
618C
2188
3288
32C8
32D0
1450
1C50
1C70
0830
ENDCHAR
STARTCHAR uni1E99
ENCODING 7833
SWIDTH 506 0
DWIDTH 10 0
BBX 10 19 0 -4
BITMAP
0C00
1200
1200
0C00
0000
F3C0
6180
2100
3100
3200
1200
1A00
0C00
0C00
0C00
0800
0800
4800
7000
ENDCHAR
STARTCHAR uni1EA0
ENCODING 7840
SWIDTH 635 0
DWIDTH 12 0
BBX 13 17 0 -3
BITMAP
0200
0700
0700
0500
0980
0980
0980
10C0
1FC0
10C0
2060
2060
6070
F0F8
0000
0300
0300
ENDCHAR
STARTCHAR uni1EA1
ENCODING 7841
SWIDTH 523 0
DWIDTH 10 0
BBX 10 13 1 -3
BITMAP
3E00
6200
C300
0300
1F00
6300
C300
C300
4700
7BC0
0000
0C00
0C00
ENDCHAR
STARTCHAR uni1EA4
ENCODING 7844
SWIDTH 635 0
DWIDTH 12 0
BBX 13 22 0 0
BITMAP
0080
0180
0200
0400
0000
0200
0700
08C0
0200
0700
0700
0500
0980
0980
0980
10C0
1FC0
10C0
2060
2060
6070
F0F8
ENDCHAR
STARTCHAR uni1EA5
ENCODING 7845
SWIDTH 523 0
DWIDTH 10 0
BBX 10 19 1 0
BITMAP
0200
0600
0800
1000
0000
0800
1C00
2200
4100
3E00
6200
C300
0300
1F00
6300
C300
C300
C700
7BC0
ENDCHAR
STARTCHAR uni1EA6
ENCODING 7846
SWIDTH 635 0
DWIDTH 12 0
BBX 13 22 0 0
BITMAP
0800
0C00
0200
0100
0000
0200
0700
08C0
0200
0700
0700
0500
0980
0980
0980
10C0
1FC0
10C0
2060
2060
6070
F0F8
ENDCHAR
STARTCHAR uni1EA7
ENCODING 7847
SWIDTH 523 0
DWIDTH 10 0
BBX 10 19 1 0
BITMAP
2000
3000
0800
0400
0000
0800
1C00
2200
4100
3E00
6200
C300
0300
1F00
6300
C300
C300
C700
7BC0
ENDCHAR
STARTCHAR uni1EAA
ENCODING 7850
SWIDTH 635 0
DWIDTH 12 0
BBX 13 20 0 0
BITMAP
0E40
1180
0000
0200
0700
08C0
0200
0700
0700
0500
0980
0980
0980
10C0
1FC0
10C0
2060
2060
6070
F0F8
ENDCHAR
STARTCHAR uni1EAB
ENCODING 7851
SWIDTH 523 0
DWIDTH 10 0
BBX 10 17 1 0
BITMAP
3900
4600
0000
0800
1C00
2200
4100
3E00
6200
C300
0300
1F00
6300
C300
C300
C700
7BC0
ENDCHAR
STARTCHAR uni1EAC
ENCODING 7852
SWIDTH 635 0
DWIDTH 12 0
BBX 13 21 0 -3
BITMAP
0300
0780
0840
0000
0200
0700
0700
0500
0980
0980
0980
10C0
1FC0
10C0
2060
2060
6070
F0F8
0000
0300
0300
ENDCHAR
STARTCHAR uni1EAD
ENCODING 7853
SWIDTH 523 0
DWIDTH 10 0
BBX 10 17 1 -3
BITMAP
0C00
1E00
2100
0000
3E00
6200
C300
0300
1F00
6300
C300
C300
4700
7BC0
0000
0C00
0C00
ENDCHAR
STARTCHAR uni1EAE
ENCODING 7854
SWIDTH 635 0
DWIDTH 12 0
BBX 13 23 0 0
BITMAP
0080
0180
0200
0400
0000
0840
0840
0780
0000
0200
0700
0700
0500
0980
0980
0980
10C0
1FC0
10C0
2060
2060
6070
F0F8
ENDCHAR
STARTCHAR uni1EAF
ENCODING 7855
SWIDTH 523 0
DWIDTH 10 0
BBX 10 19 1 0
BITMAP
0200
0600
0800
1000
0000
4200
4200
3C00
0000
3E00
6200
C300
0300
1F00
6300
C300
C300
4700
7BC0
ENDCHAR
STARTCHAR uni1EB0
ENCODING 7856
SWIDTH 635 0
DWIDTH 12 0
BBX 13 23 0 0
BITMAP
0800
0C00
0200
0100
0000
0840
0840
0780
0000
0200
0700
0700
0500
0980
0980
0980
10C0
1FC0
10C0
2060
2060
6070
F0F8
ENDCHAR
STARTCHAR uni1EB1
ENCODING 7857
SWIDTH 523 0
DWIDTH 10 0
BBX 10 19 1 0
BITMAP
2000
3000
0800
0400
0000
4200
4200
3C00
0000
3E00
6200
C300
0300
1F00
6300
C300
C300
4700
7BC0
ENDCHAR
STARTCHAR uni1EB4
ENCODING 7860
SWIDTH 635 0
DWIDTH 12 0
BBX 13 21 0 0
BITMAP
0E40
1180
0000
0840
0840
0780
0000
0200
0700
0700
0500
0980
0980
0980
10C0
1FC0
10C0
2060
2060
6070
F0F8
ENDCHAR
STARTCHAR uni1EB5
ENCODING 7861
SWIDTH 523 0
DWIDTH 10 0
BBX 10 17 1 0
BITMAP
3900
4600
0000
4200
4200
3C00
0000
3E00
6200
C300
0300
1F00
6300
C300
C300
4700
7BC0
ENDCHAR
STARTCHAR uni1EB6
ENCODING 7862
SWIDTH 635 0
DWIDTH 12 0
BBX 13 21 0 -3
BITMAP
0840
0840
0780
0000
0200
0700
0700
0500
0980
0980
0980
10C0
1FC0
10C0
2060
2060
6070
F0F8
0000
0300
0300
ENDCHAR
STARTCHAR uni1EB7
ENCODING 7863
SWIDTH 523 0
DWIDTH 10 0
BBX 10 17 1 -3
BITMAP
2100
2100
1E00
0000
3E00
6200
C300
0300
1F00
6300
C300
C300
4700
7BC0
0000
0C00
0C00
ENDCHAR
STARTCHAR uni1EB8
ENCODING 7864
SWIDTH 606 0
DWIDTH 12 0
BBX 12 17 0 -3
BITMAP
FFE0
3060
3020
3000
3000
3040
3040
3FC0
3040
3000
3000
3010
3020
FFE0
0000
0600
0600
ENDCHAR
STARTCHAR uni1EB9
ENCODING 7865
SWIDTH 514 0
DWIDTH 10 0
BBX 8 13 1 -3
BITMAP
3C
66
43
C3
FF
C0
C0
C1
62
3C
00
18
18
ENDCHAR
STARTCHAR uni1EBC
ENCODING 7868
SWIDTH 606 0
DWIDTH 12 0
BBX 12 17 0 0
BITMAP
1C80
2300
0000
FFE0
3060
3020
3000
3000
3040
3040
3FC0
3040
3000
3000
3010
3020
FFE0
ENDCHAR
STARTCHAR uni1EBD
ENCODING 7869
SWIDTH 514 0
DWIDTH 10 0
BBX 8 13 1 0
BITMAP
39
46
00
3C
66
43
C3
FF
C0
C0
C1
62
3C
ENDCHAR
STARTCHAR uni1EBE
ENCODING 7870
SWIDTH 606 0
DWIDTH 12 0
BBX 12 22 0 0
BITMAP
0080
0180
0200
0400
0000
0200
0F00
1080
FFE0
3060
3020
3000
3000
3040
3040
3FC0
3040
3000
3000
3010
3020
FFE0
ENDCHAR
STARTCHAR uni1EBF
ENCODING 7871
SWIDTH 514 0
DWIDTH 10 0
BBX 8 19 1 0
BITMAP
02
06
08
10
00
08
1C
26
40
3C
66
43
C3
FF
C0
C0
C1
62
3C
ENDCHAR
STARTCHAR uni1EC0
ENCODING 7872
SWIDTH 606 0
DWIDTH 12 0
BBX 12 22 0 0
BITMAP
1000
1800
0400
0200
0000
0200
0F00
1080
FFE0
3060
3020
3000
3000
3040
3040
3FC0
3040
3000
3000
3010
3020
FFE0
ENDCHAR
STARTCHAR uni1EC1
ENCODING 7873
SWIDTH 514 0
DWIDTH 10 0
BBX 8 19 1 0
BITMAP
20
30
08
04
00
08
1C
26
40
3C
66
43
C3
FF
C0
C0
C1
62
3C
ENDCHAR
STARTCHAR uni1EC4
ENCODING 7876
SWIDTH 606 0
DWIDTH 12 0
BBX 12 20 0 0
BITMAP
1C80
2300
0000
0200
0F00
1080
FFE0
3060
3020
3000
3000
3040
3040
3FC0
3040
3000
3000
3010
3020
FFE0
ENDCHAR
STARTCHAR uni1EC5
ENCODING 7877
SWIDTH 514 0
DWIDTH 10 0
BBX 8 17 1 0
BITMAP
39
46
00
08
1C
26
40
3C
66
43
C3
FF
C0
C0
C1
62
3C
ENDCHAR
STARTCHAR uni1EC6
ENCODING 7878
SWIDTH 606 0
DWIDTH 12 0
BBX 12 21 0 -3
BITMAP
0C00
1E00
2100
0000
FFE0
3060
3020
3000
3000
3040
3040
3FC0
3040
3000
3000
3010
3020
FFE0
0000
0600
0600
ENDCHAR
STARTCHAR uni1EC7
ENCODING 7879
SWIDTH 514 0
DWIDTH 10 0
BBX 8 17 1 -3
BITMAP
18
3C
42
00
3C
66
43
C3
FF
C0
C0
C1
62
3C
00
18
18
ENDCHAR
STARTCHAR uni1ECA
ENCODING 7882
SWIDTH 349 0
DWIDTH 7 0
BBX 6 17 0 -3
BITMAP
FC
30
30
30
30
30
30
30
30
30
30
30
30
FC
00
30
30
ENDCHAR
STARTCHAR uni1ECB
ENCODING 7883
SWIDTH 291 0
DWIDTH 6 0
BBX 4 17 1 -3
BITMAP
40
E0
00
00
60
E0
60
60
60
60
60
60
60
F0
00
60
60
ENDCHAR
STARTCHAR uni1ECC
ENCODING 7884
SWIDTH 762 0
DWIDTH 15 0
BBX 13 17 1 -3
BITMAP
0F80
3060
6030
6030
C018
C018
C018
C018
C018
C018
6030
6030
3060
0F80
0000
0300
0300
ENDCHAR
STARTCHAR uni1ECD
ENCODING 7885
SWIDTH 577 0
DWIDTH 11 0
BBX 9 13 1 -3
BITMAP
3E00
6300
4100
C180
C180
C180
C180
4100
6300
3E00
0000
0C00
0C00
ENDCHAR
STARTCHAR uni1ED0
ENCODING 7888
SWIDTH 762 0
DWIDTH 15 0
BBX 13 22 1 0
BITMAP
0080
0180
0200
0400
0000
0200
0700
18C0
0F80
3060
6030
6030
C018
C018
C018
C018
C018
C018
6030
6030
3060
0F80
ENDCHAR
STARTCHAR uni1ED1
ENCODING 7889
SWIDTH 577 0
DWIDTH 11 0
BBX 9 19 1 0
BITMAP
0200
0600
0800
1000
0000
0800
1C00
2200
0000
3E00
6300
4100
C180
C180
C180
C180
4100
6300
3E00
ENDCHAR
STARTCHAR uni1ED2
ENCODING 7890
SWIDTH 762 0
DWIDTH 15 0
BBX 13 22 1 0
BITMAP
0800
0C00
0200
0100
0000
0200
0700
18C0
0F80
3060
6030
6030
C018
C018
C018
C018
C018
C018
6030
6030
3060
0F80
ENDCHAR
STARTCHAR uni1ED3
ENCODING 7891
SWIDTH 577 0
DWIDTH 11 0
BBX 9 19 1 0
BITMAP
2000
3000
0800
0400
0000
0800
1C00
2200
0000
3E00
6300
4100
C180
C180
C180
C180
4100
6300
3E00
ENDCHAR
STARTCHAR uni1ED6
ENCODING 7894
SWIDTH 762 0
DWIDTH 15 0
BBX 13 20 1 0
BITMAP
0E40
1180
0000
0200
0700
18C0
0F80
3060
6030
6030
C018
C018
C018
C018
C018
C018
6030
6030
3060
0F80
ENDCHAR
STARTCHAR uni1ED7
ENCODING 7895
SWIDTH 577 0
DWIDTH 11 0
BBX 9 17 1 0
BITMAP
3900
4600
0000
0800
1C00
2200
0000
3E00
6300
4100
C180
C180
C180
C180
4100
6300
3E00
ENDCHAR
STARTCHAR uni1ED8
ENCODING 7896
SWIDTH 762 0
DWIDTH 15 0
BBX 13 21 1 -3
BITMAP
0300
0780
0840
0000
0F80
3060
6030
6030
C018
C018
C018
C018
C018
C018
6030
6030
3060
0F80
0000
0300
0300
ENDCHAR
STARTCHAR uni1ED9
ENCODING 7897
SWIDTH 577 0
DWIDTH 11 0
BBX 9 17 1 -3
BITMAP
0C00
1E00
2100
0000
3E00
6300
4100
C180
C180
C180
C180
4100
6300
3E00
0000
0C00
0C00
ENDCHAR
STARTCHAR uni1EDA
ENCODING 7898
SWIDTH 762 0
DWIDTH 15 0
BBX 15 19 1 0
BITMAP
0020
0060
0080
0100
0000
0F84
3066
6034
6034
C018
C018
C018
C018
C018
C018
6030
6030
3060
0F80
ENDCHAR
STARTCHAR uni1EDB
ENCODING 7899
SWIDTH 577 0
DWIDTH 11 0
BBX 11 15 1 0
BITMAP
0100
0300
0400
0800
0000
3E40
6360
4140
C1C0
C180
C180
C180
4100
6300
3E00
ENDCHAR
STARTCHAR uni1EDC
ENCODING 7900
SWIDTH 762 0
DWIDTH 15 0
BBX 15 19 1 0
BITMAP
0400
0600
0100
0080
0000
0F84
3066
6034
6034
C018
C018
C018
C018
C018
C018
6030
6030
3060
0F80
ENDCHAR
STARTCHAR uni1EDD
ENCODING 7901
SWIDTH 577 0
DWIDTH 11 0
BBX 11 15 1 0
BITMAP
1000
1800
0400
0200
0000
3E40
6360
4140
C1C0
C180
C180
C180
4100
6300
3E00
ENDCHAR
STARTCHAR uni1EE0
ENCODING 7904
SWIDTH 762 0
DWIDTH 15 0
BBX 15 17 1 0
BITMAP
0720
08C0
0000
0F84
3066
6034
6034
C018
C018
C018
C018
C018
C018
6030
6030
3060
0F80
ENDCHAR
STARTCHAR uni1EE1
ENCODING 7905
SWIDTH 577 0
DWIDTH 11 0
BBX 11 13 1 0
BITMAP
1C80
2300
0000
3E40
6360
4140
C1C0
C180
C180
C180
4100
6300
3E00
ENDCHAR
STARTCHAR uni1EE2
ENCODING 7906
SWIDTH 762 0
DWIDTH 15 0
BBX 15 17 1 -3
BITMAP
0F84
3066
6034
6034
C018
C018
C018
C018
C018
C018
6030
6030
3060
0F80
0000
0300
0300
ENDCHAR
STARTCHAR uni1EE3
ENCODING 7907
SWIDTH 577 0
DWIDTH 11 0
BBX 11 13 1 -3
BITMAP
3E40
6360
4140
C1C0
C180
C180
C180
4100
6300
3E00
0000
0C00
0C00
ENDCHAR
STARTCHAR uni1EE4
ENCODING 7908
SWIDTH 791 0
DWIDTH 15 0
BBX 15 17 0 -3
BITMAP
FC7E
3018
3018
3018
3018
3018
3018
3018
3018
3018
3018
1830
1C70
07C0
0000
0180
0180
ENDCHAR
STARTCHAR uni1EE5
ENCODING 7909
SWIDTH 606 0
DWIDTH 12 0
BBX 10 13 1 -3
BITMAP
6180
E380
6180
6180
6180
6180
6180
6180
6380
3DC0
0000
0C00
0C00
ENDCHAR
STARTCHAR uni1EE8
ENCODING 7912
SWIDTH 791 0
DWIDTH 15 0
BBX 17 19 0 0
BITMAP
002000
006000
008000
010000
000000
FC7F00
301980
301900
301900
301A00
301800
301800
301800
301800
301800
301800
183000
1C7000
07C000
ENDCHAR
STARTCHAR uni1EE9
ENCODING 7913
SWIDTH 606 0
DWIDTH 12 0
BBX 12 15 1 0
BITMAP
0080
0180
0200
0400
0000
61A0
E3B0
61A0
61A0
61C0
6180
6180
6180
6380
3DC0
ENDCHAR
STARTCHAR uni1EEA
ENCODING 7914
SWIDTH 791 0
DWIDTH 15 0
BBX 17 19 0 0
BITMAP
020000
030000
008000
004000
000000
FC7F00
301980
301900
301900
301A00
301800
301800
301800
301800
301800
301800
183000
1C7000
07C000
ENDCHAR
STARTCHAR uni1EEB
ENCODING 7915
SWIDTH 606 0
DWIDTH 12 0
BBX 12 15 1 0
BITMAP
1000
1800
0400
0200
0000
61A0
E3B0
61A0
61A0
61C0
6180
6180
6180
6380
3DC0
ENDCHAR
STARTCHAR uni1EEE
ENCODING 7918
SWIDTH 791 0
DWIDTH 15 0
BBX 17 17 0 0
BITMAP
039000
046000
000000
FC7F00
301980
301900
301900
301A00
301800
301800
301800
301800
301800
301800
183000
1C7000
07C000
ENDCHAR
STARTCHAR uni1EEF
ENCODING 7919
SWIDTH 606 0
DWIDTH 12 0
BBX 12 13 1 0
BITMAP
0E40
1180
0000
61A0
E3B0
61A0
61A0
61C0
6180
6180
6180
6380
3DC0
ENDCHAR
STARTCHAR uni1EF0
ENCODING 7920
SWIDTH 791 0
DWIDTH 15 0
BBX 17 17 0 -3
BITMAP
FC7F00
301980
301900
301900
301A00
301800
301800
301800
301800
301800
301800
183000
1C7000
07C000
000000
018000
018000
ENDCHAR
STARTCHAR uni1EF1
ENCODING 7921
SWIDTH 606 0
DWIDTH 12 0
BBX 12 13 1 -3
BITMAP
61A0
E3B0
61A0
61A0
61C0
6180
6180
6180
6380
3DC0
0000
0600
0600
ENDCHAR
STARTCHAR Ygrave
ENCODING 7922
SWIDTH 588 0
DWIDTH 11 0
BBX 12 19 0 0
BITMAP
1000
1800
0400
0200
0000
F8F0
3040
3040
1880
1880
0D00
0D00
0600
0600
0600
0600
0600
0600
1F80
ENDCHAR
STARTCHAR ygrave
ENCODING 7923
SWIDTH 506 0
DWIDTH 10 0
BBX 10 19 0 -4
BITMAP
2000
3000
0800
0400
0000
F3C0
6180
2100
3100
3200
1200
1A00
0C00
0C00
0C00
0800
0800
4800
7000
ENDCHAR
STARTCHAR uni1EF4
ENCODING 7924
SWIDTH 588 0
DWIDTH 11 0
BBX 12 17 0 -3
BITMAP
F8F0
3040
3040
1880
1880
0D00
0D00
0600
0600
0600
0600
0600
0600
1F80
0000
0600
0600
ENDCHAR
STARTCHAR uni1EF5
ENCODING 7925
SWIDTH 506 0
DWIDTH 10 0
BBX 10 17 0 -7
BITMAP
F3C0
6180
2100
3100
3200
1200
1A00
0C00
0C00
0C00
0800
0800
4800
7000
0000
1800
1800
ENDCHAR
STARTCHAR uni1EF8
ENCODING 7928
SWIDTH 588 0
DWIDTH 11 0
BBX 12 17 0 0
BITMAP
1C80
2300
0000
F8F0
3040
3040
1880
1880
0D00
0D00
0600
0600
0600
0600
0600
0600
1F80
ENDCHAR
STARTCHAR uni1EF9
ENCODING 7929
SWIDTH 506 0
DWIDTH 10 0
BBX 10 17 0 -4
BITMAP
3900
4600
0000
F3C0
6180
2100
3100
3200
1200
1A00
0C00
0C00
0C00
0800
0800
4800
7000
ENDCHAR
STARTCHAR uni2000
ENCODING 8192
SWIDTH 500 0
DWIDTH 10 0
BBX 1 1 0 0
BITMAP
00
ENDCHAR
STARTCHAR uni2001
ENCODING 8193
SWIDTH 1000 0
DWIDTH 19 0
BBX 1 1 0 0
BITMAP
00
ENDCHAR
STARTCHAR uni2002
ENCODING 8194
SWIDTH 500 0
DWIDTH 10 0
BBX 1 1 0 0
BITMAP
00
ENDCHAR
STARTCHAR uni2003
ENCODING 8195
SWIDTH 1000 0
DWIDTH 19 0
BBX 1 1 0 0
BITMAP
00
ENDCHAR
STARTCHAR uni2004
ENCODING 8196
SWIDTH 333 0
DWIDTH 6 0
BBX 1 1 0 0
BITMAP
00
ENDCHAR
STARTCHAR uni2005
ENCODING 8197
SWIDTH 250 0
DWIDTH 5 0
BBX 1 1 0 0
BITMAP
00
ENDCHAR
STARTCHAR uni2006
ENCODING 8198
SWIDTH 167 0
DWIDTH 3 0
BBX 1 1 0 0
BITMAP
00
ENDCHAR
STARTCHAR uni2007
ENCODING 8199
SWIDTH 530 0
DWIDTH 10 0
BBX 1 1 0 0
BITMAP
00
ENDCHAR
STARTCHAR uni2008
ENCODING 8200
SWIDTH 265 0
DWIDTH 5 0
BBX 1 1 0 0
BITMAP
00
ENDCHAR
STARTCHAR uni2009
ENCODING 8201
SWIDTH 200 0
DWIDTH 4 0
BBX 1 1 0 0
BITMAP
00
ENDCHAR
STARTCHAR uni200A
ENCODING 8202
SWIDTH 100 0
DWIDTH 2 0
BBX 1 1 0 0
BITMAP
00
ENDCHAR
STARTCHAR uni200B
ENCODING 8203
SWIDTH 0 0
DWIDTH 0 0
BBX 1 1 0 0
BITMAP
00
ENDCHAR
STARTCHAR uni2010
ENCODING 8208
SWIDTH 392 0
DWIDTH 8 0
BBX 5 1 1 4
BITMAP
F8
ENDCHAR
STARTCHAR uni2011
ENCODING 8209
SWIDTH 392 0
DWIDTH 8 0
BBX 5 1 1 4
BITMAP
F8
ENDCHAR
STARTCHAR figuredash
ENCODING 8210
SWIDTH 500 0
DWIDTH 10 0
BBX 10 1 0 4
BITMAP
FFC0
ENDCHAR
STARTCHAR endash
ENCODING 8211
SWIDTH 500 0
DWIDTH 10 0
BBX 10 1 0 4
BITMAP
FFC0
ENDCHAR
STARTCHAR emdash
ENCODING 8212
SWIDTH 1000 0
DWIDTH 19 0
BBX 19 1 0 4
BITMAP
FFFFE0
ENDCHAR
STARTCHAR afii00208
ENCODING 8213
SWIDTH 1000 0
DWIDTH 19 0
BBX 19 1 0 4
BITMAP
FFFFE0
ENDCHAR
STARTCHAR quoteleft
ENCODING 8216
SWIDTH 278 0
DWIDTH 5 0
BBX 3 5 1 9
BITMAP
20
40
40
C0
40
ENDCHAR
STARTCHAR quoteright
ENCODING 8217
SWIDTH 278 0
DWIDTH 5 0
BBX 3 5 1 9
BITMAP
40
60
40
40
80
ENDCHAR
STARTCHAR quotesinglbase
ENCODING 8218
SWIDTH 278 0
DWIDTH 5 0
BBX 3 5 1 -2
BITMAP
40
60
40
40
80
ENDCHAR
STARTCHAR quotereversed
ENCODING 8219
SWIDTH 278 0
DWIDTH 5 0
BBX 3 5 1 9
BITMAP
40
C0
40
40
20
ENDCHAR
STARTCHAR quotedblleft
ENCODING 8220
SWIDTH 458 0
DWIDTH 9 0
BBX 6 5 1 9
BITMAP
24
48
C8
D8
CC
ENDCHAR
STARTCHAR quotedblright
ENCODING 8221
SWIDTH 458 0
DWIDTH 9 0
BBX 6 5 1 9
BITMAP
CC
6C
4C
48
90
ENDCHAR
STARTCHAR quotedblbase
ENCODING 8222
SWIDTH 458 0
DWIDTH 9 0
BBX 6 5 1 -2
BITMAP
CC
6C
4C
48
90
ENDCHAR
STARTCHAR uni201F
ENCODING 8223
SWIDTH 458 0
DWIDTH 9 0
BBX 6 5 1 9
BITMAP
CC
D8
C8
48
24
ENDCHAR
STARTCHAR dagger
ENCODING 8224
SWIDTH 504 0
DWIDTH 10 0
BBX 8 17 1 -2
BITMAP
10
18
18
18
10
FF
08
18
18
18
18
18
18
18
10
10
10
ENDCHAR
STARTCHAR daggerdbl
ENCODING 8225
SWIDTH 488 0
DWIDTH 9 0
BBX 8 17 1 -3
BITMAP
18
18
18
10
FF
08
18
18
18
18
10
FF
08
18
18
18
18
ENDCHAR
STARTCHAR bullet
ENCODING 8226
SWIDTH 409 0
DWIDTH 8 0
BBX 6 6 1 4
BITMAP
30
78
FC
FC
78
30
ENDCHAR
STARTCHAR ellipsis
ENCODING 8230
SWIDTH 1000 0
DWIDTH 19 0
BBX 14 2 2 0
BITMAP
C30C
C30C
ENDCHAR
STARTCHAR perthousand
ENCODING 8240
SWIDTH 1208 0
DWIDTH 23 0
BBX 21 14 1 -1
BITMAP
782000
4FE000
844000
844000
848000
488000
797870
024888
028488
048488
048488
0848D0
087870
100000
ENDCHAR
STARTCHAR guilsinglleft
ENCODING 8249
SWIDTH 257 0
DWIDTH 5 0
BBX 3 8 1 1
BITMAP
20
20
40
C0
C0
40
20
20
ENDCHAR
STARTCHAR guilsinglright
ENCODING 8250
SWIDTH 257 0
DWIDTH 5 0
BBX 3 8 1 1
BITMAP
80
80
40
60
60
40
80
80
ENDCHAR
STARTCHAR fraction
ENCODING 8260
SWIDTH 150 0
DWIDTH 3 0
BBX 9 14 -3 0
BITMAP
0080
0180
0100
0200
0200
0400
0C00
0800
1000
1000
2000
6000
4000
8000
ENDCHAR
STARTCHAR oneinferior
ENCODING 8321
SWIDTH 380 0
DWIDTH 7 0
BBX 3 8 2 -4
BITMAP
C0
40
40
40
40
40
40
E0
ENDCHAR
STARTCHAR twoinferior
ENCODING 8322
SWIDTH 380 0
DWIDTH 7 0
BBX 6 8 1 -4
BITMAP
70
CC
8C
08
10
60
84
FC
ENDCHAR
STARTCHAR threeinferior
ENCODING 8323
SWIDTH 380 0
DWIDTH 7 0
BBX 6 8 1 -4
BITMAP
70
98
18
70
08
8C
8C
70
ENDCHAR
STARTCHAR uni20A5
ENCODING 8357
SWIDTH 923 0
DWIDTH 18 0
BBX 16 14 1 -2
BITMAP
0020
0060
6F7C
F1C6
61C6
6186
6186
6186
6186
6186
6186
F3CF
0300
0200
ENDCHAR
STARTCHAR uni20A6
ENCODING 8358
SWIDTH 780 0
DWIDTH 15 0
BBX 15 14 0 0
BITMAP
F03E
3808
3C08
2E08
3FF8
2708
2388
21C8
3FF8
20E8
2078
2038
2018
F818
ENDCHAR
STARTCHAR uni20A9
ENCODING 8361
SWIDTH 940 0
DWIDTH 18 0
BBX 19 14 0 0
BITMAP
F001E0
6040C0
606080
20E080
37FC80
313100
313100
193100
1FFE00
1A1A00
1A1A00
0E0E00
0C0C00
0C0C00
ENDCHAR
STARTCHAR Euro
ENCODING 8364
SWIDTH 684 0
DWIDTH 13 0
BBX 14 14 -1 0
BITMAP
01F0
061C
1804
1804
FF80
3000
3000
3000
FF80
3000
1804
1C04
0E1C
03F0
ENDCHAR
STARTCHAR uni20AD
ENCODING 8365
SWIDTH 658 0
DWIDTH 13 0
BBX 13 14 0 0
BITMAP
FCF8
3060
3080
3100
3200
3400
FFF8
3600
3700
3380
31C0
30C0
3070
FC18
ENDCHAR
STARTCHAR uni2103
ENCODING 8451
SWIDTH 1017 0
DWIDTH 20 0
BBX 19 14 1 0
BITMAP
000F80
7030E0
88C020
88C020
898000
718000
018000
018000
018000
018000
00C020
00E020
0070E0
001F80
ENDCHAR
STARTCHAR uni2109
ENCODING 8457
SWIDTH 913 0
DWIDTH 18 0
BBX 17 14 1 0
BITMAP
03FF80
70C180
88C080
88C000
88C000
70C100
00C100
00FF00
00C100
00C000
00C000
00C000
00C000
03F000
ENDCHAR
STARTCHAR trademark
ENCODING 8482
SWIDTH 1100 0
DWIDTH 21 0
BBX 20 9 1 5
BITMAP
FFE0F0
9970C0
185140
185940
184940
184E40
184E40
184440
3CE4E0
ENDCHAR
STARTCHAR uni212A
ENCODING 8490
SWIDTH 658 0
DWIDTH 13 0
BBX 13 14 0 0
BITMAP
FCF8
3060
3080
3100
3200
3400
3C00
3600
3700
3380
31C0
30C0
3070
FC18
ENDCHAR
STARTCHAR uni212B
ENCODING 8491
SWIDTH 627 0
DWIDTH 12 0
BBX 13 17 -1 0
BITMAP
0300
0480
0480
0300
0300
0700
0580
0580
0880
08C0
08C0
1FC0
1060
1060
2020
2030
F878
ENDCHAR
STARTCHAR uni2132
ENCODING 8498
SWIDTH 580 0
DWIDTH 11 0
BBX 11 14 0 0
BITMAP
07E0
0180
0180
0180
0180
4180
7F80
4180
4180
0180
0180
8180
C180
FFE0
ENDCHAR
STARTCHAR universal
ENCODING 8704
SWIDTH 635 0
DWIDTH 12 0
BBX 13 14 0 0
BITMAP
F0F8
6070
2060
2060
10C0
1FC0
10C0
0980
0980
0980
0500
0700
0700
0200
ENDCHAR
STARTCHAR existential
ENCODING 8707
SWIDTH 606 0
DWIDTH 12 0
BBX 12 14 0 0
BITMAP
7FF0
60C0
40C0
00C0
00C0
20C0
20C0
3FC0
20C0
00C0
00C0
80C0
40C0
7FF0
ENDCHAR
STARTCHAR uni2204
ENCODING 8708
SWIDTH 606 0
DWIDTH 12 0
BBX 12 14 0 0
BITMAP
7FF0
61C0
41C0
01C0
01C0
22C0
22C0
3FC0
22C0
04C0
04C0
84C0
4CC0
7FF0
ENDCHAR
STARTCHAR minus
ENCODING 8722
SWIDTH 570 0
DWIDTH 11 0
BBX 9 1 1 4
BITMAP
FF80
ENDCHAR
STARTCHAR fraction
ENCODING 8725
SWIDTH 150 0
DWIDTH 3 0
BBX 9 14 -3 0
BITMAP
0080
0180
0100
0200
0200
0400
0C00
0800
1000
1000
2000
6000
4000
8000
ENDCHAR
STARTCHAR periodcentered
ENCODING 8729
SWIDTH 265 0
DWIDTH 5 0
BBX 2 2 2 4
BITMAP
C0
C0
ENDCHAR
STARTCHAR uni2236
ENCODING 8758
SWIDTH 265 0
DWIDTH 5 0
BBX 2 10 2 0
BITMAP
C0
C0
80
00
00
00
00
40
C0
C0
ENDCHAR
STARTCHAR uni2259
ENCODING 8793
SWIDTH 570 0
DWIDTH 11 0
BBX 9 9 1 2
BITMAP
0C00
1E00
2100
0000
FF80
0000
0000
0000
FF80
ENDCHAR
STARTCHAR uni225A
ENCODING 8794
SWIDTH 570 0
DWIDTH 11 0
BBX 9 10 1 2
BITMAP
2100
1200
0C00
0400
0000
FF80
0000
0000
0000
FF80
ENDCHAR
STARTCHAR notequal
ENCODING 8800
SWIDTH 570 0
DWIDTH 11 0
BBX 9 14 1 -2
BITMAP
0200
0600
0400
0400
0400
FF80
0800
0800
0800
FF80
1000
1000
3000
2000
ENDCHAR
STARTCHAR equivalence
ENCODING 8801
SWIDTH 570 0
DWIDTH 11 0
BBX 9 5 0 2
BITMAP
FF80
0000
FF80
0000
FF80
ENDCHAR
STARTCHAR uni2262
ENCODING 8802
SWIDTH 570 0
DWIDTH 11 0
BBX 9 14 0 -2
BITMAP
0200
0600
0400
0400
0400
FF80
0800
FF80
0800
FF80
1000
1000
3000
2000
ENDCHAR
STARTCHAR lessequal
ENCODING 8804
SWIDTH 570 0
DWIDTH 11 0
BBX 9 12 1 -2
BITMAP
0080
0380
0F00
3800
E000
8000
7000
1C00
0700
0180
0000
FF80
ENDCHAR
STARTCHAR greaterequal
ENCODING 8805
SWIDTH 570 0
DWIDTH 11 0
BBX 9 12 1 -2
BITMAP
8000
E000
7800
0E00
0380
0080
0700
1C00
7000
C000
0000
FF80
ENDCHAR
STARTCHAR uni226E
ENCODING 8814
SWIDTH 570 0
DWIDTH 11 0
BBX 9 14 1 -2
BITMAP
0200
0600
0480
0780
0F00
3800
E800
8800
7800
1C00
1700
1180
3000
2000
ENDCHAR
STARTCHAR uni226F
ENCODING 8815
SWIDTH 570 0
DWIDTH 11 0
BBX 9 14 1 -2
BITMAP
0200
0600
8400
E400
7C00
0E00
0B80
0880
0F00
1C00
7000
D000
3000
2000
ENDCHAR
STARTCHAR uni2270
ENCODING 8816
SWIDTH 570 0
DWIDTH 11 0
BBX 9 14 1 -3
BITMAP
0200
0680
0780
0F00
3C00
E800
8800
7800
1C00
1700
1180
1000
FF80
2000
ENDCHAR
STARTCHAR uni2271
ENCODING 8817
SWIDTH 570 0
DWIDTH 11 0
BBX 9 14 1 -3
BITMAP
0200
8600
E400
7C00
0E00
0B80
0880
0F00
1C00
7000
D000
1000
FF80
2000
ENDCHAR
STARTCHAR fi
ENCODING -1
SWIDTH 610 0
DWIDTH 12 0
BBX 10 14 1 0
BITMAP
1E00
3180
6000
6000
FF80
6180
6180
6180
6180
6180
6180
6180
6180
F3C0
ENDCHAR
STARTCHAR fl
ENCODING -1
SWIDTH 610 0
DWIDTH 12 0
BBX 10 14 1 0
BITMAP
1E80
3180
6180
6180
F980
6180
6180
6180
6180
6180
6180
6180
6180
FBC0
ENDCHAR
ENDFONT
